G04 #@! TF.GenerationSoftware,KiCad,Pcbnew,6.0.9-8da3e8f707~116~ubuntu20.04.1*
G04 #@! TF.CreationDate,2023-03-26T13:58:36+00:00*
G04 #@! TF.ProjectId,LEC001021,4c454330-3031-4303-9231-2e6b69636164,rev?*
G04 #@! TF.SameCoordinates,Original*
G04 #@! TF.FileFunction,Copper,L2,Bot*
G04 #@! TF.FilePolarity,Positive*
%FSLAX46Y46*%
G04 Gerber Fmt 4.6, Leading zero omitted, Abs format (unit mm)*
G04 Created by KiCad (PCBNEW 6.0.9-8da3e8f707~116~ubuntu20.04.1) date 2023-03-26 13:58:36*
%MOMM*%
%LPD*%
G01*
G04 APERTURE LIST*
G04 #@! TA.AperFunction,EtchedComponent*
%ADD10C,0.010000*%
G04 #@! TD*
G04 #@! TA.AperFunction,ComponentPad*
%ADD11R,3.000000X3.000000*%
G04 #@! TD*
G04 #@! TA.AperFunction,ComponentPad*
%ADD12C,3.000000*%
G04 #@! TD*
G04 APERTURE END LIST*
G04 #@! TO.C,LOGO1*
G36*
X14009380Y-4195820D02*
G01*
X13788400Y-4195820D01*
X13788400Y-2913120D01*
X14009380Y-2913120D01*
X14009380Y-4195820D01*
G37*
D10*
X14009380Y-4195820D02*
X13788400Y-4195820D01*
X13788400Y-2913120D01*
X14009380Y-2913120D01*
X14009380Y-4195820D01*
G36*
X15582175Y-2520875D02*
G01*
X15606456Y-2521399D01*
X15629218Y-2522339D01*
X15649281Y-2523688D01*
X15665460Y-2525434D01*
X15680795Y-2527716D01*
X15738211Y-2538763D01*
X15792923Y-2553465D01*
X15845800Y-2572046D01*
X15878684Y-2585936D01*
X15932339Y-2612820D01*
X15983267Y-2643709D01*
X16031292Y-2678355D01*
X16076238Y-2716510D01*
X16117927Y-2757923D01*
X16156184Y-2802349D01*
X16190832Y-2849537D01*
X16221694Y-2899239D01*
X16248595Y-2951206D01*
X16271357Y-3005192D01*
X16289804Y-3060945D01*
X16303761Y-3118219D01*
X16313049Y-3176765D01*
X16317493Y-3236335D01*
X16318969Y-3281420D01*
X16097972Y-3281420D01*
X16096568Y-3240145D01*
X16094072Y-3202105D01*
X16087444Y-3156052D01*
X16076801Y-3111621D01*
X16066760Y-3080492D01*
X16047352Y-3033413D01*
X16023748Y-2988864D01*
X15996186Y-2947062D01*
X15964910Y-2908223D01*
X15930159Y-2872566D01*
X15892174Y-2840308D01*
X15851196Y-2811666D01*
X15807466Y-2786857D01*
X15761225Y-2766099D01*
X15712714Y-2749608D01*
X15662174Y-2737603D01*
X15651221Y-2735804D01*
X15628443Y-2733214D01*
X15602955Y-2731480D01*
X15576240Y-2730637D01*
X15549779Y-2730722D01*
X15525054Y-2731768D01*
X15503548Y-2733813D01*
X15463203Y-2740740D01*
X15413792Y-2753690D01*
X15365804Y-2771226D01*
X15319753Y-2793127D01*
X15276154Y-2819172D01*
X15235520Y-2849140D01*
X15223644Y-2859254D01*
X15198472Y-2883197D01*
X15173771Y-2909852D01*
X15150573Y-2938002D01*
X15129911Y-2966428D01*
X15112816Y-2993914D01*
X15109695Y-2999339D01*
X15104095Y-3008095D01*
X15100032Y-3012718D01*
X15097206Y-3013584D01*
X15096412Y-3013174D01*
X15091822Y-3010407D01*
X15083835Y-3005390D01*
X15073000Y-2998482D01*
X15059862Y-2990039D01*
X15044971Y-2980419D01*
X15028873Y-2969979D01*
X15012117Y-2959075D01*
X14995250Y-2948066D01*
X14978819Y-2937308D01*
X14963373Y-2927159D01*
X14949459Y-2917976D01*
X14937624Y-2910116D01*
X14928416Y-2903936D01*
X14922384Y-2899794D01*
X14920073Y-2898046D01*
X14920067Y-2898034D01*
X14920968Y-2895284D01*
X14924127Y-2889176D01*
X14929050Y-2880604D01*
X14935247Y-2870462D01*
X14936525Y-2868433D01*
X14971383Y-2817944D01*
X15009889Y-2770884D01*
X15051829Y-2727388D01*
X15096988Y-2687592D01*
X15145150Y-2651632D01*
X15196099Y-2619642D01*
X15249620Y-2591760D01*
X15305498Y-2568120D01*
X15363518Y-2548858D01*
X15423464Y-2534111D01*
X15485120Y-2524013D01*
X15493524Y-2523135D01*
X15512051Y-2521898D01*
X15533791Y-2521115D01*
X15557559Y-2520777D01*
X15582175Y-2520875D01*
G37*
X15582175Y-2520875D02*
X15606456Y-2521399D01*
X15629218Y-2522339D01*
X15649281Y-2523688D01*
X15665460Y-2525434D01*
X15680795Y-2527716D01*
X15738211Y-2538763D01*
X15792923Y-2553465D01*
X15845800Y-2572046D01*
X15878684Y-2585936D01*
X15932339Y-2612820D01*
X15983267Y-2643709D01*
X16031292Y-2678355D01*
X16076238Y-2716510D01*
X16117927Y-2757923D01*
X16156184Y-2802349D01*
X16190832Y-2849537D01*
X16221694Y-2899239D01*
X16248595Y-2951206D01*
X16271357Y-3005192D01*
X16289804Y-3060945D01*
X16303761Y-3118219D01*
X16313049Y-3176765D01*
X16317493Y-3236335D01*
X16318969Y-3281420D01*
X16097972Y-3281420D01*
X16096568Y-3240145D01*
X16094072Y-3202105D01*
X16087444Y-3156052D01*
X16076801Y-3111621D01*
X16066760Y-3080492D01*
X16047352Y-3033413D01*
X16023748Y-2988864D01*
X15996186Y-2947062D01*
X15964910Y-2908223D01*
X15930159Y-2872566D01*
X15892174Y-2840308D01*
X15851196Y-2811666D01*
X15807466Y-2786857D01*
X15761225Y-2766099D01*
X15712714Y-2749608D01*
X15662174Y-2737603D01*
X15651221Y-2735804D01*
X15628443Y-2733214D01*
X15602955Y-2731480D01*
X15576240Y-2730637D01*
X15549779Y-2730722D01*
X15525054Y-2731768D01*
X15503548Y-2733813D01*
X15463203Y-2740740D01*
X15413792Y-2753690D01*
X15365804Y-2771226D01*
X15319753Y-2793127D01*
X15276154Y-2819172D01*
X15235520Y-2849140D01*
X15223644Y-2859254D01*
X15198472Y-2883197D01*
X15173771Y-2909852D01*
X15150573Y-2938002D01*
X15129911Y-2966428D01*
X15112816Y-2993914D01*
X15109695Y-2999339D01*
X15104095Y-3008095D01*
X15100032Y-3012718D01*
X15097206Y-3013584D01*
X15096412Y-3013174D01*
X15091822Y-3010407D01*
X15083835Y-3005390D01*
X15073000Y-2998482D01*
X15059862Y-2990039D01*
X15044971Y-2980419D01*
X15028873Y-2969979D01*
X15012117Y-2959075D01*
X14995250Y-2948066D01*
X14978819Y-2937308D01*
X14963373Y-2927159D01*
X14949459Y-2917976D01*
X14937624Y-2910116D01*
X14928416Y-2903936D01*
X14922384Y-2899794D01*
X14920073Y-2898046D01*
X14920067Y-2898034D01*
X14920968Y-2895284D01*
X14924127Y-2889176D01*
X14929050Y-2880604D01*
X14935247Y-2870462D01*
X14936525Y-2868433D01*
X14971383Y-2817944D01*
X15009889Y-2770884D01*
X15051829Y-2727388D01*
X15096988Y-2687592D01*
X15145150Y-2651632D01*
X15196099Y-2619642D01*
X15249620Y-2591760D01*
X15305498Y-2568120D01*
X15363518Y-2548858D01*
X15423464Y-2534111D01*
X15485120Y-2524013D01*
X15493524Y-2523135D01*
X15512051Y-2521898D01*
X15533791Y-2521115D01*
X15557559Y-2520777D01*
X15582175Y-2520875D01*
G36*
X12762240Y-4195820D02*
G01*
X12541260Y-4195820D01*
X12541260Y-2524500D01*
X12762240Y-2524500D01*
X12762240Y-4195820D01*
G37*
X12762240Y-4195820D02*
X12541260Y-4195820D01*
X12541260Y-2524500D01*
X12762240Y-2524500D01*
X12762240Y-4195820D01*
G36*
X17819380Y-4203440D02*
G01*
X16727180Y-4203440D01*
X16727180Y-3979920D01*
X17819380Y-3979920D01*
X17819380Y-4203440D01*
G37*
X17819380Y-4203440D02*
X16727180Y-4203440D01*
X16727180Y-3979920D01*
X17819380Y-3979920D01*
X17819380Y-4203440D01*
G36*
X17821920Y-3802120D02*
G01*
X17600940Y-3802120D01*
X17600940Y-3459220D01*
X16841480Y-3459220D01*
X16841480Y-3235700D01*
X17821920Y-3235700D01*
X17821920Y-3802120D01*
G37*
X17821920Y-3802120D02*
X17600940Y-3802120D01*
X17600940Y-3459220D01*
X16841480Y-3459220D01*
X16841480Y-3235700D01*
X17821920Y-3235700D01*
X17821920Y-3802120D01*
G36*
X19419580Y-4203440D02*
G01*
X18271500Y-4203440D01*
X18271500Y-3979920D01*
X19419580Y-3979920D01*
X19419580Y-4203440D01*
G37*
X19419580Y-4203440D02*
X18271500Y-4203440D01*
X18271500Y-3979920D01*
X19419580Y-3979920D01*
X19419580Y-4203440D01*
G36*
X17824460Y-3050280D02*
G01*
X17600940Y-3050280D01*
X17600940Y-2737860D01*
X16727180Y-2737860D01*
X16727180Y-2516880D01*
X17824460Y-2516880D01*
X17824460Y-3050280D01*
G37*
X17824460Y-3050280D02*
X17600940Y-3050280D01*
X17600940Y-2737860D01*
X16727180Y-2737860D01*
X16727180Y-2516880D01*
X17824460Y-2516880D01*
X17824460Y-3050280D01*
G36*
X14578340Y-2745480D02*
G01*
X13209280Y-2745480D01*
X13209280Y-2524500D01*
X14578340Y-2524500D01*
X14578340Y-2745480D01*
G37*
X14578340Y-2745480D02*
X13209280Y-2745480D01*
X13209280Y-2524500D01*
X14578340Y-2524500D01*
X14578340Y-2745480D01*
G36*
X10829788Y-2530039D02*
G01*
X10846503Y-2530171D01*
X10859496Y-2530418D01*
X10869140Y-2530789D01*
X10875807Y-2531292D01*
X10879871Y-2531936D01*
X10881706Y-2532728D01*
X10881955Y-2533044D01*
X10884660Y-2536667D01*
X10890229Y-2544205D01*
X10898563Y-2555522D01*
X10909559Y-2570481D01*
X10923118Y-2588943D01*
X10939140Y-2610772D01*
X10957523Y-2635831D01*
X10978168Y-2663981D01*
X11000973Y-2695087D01*
X11025838Y-2729011D01*
X11052662Y-2765614D01*
X11081345Y-2804761D01*
X11111786Y-2846314D01*
X11143885Y-2890136D01*
X11177541Y-2936089D01*
X11212653Y-2984036D01*
X11249122Y-3033839D01*
X11286846Y-3085363D01*
X11325724Y-3138469D01*
X11365657Y-3193019D01*
X11406543Y-3248878D01*
X11448283Y-3305907D01*
X11490775Y-3363970D01*
X12096733Y-4192010D01*
X11984352Y-4192672D01*
X11967581Y-4192759D01*
X11945167Y-4192839D01*
X11924673Y-4192870D01*
X11906625Y-4192853D01*
X11891550Y-4192789D01*
X11879975Y-4192680D01*
X11872426Y-4192529D01*
X11869430Y-4192335D01*
X11868338Y-4191051D01*
X11864387Y-4185916D01*
X11857724Y-4177061D01*
X11848507Y-4164704D01*
X11836898Y-4149061D01*
X11823054Y-4130350D01*
X11807137Y-4108787D01*
X11789307Y-4084589D01*
X11769721Y-4057973D01*
X11748542Y-4029156D01*
X11725928Y-3998355D01*
X11702039Y-3965786D01*
X11677035Y-3931667D01*
X11651075Y-3896214D01*
X11624320Y-3859644D01*
X11603523Y-3831211D01*
X11577400Y-3795518D01*
X11552211Y-3761119D01*
X11528113Y-3728231D01*
X11505266Y-3697070D01*
X11483827Y-3667851D01*
X11463956Y-3640791D01*
X11445812Y-3616106D01*
X11429553Y-3594010D01*
X11415339Y-3574722D01*
X11403326Y-3558455D01*
X11393676Y-3545427D01*
X11386545Y-3535854D01*
X11382094Y-3529950D01*
X11380480Y-3527933D01*
X11379444Y-3529211D01*
X11375594Y-3534347D01*
X11369052Y-3543215D01*
X11359977Y-3555596D01*
X11348525Y-3571274D01*
X11334853Y-3590034D01*
X11319120Y-3611658D01*
X11301483Y-3635929D01*
X11282098Y-3662632D01*
X11261124Y-3691550D01*
X11238717Y-3722466D01*
X11215035Y-3755163D01*
X11190235Y-3789426D01*
X11164474Y-3825037D01*
X11137910Y-3861780D01*
X10896610Y-4195649D01*
X10782734Y-4195734D01*
X10753804Y-4195703D01*
X10728600Y-4195563D01*
X10707651Y-4195317D01*
X10691122Y-4194969D01*
X10679178Y-4194522D01*
X10671984Y-4193981D01*
X10669704Y-4193347D01*
X10669967Y-4192932D01*
X10672654Y-4189091D01*
X10678122Y-4181411D01*
X10686230Y-4170086D01*
X10696836Y-4155315D01*
X10709798Y-4137293D01*
X10724975Y-4116218D01*
X10742225Y-4092285D01*
X10761405Y-4065692D01*
X10782374Y-4036635D01*
X10804990Y-4005310D01*
X10829111Y-3971916D01*
X10854595Y-3936647D01*
X10881301Y-3899701D01*
X10909087Y-3861274D01*
X10937810Y-3821564D01*
X10967329Y-3780766D01*
X10979175Y-3764395D01*
X11008378Y-3724025D01*
X11036721Y-3684829D01*
X11064062Y-3647003D01*
X11090261Y-3610742D01*
X11115175Y-3576243D01*
X11138663Y-3543701D01*
X11160584Y-3513314D01*
X11180798Y-3485275D01*
X11199162Y-3459783D01*
X11215535Y-3437032D01*
X11229776Y-3417220D01*
X11241744Y-3400541D01*
X11251297Y-3387192D01*
X11258293Y-3377370D01*
X11262593Y-3371269D01*
X11264054Y-3369087D01*
X11263526Y-3368277D01*
X11260326Y-3363760D01*
X11254349Y-3355452D01*
X11245735Y-3343546D01*
X11234626Y-3328236D01*
X11221161Y-3309713D01*
X11205482Y-3288172D01*
X11187729Y-3263806D01*
X11168043Y-3236806D01*
X11146564Y-3207366D01*
X11123434Y-3175680D01*
X11098794Y-3141940D01*
X11072783Y-3106338D01*
X11045542Y-3069069D01*
X11017213Y-3030325D01*
X10987936Y-2990298D01*
X10957852Y-2949183D01*
X10651704Y-2530850D01*
X10765150Y-2530188D01*
X10783696Y-2530092D01*
X10808976Y-2530016D01*
X10829788Y-2530039D01*
G37*
X10829788Y-2530039D02*
X10846503Y-2530171D01*
X10859496Y-2530418D01*
X10869140Y-2530789D01*
X10875807Y-2531292D01*
X10879871Y-2531936D01*
X10881706Y-2532728D01*
X10881955Y-2533044D01*
X10884660Y-2536667D01*
X10890229Y-2544205D01*
X10898563Y-2555522D01*
X10909559Y-2570481D01*
X10923118Y-2588943D01*
X10939140Y-2610772D01*
X10957523Y-2635831D01*
X10978168Y-2663981D01*
X11000973Y-2695087D01*
X11025838Y-2729011D01*
X11052662Y-2765614D01*
X11081345Y-2804761D01*
X11111786Y-2846314D01*
X11143885Y-2890136D01*
X11177541Y-2936089D01*
X11212653Y-2984036D01*
X11249122Y-3033839D01*
X11286846Y-3085363D01*
X11325724Y-3138469D01*
X11365657Y-3193019D01*
X11406543Y-3248878D01*
X11448283Y-3305907D01*
X11490775Y-3363970D01*
X12096733Y-4192010D01*
X11984352Y-4192672D01*
X11967581Y-4192759D01*
X11945167Y-4192839D01*
X11924673Y-4192870D01*
X11906625Y-4192853D01*
X11891550Y-4192789D01*
X11879975Y-4192680D01*
X11872426Y-4192529D01*
X11869430Y-4192335D01*
X11868338Y-4191051D01*
X11864387Y-4185916D01*
X11857724Y-4177061D01*
X11848507Y-4164704D01*
X11836898Y-4149061D01*
X11823054Y-4130350D01*
X11807137Y-4108787D01*
X11789307Y-4084589D01*
X11769721Y-4057973D01*
X11748542Y-4029156D01*
X11725928Y-3998355D01*
X11702039Y-3965786D01*
X11677035Y-3931667D01*
X11651075Y-3896214D01*
X11624320Y-3859644D01*
X11603523Y-3831211D01*
X11577400Y-3795518D01*
X11552211Y-3761119D01*
X11528113Y-3728231D01*
X11505266Y-3697070D01*
X11483827Y-3667851D01*
X11463956Y-3640791D01*
X11445812Y-3616106D01*
X11429553Y-3594010D01*
X11415339Y-3574722D01*
X11403326Y-3558455D01*
X11393676Y-3545427D01*
X11386545Y-3535854D01*
X11382094Y-3529950D01*
X11380480Y-3527933D01*
X11379444Y-3529211D01*
X11375594Y-3534347D01*
X11369052Y-3543215D01*
X11359977Y-3555596D01*
X11348525Y-3571274D01*
X11334853Y-3590034D01*
X11319120Y-3611658D01*
X11301483Y-3635929D01*
X11282098Y-3662632D01*
X11261124Y-3691550D01*
X11238717Y-3722466D01*
X11215035Y-3755163D01*
X11190235Y-3789426D01*
X11164474Y-3825037D01*
X11137910Y-3861780D01*
X10896610Y-4195649D01*
X10782734Y-4195734D01*
X10753804Y-4195703D01*
X10728600Y-4195563D01*
X10707651Y-4195317D01*
X10691122Y-4194969D01*
X10679178Y-4194522D01*
X10671984Y-4193981D01*
X10669704Y-4193347D01*
X10669967Y-4192932D01*
X10672654Y-4189091D01*
X10678122Y-4181411D01*
X10686230Y-4170086D01*
X10696836Y-4155315D01*
X10709798Y-4137293D01*
X10724975Y-4116218D01*
X10742225Y-4092285D01*
X10761405Y-4065692D01*
X10782374Y-4036635D01*
X10804990Y-4005310D01*
X10829111Y-3971916D01*
X10854595Y-3936647D01*
X10881301Y-3899701D01*
X10909087Y-3861274D01*
X10937810Y-3821564D01*
X10967329Y-3780766D01*
X10979175Y-3764395D01*
X11008378Y-3724025D01*
X11036721Y-3684829D01*
X11064062Y-3647003D01*
X11090261Y-3610742D01*
X11115175Y-3576243D01*
X11138663Y-3543701D01*
X11160584Y-3513314D01*
X11180798Y-3485275D01*
X11199162Y-3459783D01*
X11215535Y-3437032D01*
X11229776Y-3417220D01*
X11241744Y-3400541D01*
X11251297Y-3387192D01*
X11258293Y-3377370D01*
X11262593Y-3371269D01*
X11264054Y-3369087D01*
X11263526Y-3368277D01*
X11260326Y-3363760D01*
X11254349Y-3355452D01*
X11245735Y-3343546D01*
X11234626Y-3328236D01*
X11221161Y-3309713D01*
X11205482Y-3288172D01*
X11187729Y-3263806D01*
X11168043Y-3236806D01*
X11146564Y-3207366D01*
X11123434Y-3175680D01*
X11098794Y-3141940D01*
X11072783Y-3106338D01*
X11045542Y-3069069D01*
X11017213Y-3030325D01*
X10987936Y-2990298D01*
X10957852Y-2949183D01*
X10651704Y-2530850D01*
X10765150Y-2530188D01*
X10783696Y-2530092D01*
X10808976Y-2530016D01*
X10829788Y-2530039D01*
G36*
X19419580Y-3802120D02*
G01*
X19198600Y-3802120D01*
X19198600Y-2527040D01*
X19419580Y-2527040D01*
X19419580Y-3802120D01*
G37*
X19419580Y-3802120D02*
X19198600Y-3802120D01*
X19198600Y-2527040D01*
X19419580Y-2527040D01*
X19419580Y-3802120D01*
G36*
X12030475Y-2524500D02*
G01*
X12054651Y-2524514D01*
X12074427Y-2524559D01*
X12090228Y-2524655D01*
X12102478Y-2524823D01*
X12111601Y-2525081D01*
X12118019Y-2525449D01*
X12122156Y-2525947D01*
X12124437Y-2526595D01*
X12125285Y-2527412D01*
X12125123Y-2528417D01*
X12124375Y-2529630D01*
X12124149Y-2529952D01*
X12121486Y-2533654D01*
X12116036Y-2541192D01*
X12107953Y-2552354D01*
X12097392Y-2566927D01*
X12084507Y-2584699D01*
X12069452Y-2605456D01*
X12052382Y-2628985D01*
X12033451Y-2655075D01*
X12012814Y-2683511D01*
X11990626Y-2714081D01*
X11967040Y-2746572D01*
X11942211Y-2780772D01*
X11916293Y-2816468D01*
X11889442Y-2853445D01*
X11861810Y-2891493D01*
X11853404Y-2903067D01*
X11826032Y-2940724D01*
X11799494Y-2977196D01*
X11773944Y-3012272D01*
X11749535Y-3045743D01*
X11726421Y-3077402D01*
X11704753Y-3107037D01*
X11684687Y-3134442D01*
X11666375Y-3159405D01*
X11649971Y-3181719D01*
X11635627Y-3201174D01*
X11623498Y-3217561D01*
X11613736Y-3230671D01*
X11606496Y-3240295D01*
X11601929Y-3246223D01*
X11600190Y-3248247D01*
X11599073Y-3247375D01*
X11595221Y-3242955D01*
X11589128Y-3235298D01*
X11581199Y-3224962D01*
X11571838Y-3212504D01*
X11561449Y-3198483D01*
X11550438Y-3183457D01*
X11539207Y-3167984D01*
X11528162Y-3152622D01*
X11517707Y-3137928D01*
X11508245Y-3124461D01*
X11500183Y-3112779D01*
X11493923Y-3103439D01*
X11489871Y-3097001D01*
X11488430Y-3094021D01*
X11488979Y-3092942D01*
X11492186Y-3088009D01*
X11498111Y-3079356D01*
X11506582Y-3067223D01*
X11517429Y-3051848D01*
X11530480Y-3033470D01*
X11545565Y-3012329D01*
X11562513Y-2988663D01*
X11581152Y-2962711D01*
X11601311Y-2934714D01*
X11622820Y-2904909D01*
X11645507Y-2873537D01*
X11669201Y-2840835D01*
X11693731Y-2807044D01*
X11899032Y-2524500D01*
X12013446Y-2524499D01*
X12030475Y-2524500D01*
G37*
X12030475Y-2524500D02*
X12054651Y-2524514D01*
X12074427Y-2524559D01*
X12090228Y-2524655D01*
X12102478Y-2524823D01*
X12111601Y-2525081D01*
X12118019Y-2525449D01*
X12122156Y-2525947D01*
X12124437Y-2526595D01*
X12125285Y-2527412D01*
X12125123Y-2528417D01*
X12124375Y-2529630D01*
X12124149Y-2529952D01*
X12121486Y-2533654D01*
X12116036Y-2541192D01*
X12107953Y-2552354D01*
X12097392Y-2566927D01*
X12084507Y-2584699D01*
X12069452Y-2605456D01*
X12052382Y-2628985D01*
X12033451Y-2655075D01*
X12012814Y-2683511D01*
X11990626Y-2714081D01*
X11967040Y-2746572D01*
X11942211Y-2780772D01*
X11916293Y-2816468D01*
X11889442Y-2853445D01*
X11861810Y-2891493D01*
X11853404Y-2903067D01*
X11826032Y-2940724D01*
X11799494Y-2977196D01*
X11773944Y-3012272D01*
X11749535Y-3045743D01*
X11726421Y-3077402D01*
X11704753Y-3107037D01*
X11684687Y-3134442D01*
X11666375Y-3159405D01*
X11649971Y-3181719D01*
X11635627Y-3201174D01*
X11623498Y-3217561D01*
X11613736Y-3230671D01*
X11606496Y-3240295D01*
X11601929Y-3246223D01*
X11600190Y-3248247D01*
X11599073Y-3247375D01*
X11595221Y-3242955D01*
X11589128Y-3235298D01*
X11581199Y-3224962D01*
X11571838Y-3212504D01*
X11561449Y-3198483D01*
X11550438Y-3183457D01*
X11539207Y-3167984D01*
X11528162Y-3152622D01*
X11517707Y-3137928D01*
X11508245Y-3124461D01*
X11500183Y-3112779D01*
X11493923Y-3103439D01*
X11489871Y-3097001D01*
X11488430Y-3094021D01*
X11488979Y-3092942D01*
X11492186Y-3088009D01*
X11498111Y-3079356D01*
X11506582Y-3067223D01*
X11517429Y-3051848D01*
X11530480Y-3033470D01*
X11545565Y-3012329D01*
X11562513Y-2988663D01*
X11581152Y-2962711D01*
X11601311Y-2934714D01*
X11622820Y-2904909D01*
X11645507Y-2873537D01*
X11669201Y-2840835D01*
X11693731Y-2807044D01*
X11899032Y-2524500D01*
X12013446Y-2524499D01*
X12030475Y-2524500D01*
G36*
X16230759Y-3451620D02*
G01*
X16252909Y-3451717D01*
X16273059Y-3451886D01*
X16290696Y-3452119D01*
X16305308Y-3452405D01*
X16316379Y-3452738D01*
X16323398Y-3453107D01*
X16325850Y-3453505D01*
X16325562Y-3460470D01*
X16324815Y-3471334D01*
X16323719Y-3484885D01*
X16322382Y-3499937D01*
X16320913Y-3515307D01*
X16319423Y-3529810D01*
X16318020Y-3542261D01*
X16316813Y-3551477D01*
X16308629Y-3597129D01*
X16293426Y-3657274D01*
X16273518Y-3715618D01*
X16248986Y-3771994D01*
X16219914Y-3826236D01*
X16186384Y-3878179D01*
X16148480Y-3927656D01*
X16106282Y-3974501D01*
X16091073Y-3989790D01*
X16066058Y-4013317D01*
X16040956Y-4034653D01*
X16014202Y-4055098D01*
X15984230Y-4075955D01*
X15975981Y-4081401D01*
X15925203Y-4111731D01*
X15872206Y-4138188D01*
X15817599Y-4160545D01*
X15761993Y-4178574D01*
X15705997Y-4192047D01*
X15650220Y-4200735D01*
X15644862Y-4201341D01*
X15633690Y-4202630D01*
X15624358Y-4203741D01*
X15618470Y-4204485D01*
X15614897Y-4204704D01*
X15606633Y-4204880D01*
X15594719Y-4204966D01*
X15579929Y-4204960D01*
X15563035Y-4204860D01*
X15544810Y-4204665D01*
X15520714Y-4204226D01*
X15497056Y-4203419D01*
X15476279Y-4202177D01*
X15457214Y-4200387D01*
X15438693Y-4197937D01*
X15419549Y-4194715D01*
X15398614Y-4190608D01*
X15345078Y-4177513D01*
X15286683Y-4158386D01*
X15230214Y-4134719D01*
X15175929Y-4106690D01*
X15124085Y-4074473D01*
X15074939Y-4038245D01*
X15028747Y-3998181D01*
X14985767Y-3954456D01*
X14946255Y-3907247D01*
X14910468Y-3856730D01*
X14907037Y-3851432D01*
X14897839Y-3837022D01*
X14891171Y-3826130D01*
X14886764Y-3818246D01*
X14884350Y-3812864D01*
X14883658Y-3809476D01*
X14884421Y-3807574D01*
X14884716Y-3807360D01*
X14888481Y-3805212D01*
X14896008Y-3801170D01*
X14906746Y-3795515D01*
X14920143Y-3788530D01*
X14935647Y-3780496D01*
X14952708Y-3771697D01*
X14970773Y-3762414D01*
X14989291Y-3752930D01*
X15007712Y-3743526D01*
X15025482Y-3734484D01*
X15042050Y-3726087D01*
X15056866Y-3718617D01*
X15069378Y-3712356D01*
X15079034Y-3707586D01*
X15085282Y-3704589D01*
X15087572Y-3703648D01*
X15087581Y-3703660D01*
X15089023Y-3706162D01*
X15092236Y-3711866D01*
X15096541Y-3719570D01*
X15107107Y-3737642D01*
X15135479Y-3779189D01*
X15167725Y-3817757D01*
X15203523Y-3853119D01*
X15242553Y-3885050D01*
X15284494Y-3913326D01*
X15329027Y-3937722D01*
X15375829Y-3958011D01*
X15424580Y-3973968D01*
X15474960Y-3985369D01*
X15494525Y-3988161D01*
X15518784Y-3990393D01*
X15544830Y-3991784D01*
X15570988Y-3992277D01*
X15595583Y-3991812D01*
X15616939Y-3990331D01*
X15618267Y-3990191D01*
X15667946Y-3982466D01*
X15717001Y-3970147D01*
X15764786Y-3953491D01*
X15810655Y-3932754D01*
X15853962Y-3908193D01*
X15894060Y-3880066D01*
X15900140Y-3875258D01*
X15938352Y-3841476D01*
X15973067Y-3804432D01*
X16004087Y-3764500D01*
X16031216Y-3722055D01*
X16054257Y-3677472D01*
X16073012Y-3631126D01*
X16087286Y-3583391D01*
X16096880Y-3534642D01*
X16101598Y-3485255D01*
X16103101Y-3451600D01*
X16214481Y-3451600D01*
X16230759Y-3451620D01*
G37*
X16230759Y-3451620D02*
X16252909Y-3451717D01*
X16273059Y-3451886D01*
X16290696Y-3452119D01*
X16305308Y-3452405D01*
X16316379Y-3452738D01*
X16323398Y-3453107D01*
X16325850Y-3453505D01*
X16325562Y-3460470D01*
X16324815Y-3471334D01*
X16323719Y-3484885D01*
X16322382Y-3499937D01*
X16320913Y-3515307D01*
X16319423Y-3529810D01*
X16318020Y-3542261D01*
X16316813Y-3551477D01*
X16308629Y-3597129D01*
X16293426Y-3657274D01*
X16273518Y-3715618D01*
X16248986Y-3771994D01*
X16219914Y-3826236D01*
X16186384Y-3878179D01*
X16148480Y-3927656D01*
X16106282Y-3974501D01*
X16091073Y-3989790D01*
X16066058Y-4013317D01*
X16040956Y-4034653D01*
X16014202Y-4055098D01*
X15984230Y-4075955D01*
X15975981Y-4081401D01*
X15925203Y-4111731D01*
X15872206Y-4138188D01*
X15817599Y-4160545D01*
X15761993Y-4178574D01*
X15705997Y-4192047D01*
X15650220Y-4200735D01*
X15644862Y-4201341D01*
X15633690Y-4202630D01*
X15624358Y-4203741D01*
X15618470Y-4204485D01*
X15614897Y-4204704D01*
X15606633Y-4204880D01*
X15594719Y-4204966D01*
X15579929Y-4204960D01*
X15563035Y-4204860D01*
X15544810Y-4204665D01*
X15520714Y-4204226D01*
X15497056Y-4203419D01*
X15476279Y-4202177D01*
X15457214Y-4200387D01*
X15438693Y-4197937D01*
X15419549Y-4194715D01*
X15398614Y-4190608D01*
X15345078Y-4177513D01*
X15286683Y-4158386D01*
X15230214Y-4134719D01*
X15175929Y-4106690D01*
X15124085Y-4074473D01*
X15074939Y-4038245D01*
X15028747Y-3998181D01*
X14985767Y-3954456D01*
X14946255Y-3907247D01*
X14910468Y-3856730D01*
X14907037Y-3851432D01*
X14897839Y-3837022D01*
X14891171Y-3826130D01*
X14886764Y-3818246D01*
X14884350Y-3812864D01*
X14883658Y-3809476D01*
X14884421Y-3807574D01*
X14884716Y-3807360D01*
X14888481Y-3805212D01*
X14896008Y-3801170D01*
X14906746Y-3795515D01*
X14920143Y-3788530D01*
X14935647Y-3780496D01*
X14952708Y-3771697D01*
X14970773Y-3762414D01*
X14989291Y-3752930D01*
X15007712Y-3743526D01*
X15025482Y-3734484D01*
X15042050Y-3726087D01*
X15056866Y-3718617D01*
X15069378Y-3712356D01*
X15079034Y-3707586D01*
X15085282Y-3704589D01*
X15087572Y-3703648D01*
X15087581Y-3703660D01*
X15089023Y-3706162D01*
X15092236Y-3711866D01*
X15096541Y-3719570D01*
X15107107Y-3737642D01*
X15135479Y-3779189D01*
X15167725Y-3817757D01*
X15203523Y-3853119D01*
X15242553Y-3885050D01*
X15284494Y-3913326D01*
X15329027Y-3937722D01*
X15375829Y-3958011D01*
X15424580Y-3973968D01*
X15474960Y-3985369D01*
X15494525Y-3988161D01*
X15518784Y-3990393D01*
X15544830Y-3991784D01*
X15570988Y-3992277D01*
X15595583Y-3991812D01*
X15616939Y-3990331D01*
X15618267Y-3990191D01*
X15667946Y-3982466D01*
X15717001Y-3970147D01*
X15764786Y-3953491D01*
X15810655Y-3932754D01*
X15853962Y-3908193D01*
X15894060Y-3880066D01*
X15900140Y-3875258D01*
X15938352Y-3841476D01*
X15973067Y-3804432D01*
X16004087Y-3764500D01*
X16031216Y-3722055D01*
X16054257Y-3677472D01*
X16073012Y-3631126D01*
X16087286Y-3583391D01*
X16096880Y-3534642D01*
X16101598Y-3485255D01*
X16103101Y-3451600D01*
X16214481Y-3451600D01*
X16230759Y-3451620D01*
G04 #@! TD*
D11*
G04 #@! TO.P,J1,1,Pin_1*
G04 #@! TO.N,Net-(D1-Pad1)*
X12500000Y-26000000D03*
D12*
G04 #@! TO.P,J1,2,Pin_2*
G04 #@! TO.N,Net-(D3-Pad1)*
X17580000Y-26000000D03*
G04 #@! TD*
G04 #@! TA.AperFunction,NonConductor*
G36*
X29434121Y-528002D02*
G01*
X29480614Y-581658D01*
X29492000Y-634000D01*
X29492000Y-29366000D01*
X29471998Y-29434121D01*
X29418342Y-29480614D01*
X29366000Y-29492000D01*
X634000Y-29492000D01*
X565879Y-29471998D01*
X519386Y-29418342D01*
X508000Y-29366000D01*
X508000Y-27548134D01*
X10491500Y-27548134D01*
X10498255Y-27610316D01*
X10549385Y-27746705D01*
X10636739Y-27863261D01*
X10753295Y-27950615D01*
X10889684Y-28001745D01*
X10951866Y-28008500D01*
X14048134Y-28008500D01*
X14110316Y-28001745D01*
X14246705Y-27950615D01*
X14363261Y-27863261D01*
X14450615Y-27746705D01*
X14501745Y-27610316D01*
X14508500Y-27548134D01*
X14508500Y-25978918D01*
X15566917Y-25978918D01*
X15582682Y-26252320D01*
X15583507Y-26256525D01*
X15583508Y-26256533D01*
X15594127Y-26310657D01*
X15635405Y-26521053D01*
X15636792Y-26525103D01*
X15636793Y-26525108D01*
X15657605Y-26585895D01*
X15724112Y-26780144D01*
X15847160Y-27024799D01*
X15849586Y-27028328D01*
X15849589Y-27028334D01*
X15999843Y-27246953D01*
X16002274Y-27250490D01*
X16186582Y-27453043D01*
X16396675Y-27628707D01*
X16400316Y-27630991D01*
X16625024Y-27771951D01*
X16625028Y-27771953D01*
X16628664Y-27774234D01*
X16696544Y-27804883D01*
X16874345Y-27885164D01*
X16874349Y-27885166D01*
X16878257Y-27886930D01*
X16882377Y-27888150D01*
X16882376Y-27888150D01*
X17136723Y-27963491D01*
X17136727Y-27963492D01*
X17140836Y-27964709D01*
X17145070Y-27965357D01*
X17145075Y-27965358D01*
X17407298Y-28005483D01*
X17407300Y-28005483D01*
X17411540Y-28006132D01*
X17550912Y-28008322D01*
X17681071Y-28010367D01*
X17681077Y-28010367D01*
X17685362Y-28010434D01*
X17957235Y-27977534D01*
X18222127Y-27908041D01*
X18226087Y-27906401D01*
X18226092Y-27906399D01*
X18348631Y-27855641D01*
X18475136Y-27803241D01*
X18711582Y-27665073D01*
X18927089Y-27496094D01*
X18968809Y-27453043D01*
X19114686Y-27302509D01*
X19117669Y-27299431D01*
X19120202Y-27295983D01*
X19120206Y-27295978D01*
X19277257Y-27082178D01*
X19279795Y-27078723D01*
X19307154Y-27028334D01*
X19408418Y-26841830D01*
X19408419Y-26841828D01*
X19410468Y-26838054D01*
X19507269Y-26581877D01*
X19568407Y-26314933D01*
X19592751Y-26042161D01*
X19593193Y-26000000D01*
X19574567Y-25726778D01*
X19519032Y-25458612D01*
X19427617Y-25200465D01*
X19302013Y-24957112D01*
X19292040Y-24942921D01*
X19147008Y-24736562D01*
X19144545Y-24733057D01*
X18958125Y-24532445D01*
X18954810Y-24529731D01*
X18954806Y-24529728D01*
X18793304Y-24397540D01*
X18746205Y-24358990D01*
X18512704Y-24215901D01*
X18508768Y-24214173D01*
X18265873Y-24107549D01*
X18265869Y-24107548D01*
X18261945Y-24105825D01*
X17998566Y-24030800D01*
X17994324Y-24030196D01*
X17994318Y-24030195D01*
X17789387Y-24001029D01*
X17727443Y-23992213D01*
X17583589Y-23991460D01*
X17457877Y-23990802D01*
X17457871Y-23990802D01*
X17453591Y-23990780D01*
X17449347Y-23991339D01*
X17449343Y-23991339D01*
X17375741Y-24001029D01*
X17182078Y-24026525D01*
X17177938Y-24027658D01*
X17177936Y-24027658D01*
X17110037Y-24046233D01*
X16917928Y-24098788D01*
X16913980Y-24100472D01*
X16669982Y-24204546D01*
X16669978Y-24204548D01*
X16666030Y-24206232D01*
X16646125Y-24218145D01*
X16434725Y-24344664D01*
X16434721Y-24344667D01*
X16431043Y-24346868D01*
X16217318Y-24518094D01*
X16028808Y-24716742D01*
X15869002Y-24939136D01*
X15740857Y-25181161D01*
X15739385Y-25185184D01*
X15739383Y-25185188D01*
X15732314Y-25204506D01*
X15646743Y-25438337D01*
X15588404Y-25705907D01*
X15566917Y-25978918D01*
X14508500Y-25978918D01*
X14508500Y-24451866D01*
X14501745Y-24389684D01*
X14450615Y-24253295D01*
X14363261Y-24136739D01*
X14246705Y-24049385D01*
X14110316Y-23998255D01*
X14048134Y-23991500D01*
X10951866Y-23991500D01*
X10889684Y-23998255D01*
X10753295Y-24049385D01*
X10636739Y-24136739D01*
X10549385Y-24253295D01*
X10498255Y-24389684D01*
X10491500Y-24451866D01*
X10491500Y-27548134D01*
X508000Y-27548134D01*
X508000Y-15132703D01*
X12890743Y-15132703D01*
X12928268Y-15417734D01*
X13004129Y-15695036D01*
X13116923Y-15959476D01*
X13264561Y-16206161D01*
X13444313Y-16430528D01*
X13652851Y-16628423D01*
X13886317Y-16796186D01*
X13890112Y-16798195D01*
X13890113Y-16798196D01*
X13911869Y-16809715D01*
X14140392Y-16930712D01*
X14410373Y-17029511D01*
X14691264Y-17090755D01*
X14719841Y-17093004D01*
X14914282Y-17108307D01*
X14914291Y-17108307D01*
X14916739Y-17108500D01*
X15072271Y-17108500D01*
X15074407Y-17108354D01*
X15074418Y-17108354D01*
X15282548Y-17094165D01*
X15282554Y-17094164D01*
X15286825Y-17093873D01*
X15291020Y-17093004D01*
X15291022Y-17093004D01*
X15427584Y-17064723D01*
X15568342Y-17035574D01*
X15839343Y-16939607D01*
X16094812Y-16807750D01*
X16098313Y-16805289D01*
X16098317Y-16805287D01*
X16212418Y-16725095D01*
X16330023Y-16642441D01*
X16540622Y-16446740D01*
X16722713Y-16224268D01*
X16872927Y-15979142D01*
X16988483Y-15715898D01*
X17067244Y-15439406D01*
X17107751Y-15154784D01*
X17107845Y-15136951D01*
X17109235Y-14871583D01*
X17109235Y-14871576D01*
X17109257Y-14867297D01*
X17071732Y-14582266D01*
X16995871Y-14304964D01*
X16883077Y-14040524D01*
X16735439Y-13793839D01*
X16555687Y-13569472D01*
X16347149Y-13371577D01*
X16113683Y-13203814D01*
X16091843Y-13192250D01*
X16068654Y-13179972D01*
X15859608Y-13069288D01*
X15589627Y-12970489D01*
X15308736Y-12909245D01*
X15277685Y-12906801D01*
X15085718Y-12891693D01*
X15085709Y-12891693D01*
X15083261Y-12891500D01*
X14927729Y-12891500D01*
X14925593Y-12891646D01*
X14925582Y-12891646D01*
X14717452Y-12905835D01*
X14717446Y-12905836D01*
X14713175Y-12906127D01*
X14708980Y-12906996D01*
X14708978Y-12906996D01*
X14572417Y-12935276D01*
X14431658Y-12964426D01*
X14160657Y-13060393D01*
X13905188Y-13192250D01*
X13901687Y-13194711D01*
X13901683Y-13194713D01*
X13891594Y-13201804D01*
X13669977Y-13357559D01*
X13459378Y-13553260D01*
X13277287Y-13775732D01*
X13127073Y-14020858D01*
X13011517Y-14284102D01*
X12932756Y-14560594D01*
X12892249Y-14845216D01*
X12892227Y-14849505D01*
X12892226Y-14849512D01*
X12890765Y-15128417D01*
X12890743Y-15132703D01*
X508000Y-15132703D01*
X508000Y-4132703D01*
X1890743Y-4132703D01*
X1891302Y-4136947D01*
X1891302Y-4136951D01*
X1901187Y-4212033D01*
X1928268Y-4417734D01*
X1929401Y-4421874D01*
X1929401Y-4421876D01*
X1944955Y-4478731D01*
X2004129Y-4695036D01*
X2116923Y-4959476D01*
X2264561Y-5206161D01*
X2444313Y-5430528D01*
X2652851Y-5628423D01*
X2886317Y-5796186D01*
X2890112Y-5798195D01*
X2890113Y-5798196D01*
X2911869Y-5809715D01*
X3140392Y-5930712D01*
X3410373Y-6029511D01*
X3691264Y-6090755D01*
X3719841Y-6093004D01*
X3914282Y-6108307D01*
X3914291Y-6108307D01*
X3916739Y-6108500D01*
X4072271Y-6108500D01*
X4074407Y-6108354D01*
X4074418Y-6108354D01*
X4282548Y-6094165D01*
X4282554Y-6094164D01*
X4286825Y-6093873D01*
X4291020Y-6093004D01*
X4291022Y-6093004D01*
X4427584Y-6064723D01*
X4568342Y-6035574D01*
X4839343Y-5939607D01*
X5094812Y-5807750D01*
X5098313Y-5805289D01*
X5098317Y-5805287D01*
X5212417Y-5725096D01*
X5330023Y-5642441D01*
X5540622Y-5446740D01*
X5722713Y-5224268D01*
X5872927Y-4979142D01*
X5988483Y-4715898D01*
X5990138Y-4710090D01*
X6050171Y-4499342D01*
X6067244Y-4439406D01*
X6104469Y-4177845D01*
X6107146Y-4159036D01*
X6107146Y-4159034D01*
X6107751Y-4154784D01*
X6107845Y-4136951D01*
X6109235Y-3871583D01*
X6109235Y-3871576D01*
X6109257Y-3867297D01*
X6108015Y-3857858D01*
X6087775Y-3704125D01*
X6071732Y-3582266D01*
X5995871Y-3304964D01*
X5973181Y-3251768D01*
X5884763Y-3044476D01*
X5884761Y-3044472D01*
X5883077Y-3040524D01*
X5786994Y-2879981D01*
X5737643Y-2797521D01*
X5737640Y-2797517D01*
X5735439Y-2793839D01*
X5555687Y-2569472D01*
X5542597Y-2557050D01*
X10134092Y-2557050D01*
X10135812Y-2565858D01*
X10135812Y-2565862D01*
X10136312Y-2568422D01*
X10138646Y-2592596D01*
X10138645Y-2595207D01*
X10138646Y-2595211D01*
X10138643Y-2604183D01*
X10151053Y-2646665D01*
X10153770Y-2657839D01*
X10162250Y-2701274D01*
X10166376Y-2709252D01*
X10166377Y-2709254D01*
X10167573Y-2711567D01*
X10176601Y-2734119D01*
X10179848Y-2745234D01*
X10184683Y-2752799D01*
X10184684Y-2752801D01*
X10203678Y-2782520D01*
X10209425Y-2792488D01*
X10211883Y-2797241D01*
X10211889Y-2797251D01*
X10214121Y-2801566D01*
X10216992Y-2805489D01*
X10225442Y-2817036D01*
X10229925Y-2823586D01*
X10250660Y-2856026D01*
X10258985Y-2869051D01*
X10265751Y-2874957D01*
X10271606Y-2881755D01*
X10271287Y-2882030D01*
X10279779Y-2891283D01*
X10539914Y-3246742D01*
X10570272Y-3288230D01*
X10571743Y-3290241D01*
X10571751Y-3290262D01*
X10571755Y-3290259D01*
X10576595Y-3296876D01*
X10600668Y-3363667D01*
X10584809Y-3432870D01*
X10576988Y-3445110D01*
X10571092Y-3453261D01*
X10571083Y-3453274D01*
X10545875Y-3488114D01*
X10545713Y-3488339D01*
X10545565Y-3488527D01*
X10545568Y-3488529D01*
X10523909Y-3518473D01*
X10516817Y-3528275D01*
X10515109Y-3527040D01*
X10515095Y-3527072D01*
X10516794Y-3528300D01*
X10508901Y-3539216D01*
X10500602Y-3550686D01*
X10498787Y-3549373D01*
X10498763Y-3549395D01*
X10500587Y-3550714D01*
X10494541Y-3559075D01*
X10488980Y-3566764D01*
X10488954Y-3566790D01*
X10478555Y-3581177D01*
X10471838Y-3590463D01*
X10469704Y-3588920D01*
X10469686Y-3588937D01*
X10471827Y-3590485D01*
X10465877Y-3598715D01*
X10462225Y-3603767D01*
X10462214Y-3603781D01*
X10462187Y-3603808D01*
X10451850Y-3618114D01*
X10444010Y-3628957D01*
X10442243Y-3627679D01*
X10442215Y-3627705D01*
X10443992Y-3628989D01*
X10439716Y-3634908D01*
X10436677Y-3639111D01*
X10435699Y-3638404D01*
X10435680Y-3638437D01*
X10436650Y-3639138D01*
X10436649Y-3639140D01*
X10426735Y-3652866D01*
X10417260Y-3665974D01*
X10417243Y-3666007D01*
X10414408Y-3669932D01*
X10412513Y-3672555D01*
X10412488Y-3672587D01*
X10412455Y-3672620D01*
X10398286Y-3692245D01*
X10391727Y-3701323D01*
X10390024Y-3700092D01*
X10390009Y-3700105D01*
X10391718Y-3701339D01*
X10391713Y-3701349D01*
X10389839Y-3703946D01*
X10389794Y-3704003D01*
X10389767Y-3704030D01*
X10377973Y-3720373D01*
X10368725Y-3733177D01*
X10367144Y-3732035D01*
X10367134Y-3732055D01*
X10368710Y-3733192D01*
X10368709Y-3733193D01*
X10355475Y-3751542D01*
X10355424Y-3751581D01*
X10355439Y-3751592D01*
X10349460Y-3759873D01*
X10347896Y-3758744D01*
X10347872Y-3758793D01*
X10349424Y-3759911D01*
X10335407Y-3779358D01*
X10332100Y-3783940D01*
X10331059Y-3783189D01*
X10331014Y-3783266D01*
X10332038Y-3784003D01*
X10324166Y-3794934D01*
X10324133Y-3794980D01*
X10324003Y-3795161D01*
X10316821Y-3805135D01*
X10316752Y-3805223D01*
X10316662Y-3805314D01*
X10305976Y-3820172D01*
X10304606Y-3822071D01*
X10302873Y-3820821D01*
X10302840Y-3820850D01*
X10304584Y-3822106D01*
X10303613Y-3823455D01*
X10303563Y-3823519D01*
X10303437Y-3823648D01*
X10294457Y-3836155D01*
X10286751Y-3844687D01*
X10287197Y-3845066D01*
X10281385Y-3851910D01*
X10274665Y-3857858D01*
X10266026Y-3871583D01*
X10246231Y-3903029D01*
X10242054Y-3909247D01*
X10239561Y-3912729D01*
X10239305Y-3913223D01*
X10239032Y-3913635D01*
X10235985Y-3917915D01*
X10233390Y-3921560D01*
X10232585Y-3923119D01*
X10231648Y-3924552D01*
X10228506Y-3929045D01*
X10228455Y-3929010D01*
X10224617Y-3934684D01*
X10224567Y-3934774D01*
X10219133Y-3941920D01*
X10215922Y-3950307D01*
X10213385Y-3954864D01*
X10209933Y-3960690D01*
X10196382Y-3982218D01*
X10193925Y-3990848D01*
X10193924Y-3990851D01*
X10192944Y-3994295D01*
X10184199Y-4016659D01*
X10178979Y-4026981D01*
X10177339Y-4035809D01*
X10177236Y-4036114D01*
X10176238Y-4038655D01*
X10176233Y-4038671D01*
X10176183Y-4038830D01*
X10176163Y-4038916D01*
X10175347Y-4041748D01*
X10171665Y-4049936D01*
X10168182Y-4074994D01*
X10166065Y-4074700D01*
X10166326Y-4082395D01*
X10165862Y-4088093D01*
X10165115Y-4091384D01*
X10163435Y-4097956D01*
X10156150Y-4123550D01*
X10156214Y-4132521D01*
X10156214Y-4132524D01*
X10156245Y-4136817D01*
X10154128Y-4160733D01*
X10153777Y-4162620D01*
X10153777Y-4162632D01*
X10152137Y-4171455D01*
X10153014Y-4180120D01*
X10152659Y-4184052D01*
X10152670Y-4186597D01*
X10151434Y-4195483D01*
X10152743Y-4204363D01*
X10155102Y-4220365D01*
X10152878Y-4220693D01*
X10154975Y-4227071D01*
X10156487Y-4234405D01*
X10156797Y-4239472D01*
X10157029Y-4246253D01*
X10157203Y-4270492D01*
X10159783Y-4279088D01*
X10159784Y-4279091D01*
X10161199Y-4283804D01*
X10165880Y-4307352D01*
X10166018Y-4308716D01*
X10166020Y-4308722D01*
X10166923Y-4317656D01*
X10170082Y-4325443D01*
X10171001Y-4330105D01*
X10171555Y-4331973D01*
X10172865Y-4340858D01*
X10176614Y-4349015D01*
X10176615Y-4349017D01*
X10182204Y-4361176D01*
X10183050Y-4363246D01*
X10184347Y-4369535D01*
X10188557Y-4377471D01*
X10191596Y-4385912D01*
X10191173Y-4386064D01*
X10193873Y-4392644D01*
X10196872Y-4402632D01*
X10196874Y-4402635D01*
X10199455Y-4411234D01*
X10204343Y-4418758D01*
X10204344Y-4418760D01*
X10207306Y-4423318D01*
X10218410Y-4444610D01*
X10222149Y-4453830D01*
X10227212Y-4460223D01*
X10229663Y-4464942D01*
X10230487Y-4466219D01*
X10234236Y-4474375D01*
X10245352Y-4487168D01*
X10249571Y-4492465D01*
X10253220Y-4499342D01*
X10259481Y-4505769D01*
X10264772Y-4513025D01*
X10264585Y-4513161D01*
X10270408Y-4520448D01*
X10279510Y-4534459D01*
X10290697Y-4544078D01*
X10307322Y-4561389D01*
X10313374Y-4569031D01*
X10319901Y-4573656D01*
X10323763Y-4577691D01*
X10324730Y-4578527D01*
X10330615Y-4585301D01*
X10339148Y-4590783D01*
X10347914Y-4596956D01*
X10349492Y-4598171D01*
X10355756Y-4604601D01*
X10363574Y-4609015D01*
X10369808Y-4613816D01*
X10380686Y-4621453D01*
X10390932Y-4630263D01*
X10399109Y-4633971D01*
X10399110Y-4633971D01*
X10404499Y-4636415D01*
X10425315Y-4648364D01*
X10425941Y-4648807D01*
X10433266Y-4653998D01*
X10440780Y-4656589D01*
X10445578Y-4659353D01*
X10446700Y-4659866D01*
X10454253Y-4664717D01*
X10462863Y-4667253D01*
X10467468Y-4669358D01*
X10467538Y-4669177D01*
X10475896Y-4672436D01*
X10483715Y-4676851D01*
X10502985Y-4681354D01*
X10504896Y-4681907D01*
X10509219Y-4684137D01*
X10518032Y-4685849D01*
X10518035Y-4685850D01*
X10526769Y-4687547D01*
X10543811Y-4692116D01*
X10563700Y-4698974D01*
X10563705Y-4698975D01*
X10572185Y-4701899D01*
X10580175Y-4702280D01*
X10585211Y-4703502D01*
X10586600Y-4703704D01*
X10595211Y-4706240D01*
X10604186Y-4706258D01*
X10604187Y-4706258D01*
X10619303Y-4706288D01*
X10625396Y-4706300D01*
X10641350Y-4707346D01*
X10669961Y-4711057D01*
X10669964Y-4711057D01*
X10678862Y-4712211D01*
X10691793Y-4710183D01*
X10700216Y-4709730D01*
X10701088Y-4709496D01*
X10701070Y-4709307D01*
X10701934Y-4709225D01*
X10702136Y-4709215D01*
X10702194Y-4709200D01*
X10703392Y-4709086D01*
X10706322Y-4708897D01*
X10708744Y-4708988D01*
X10712602Y-4708582D01*
X10712881Y-4708595D01*
X10713293Y-4708660D01*
X10713389Y-4708660D01*
X10713462Y-4708679D01*
X10713839Y-4708661D01*
X10714130Y-4708661D01*
X10714130Y-4708851D01*
X10714545Y-4708957D01*
X10717331Y-4708807D01*
X10718252Y-4708851D01*
X10719004Y-4708887D01*
X10718946Y-4710090D01*
X10719754Y-4710298D01*
X10719788Y-4708686D01*
X10733679Y-4708979D01*
X10735624Y-4708742D01*
X10737610Y-4708704D01*
X10755905Y-4708919D01*
X10755909Y-4708919D01*
X10759407Y-4708960D01*
X10760711Y-4708789D01*
X10761920Y-4708757D01*
X10787788Y-4708900D01*
X10788735Y-4708770D01*
X10789603Y-4708742D01*
X10817897Y-4708772D01*
X10817902Y-4708772D01*
X10819018Y-4708773D01*
X10819401Y-4708719D01*
X10819734Y-4708707D01*
X10864807Y-4708673D01*
X10876009Y-4708664D01*
X10884030Y-4708914D01*
X10937660Y-4712295D01*
X10947286Y-4710127D01*
X10984841Y-4701669D01*
X10994569Y-4699876D01*
X11033562Y-4694262D01*
X11033563Y-4694262D01*
X11042444Y-4692983D01*
X11050609Y-4689263D01*
X11054491Y-4688125D01*
X11068498Y-4683413D01*
X11072264Y-4681979D01*
X11081016Y-4680008D01*
X11088864Y-4675659D01*
X11088867Y-4675658D01*
X11123327Y-4656562D01*
X11132160Y-4652111D01*
X11166612Y-4636415D01*
X11176167Y-4632062D01*
X11182965Y-4626196D01*
X11186374Y-4624012D01*
X11198479Y-4615570D01*
X11201694Y-4613135D01*
X11209547Y-4608783D01*
X11243581Y-4574399D01*
X11250790Y-4567667D01*
X11287417Y-4536058D01*
X11291402Y-4529899D01*
X11350529Y-4492114D01*
X11421525Y-4492296D01*
X11468354Y-4523465D01*
X11471103Y-4520475D01*
X11479275Y-4527989D01*
X11484018Y-4532810D01*
X11484222Y-4533075D01*
X11485607Y-4534425D01*
X11489137Y-4537867D01*
X11497160Y-4546456D01*
X11499595Y-4549319D01*
X11499605Y-4549329D01*
X11502509Y-4552744D01*
X11505866Y-4555711D01*
X11505871Y-4555716D01*
X11514289Y-4563156D01*
X11520173Y-4568702D01*
X11557489Y-4606221D01*
X11561525Y-4608445D01*
X11562794Y-4609682D01*
X11567533Y-4612199D01*
X11571533Y-4615214D01*
X11578013Y-4619474D01*
X11584735Y-4625415D01*
X11592852Y-4629229D01*
X11592856Y-4629232D01*
X11632635Y-4647924D01*
X11639829Y-4651591D01*
X11686191Y-4677137D01*
X11692399Y-4678519D01*
X11692571Y-4678611D01*
X11695051Y-4679123D01*
X11702224Y-4681834D01*
X11708335Y-4683705D01*
X11711015Y-4685029D01*
X11711945Y-4685193D01*
X11717729Y-4687911D01*
X11726597Y-4689295D01*
X11728218Y-4689548D01*
X11770008Y-4696070D01*
X11777964Y-4697575D01*
X11791653Y-4700624D01*
X11791665Y-4700626D01*
X11796404Y-4701681D01*
X11801254Y-4701995D01*
X11806080Y-4702684D01*
X11806063Y-4702801D01*
X11816390Y-4704195D01*
X11827683Y-4706529D01*
X11827686Y-4706529D01*
X11836478Y-4708346D01*
X11843399Y-4707786D01*
X11848933Y-4708387D01*
X11854045Y-4709185D01*
X11854050Y-4709185D01*
X11862918Y-4710569D01*
X11887642Y-4707345D01*
X11897613Y-4706811D01*
X11897595Y-4706453D01*
X11902072Y-4706224D01*
X11906543Y-4706314D01*
X11908743Y-4706044D01*
X11911056Y-4705996D01*
X11920564Y-4706085D01*
X11920565Y-4706085D01*
X11923552Y-4706113D01*
X11924640Y-4705967D01*
X11925646Y-4705938D01*
X11930277Y-4705958D01*
X11930282Y-4705959D01*
X11930284Y-4705959D01*
X11930272Y-4708679D01*
X11930344Y-4708668D01*
X11930355Y-4705959D01*
X11941281Y-4706005D01*
X11941277Y-4706887D01*
X11942032Y-4706764D01*
X11942027Y-4705901D01*
X11942051Y-4705898D01*
X11943666Y-4705890D01*
X11944226Y-4705888D01*
X11947368Y-4705891D01*
X11947379Y-4705893D01*
X11947379Y-4705899D01*
X11947872Y-4705895D01*
X11947918Y-4705895D01*
X11948773Y-4705892D01*
X11954443Y-4705898D01*
X11959532Y-4705903D01*
X11959543Y-4705903D01*
X11961024Y-4705904D01*
X11961543Y-4705830D01*
X11961976Y-4705815D01*
X11978941Y-4705789D01*
X11981505Y-4705785D01*
X11981507Y-4705785D01*
X11982777Y-4705783D01*
X11983214Y-4705720D01*
X11983605Y-4705705D01*
X12005242Y-4705628D01*
X12005253Y-4705628D01*
X12006246Y-4705624D01*
X12006586Y-4705574D01*
X12006886Y-4705562D01*
X12012332Y-4705534D01*
X12023846Y-4705474D01*
X12024001Y-4705451D01*
X12024115Y-4705446D01*
X12026706Y-4705431D01*
X12038204Y-4705890D01*
X12043687Y-4706360D01*
X12052433Y-4708388D01*
X12061392Y-4707880D01*
X12061395Y-4707880D01*
X12095671Y-4705935D01*
X12110394Y-4705100D01*
X12116777Y-4704900D01*
X12136588Y-4704784D01*
X12141874Y-4703995D01*
X12143532Y-4703748D01*
X12154986Y-4702571D01*
X12173456Y-4701523D01*
X12199143Y-4700066D01*
X12210083Y-4696182D01*
X12233638Y-4690302D01*
X12245124Y-4688588D01*
X12253970Y-4684503D01*
X12261686Y-4680940D01*
X12331916Y-4670539D01*
X12368059Y-4681275D01*
X12381602Y-4687633D01*
X12381605Y-4687634D01*
X12389731Y-4691449D01*
X12405910Y-4693968D01*
X12419287Y-4696051D01*
X12436003Y-4699834D01*
X12456049Y-4705829D01*
X12456052Y-4705829D01*
X12464654Y-4708402D01*
X12473629Y-4708457D01*
X12473630Y-4708457D01*
X12483995Y-4708520D01*
X12499390Y-4708614D01*
X12500194Y-4708648D01*
X12501299Y-4708820D01*
X12532610Y-4708820D01*
X12533380Y-4708822D01*
X12607632Y-4709276D01*
X12607635Y-4709276D01*
X12611598Y-4709300D01*
X12612951Y-4708913D01*
X12614317Y-4708820D01*
X12753590Y-4708820D01*
X12754360Y-4708822D01*
X12832578Y-4709300D01*
X12861340Y-4701080D01*
X12878093Y-4697504D01*
X12884541Y-4696580D01*
X12907703Y-4693263D01*
X12915871Y-4689549D01*
X12915875Y-4689548D01*
X12931363Y-4682506D01*
X12948888Y-4676058D01*
X12973867Y-4668919D01*
X12999162Y-4652959D01*
X13014247Y-4644820D01*
X13033301Y-4636157D01*
X13033303Y-4636156D01*
X13041471Y-4632442D01*
X13048271Y-4626583D01*
X13048274Y-4626581D01*
X13061160Y-4615478D01*
X13076161Y-4604377D01*
X13098144Y-4590506D01*
X13112310Y-4574466D01*
X13117945Y-4568086D01*
X13130133Y-4556046D01*
X13152793Y-4536521D01*
X13166929Y-4514713D01*
X13178209Y-4499851D01*
X13180888Y-4496818D01*
X13240970Y-4458999D01*
X13311964Y-4459666D01*
X13371327Y-4498609D01*
X13381888Y-4512981D01*
X13393714Y-4531724D01*
X13400443Y-4537667D01*
X13416134Y-4551525D01*
X13428174Y-4563713D01*
X13447699Y-4586373D01*
X13469507Y-4600509D01*
X13484375Y-4611794D01*
X13503855Y-4628998D01*
X13530934Y-4641712D01*
X13545902Y-4650026D01*
X13571008Y-4666298D01*
X13579608Y-4668870D01*
X13579612Y-4668872D01*
X13595904Y-4673745D01*
X13613347Y-4680405D01*
X13621296Y-4684137D01*
X13636871Y-4691449D01*
X13653050Y-4693968D01*
X13666427Y-4696051D01*
X13683143Y-4699834D01*
X13703189Y-4705829D01*
X13703192Y-4705829D01*
X13711794Y-4708402D01*
X13720769Y-4708457D01*
X13720770Y-4708457D01*
X13731135Y-4708520D01*
X13746530Y-4708614D01*
X13747334Y-4708648D01*
X13748439Y-4708820D01*
X13779750Y-4708820D01*
X13780520Y-4708822D01*
X13854772Y-4709276D01*
X13854775Y-4709276D01*
X13858738Y-4709300D01*
X13860091Y-4708913D01*
X13861457Y-4708820D01*
X14000730Y-4708820D01*
X14001500Y-4708822D01*
X14079718Y-4709300D01*
X14108480Y-4701080D01*
X14125233Y-4697504D01*
X14131681Y-4696580D01*
X14154843Y-4693263D01*
X14163011Y-4689549D01*
X14163015Y-4689548D01*
X14178503Y-4682506D01*
X14196028Y-4676058D01*
X14221007Y-4668919D01*
X14246302Y-4652959D01*
X14261387Y-4644820D01*
X14280441Y-4636157D01*
X14280443Y-4636156D01*
X14288611Y-4632442D01*
X14295411Y-4626583D01*
X14295414Y-4626581D01*
X14308300Y-4615478D01*
X14323301Y-4604377D01*
X14345284Y-4590506D01*
X14359450Y-4574466D01*
X14365085Y-4568086D01*
X14377273Y-4556046D01*
X14399933Y-4536521D01*
X14414069Y-4514713D01*
X14425355Y-4499844D01*
X14425799Y-4499342D01*
X14442558Y-4480365D01*
X14455272Y-4453286D01*
X14463586Y-4438318D01*
X14479858Y-4413212D01*
X14480558Y-4410871D01*
X14525129Y-4359897D01*
X14593338Y-4340200D01*
X14661369Y-4360507D01*
X14682635Y-4377876D01*
X14688719Y-4384065D01*
X14692278Y-4386781D01*
X14692280Y-4386782D01*
X14702123Y-4394292D01*
X14708255Y-4399282D01*
X14720241Y-4409678D01*
X14727161Y-4416152D01*
X14738379Y-4427467D01*
X14750155Y-4436147D01*
X14757951Y-4442385D01*
X14766637Y-4449919D01*
X14780762Y-4459018D01*
X14787261Y-4463500D01*
X14799908Y-4472823D01*
X14807321Y-4478731D01*
X14808636Y-4479862D01*
X14819376Y-4489103D01*
X14831817Y-4496834D01*
X14840058Y-4502420D01*
X14845733Y-4506603D01*
X14845738Y-4506606D01*
X14849341Y-4509262D01*
X14864119Y-4517201D01*
X14870971Y-4521166D01*
X14884332Y-4529469D01*
X14892168Y-4534756D01*
X14905065Y-4544181D01*
X14918025Y-4550873D01*
X14926706Y-4555801D01*
X14932641Y-4559489D01*
X14936447Y-4561854D01*
X14940548Y-4563655D01*
X14940550Y-4563656D01*
X14951852Y-4568619D01*
X14958989Y-4572024D01*
X14964282Y-4574757D01*
X14973160Y-4579341D01*
X14981352Y-4583967D01*
X14990906Y-4589842D01*
X14990912Y-4589845D01*
X14995065Y-4592399D01*
X15008415Y-4597994D01*
X15017490Y-4602230D01*
X15027586Y-4607443D01*
X15043606Y-4613009D01*
X15050935Y-4615815D01*
X15066036Y-4622144D01*
X15074503Y-4626068D01*
X15084684Y-4631253D01*
X15084695Y-4631258D01*
X15089024Y-4633462D01*
X15102616Y-4637914D01*
X15112066Y-4641436D01*
X15122360Y-4645750D01*
X15126694Y-4646878D01*
X15126700Y-4646880D01*
X15138943Y-4650067D01*
X15146425Y-4652263D01*
X15161263Y-4657123D01*
X15170453Y-4660535D01*
X15179880Y-4664458D01*
X15179883Y-4664459D01*
X15184374Y-4666328D01*
X15195449Y-4669037D01*
X15199394Y-4670002D01*
X15208674Y-4672653D01*
X15220399Y-4676493D01*
X15235157Y-4679091D01*
X15251361Y-4683423D01*
X15251379Y-4683357D01*
X15256072Y-4684661D01*
X15260643Y-4686320D01*
X15265407Y-4687255D01*
X15265416Y-4687257D01*
X15282023Y-4690514D01*
X15288211Y-4691890D01*
X15290372Y-4692428D01*
X15295000Y-4693968D01*
X15299808Y-4694777D01*
X15301351Y-4695161D01*
X15307097Y-4696346D01*
X15308146Y-4696603D01*
X15308155Y-4696604D01*
X15312506Y-4697669D01*
X15316972Y-4698107D01*
X15321382Y-4698858D01*
X15321358Y-4698996D01*
X15327031Y-4699872D01*
X15327137Y-4699894D01*
X15331802Y-4701266D01*
X15336622Y-4701904D01*
X15336624Y-4701904D01*
X15343361Y-4702795D01*
X15351083Y-4704061D01*
X15356937Y-4705210D01*
X15359650Y-4705350D01*
X15360506Y-4705476D01*
X15364748Y-4706208D01*
X15369474Y-4707405D01*
X15375539Y-4707975D01*
X15377023Y-4708114D01*
X15384696Y-4709118D01*
X15385447Y-4709190D01*
X15389874Y-4709935D01*
X15394357Y-4710045D01*
X15394622Y-4710070D01*
X15399798Y-4710675D01*
X15401025Y-4710844D01*
X15405778Y-4711878D01*
X15412254Y-4712265D01*
X15412655Y-4712289D01*
X15421661Y-4713153D01*
X15426455Y-4713787D01*
X15430942Y-4713739D01*
X15434182Y-4713935D01*
X15436248Y-4714113D01*
X15439629Y-4714758D01*
X15444496Y-4714924D01*
X15445367Y-4714954D01*
X15448698Y-4715067D01*
X15456167Y-4715545D01*
X15464998Y-4716374D01*
X15469330Y-4716163D01*
X15470315Y-4716221D01*
X15471415Y-4716413D01*
X15474528Y-4716470D01*
X15474532Y-4716470D01*
X15480465Y-4716578D01*
X15483491Y-4716633D01*
X15488711Y-4716837D01*
X15498725Y-4717436D01*
X15498743Y-4717436D01*
X15503213Y-4717703D01*
X15507685Y-4717333D01*
X15507931Y-4717330D01*
X15510689Y-4717329D01*
X15515502Y-4717381D01*
X15516076Y-4717394D01*
X15516107Y-4717388D01*
X15516890Y-4717396D01*
X15516890Y-4717412D01*
X15518451Y-4717448D01*
X15519157Y-4717472D01*
X15519199Y-4717479D01*
X15519150Y-4718895D01*
X15520010Y-4718750D01*
X15520017Y-4717614D01*
X15520765Y-4717618D01*
X15522257Y-4717627D01*
X15525764Y-4717697D01*
X15540038Y-4718184D01*
X15540041Y-4718184D01*
X15540027Y-4718593D01*
X15542241Y-4719154D01*
X15542241Y-4717945D01*
X15542295Y-4717945D01*
X15555318Y-4717950D01*
X15556869Y-4718005D01*
X15558462Y-4718241D01*
X15563917Y-4718201D01*
X15566381Y-4718184D01*
X15569577Y-4718202D01*
X15572275Y-4718251D01*
X15572274Y-4718310D01*
X15575362Y-4718315D01*
X15577604Y-4718615D01*
X15582461Y-4718512D01*
X15582469Y-4718512D01*
X15588840Y-4718376D01*
X15596683Y-4718658D01*
X15596683Y-4718657D01*
X15601547Y-4718735D01*
X15606395Y-4719188D01*
X15620690Y-4718312D01*
X15632020Y-4718128D01*
X15633196Y-4718162D01*
X15638266Y-4718308D01*
X15638268Y-4718308D01*
X15643135Y-4718448D01*
X15648297Y-4717796D01*
X15653700Y-4717398D01*
X15653692Y-4717313D01*
X15658166Y-4716898D01*
X15662646Y-4716803D01*
X15667070Y-4716073D01*
X15668470Y-4715943D01*
X15679339Y-4714717D01*
X15686620Y-4714271D01*
X15689034Y-4713773D01*
X15689690Y-4713773D01*
X15696694Y-4712682D01*
X15715946Y-4709684D01*
X15721172Y-4708982D01*
X15740011Y-4706851D01*
X15740027Y-4706848D01*
X15744474Y-4706345D01*
X15748816Y-4705214D01*
X15748821Y-4705213D01*
X15748915Y-4705189D01*
X15760443Y-4702756D01*
X15760566Y-4702736D01*
X15770509Y-4701523D01*
X15772400Y-4701368D01*
X15782295Y-4700559D01*
X15782301Y-4700558D01*
X15787151Y-4700161D01*
X15791887Y-4699021D01*
X15791890Y-4699021D01*
X15800635Y-4696917D01*
X15810716Y-4694922D01*
X15816919Y-4693956D01*
X15816922Y-4693955D01*
X15821347Y-4693266D01*
X15832922Y-4689726D01*
X15838137Y-4688132D01*
X15845504Y-4686121D01*
X15857540Y-4683225D01*
X15867049Y-4681321D01*
X15882200Y-4678890D01*
X15886831Y-4677388D01*
X15886833Y-4677388D01*
X15896674Y-4674197D01*
X15906062Y-4671550D01*
X15913447Y-4669773D01*
X15917811Y-4668723D01*
X15921974Y-4667068D01*
X15921981Y-4667066D01*
X15932832Y-4662752D01*
X15940498Y-4659989D01*
X15951215Y-4656514D01*
X15960806Y-4653820D01*
X15974988Y-4650437D01*
X15979489Y-4648594D01*
X15979496Y-4648592D01*
X15989757Y-4644391D01*
X15998630Y-4641141D01*
X16004192Y-4639337D01*
X16010858Y-4637176D01*
X16014880Y-4635204D01*
X16014886Y-4635202D01*
X16024690Y-4630396D01*
X16032405Y-4626930D01*
X16042417Y-4622831D01*
X16051890Y-4619388D01*
X16060946Y-4616501D01*
X16060947Y-4616501D01*
X16065586Y-4615022D01*
X16080070Y-4607792D01*
X16088592Y-4603927D01*
X16096509Y-4600685D01*
X16100664Y-4598984D01*
X16113771Y-4591289D01*
X16121257Y-4587230D01*
X16131285Y-4582224D01*
X16140356Y-4578135D01*
X16149439Y-4574466D01*
X16149448Y-4574461D01*
X16153959Y-4572639D01*
X16158141Y-4570141D01*
X16158149Y-4570137D01*
X16167561Y-4564515D01*
X16175895Y-4559954D01*
X16183274Y-4556270D01*
X16183276Y-4556269D01*
X16187292Y-4554264D01*
X16197037Y-4547521D01*
X16264436Y-4525208D01*
X16333199Y-4542876D01*
X16352157Y-4556710D01*
X16352721Y-4557208D01*
X16354934Y-4559163D01*
X16366954Y-4571333D01*
X16386479Y-4593993D01*
X16408287Y-4608129D01*
X16423155Y-4619414D01*
X16442635Y-4636618D01*
X16469714Y-4649332D01*
X16484682Y-4657646D01*
X16509788Y-4673918D01*
X16518388Y-4676490D01*
X16518392Y-4676492D01*
X16534684Y-4681365D01*
X16552127Y-4688025D01*
X16564760Y-4693956D01*
X16575651Y-4699069D01*
X16592350Y-4701669D01*
X16605207Y-4703671D01*
X16621923Y-4707454D01*
X16641969Y-4713449D01*
X16641972Y-4713449D01*
X16650574Y-4716022D01*
X16659549Y-4716077D01*
X16659550Y-4716077D01*
X16669915Y-4716140D01*
X16685310Y-4716234D01*
X16686114Y-4716268D01*
X16687219Y-4716440D01*
X16718530Y-4716440D01*
X16719300Y-4716442D01*
X16793552Y-4716896D01*
X16793555Y-4716896D01*
X16797518Y-4716920D01*
X16798871Y-4716533D01*
X16800237Y-4716440D01*
X17810730Y-4716440D01*
X17811500Y-4716442D01*
X17889718Y-4716920D01*
X17918480Y-4708700D01*
X17935233Y-4705124D01*
X17941718Y-4704195D01*
X17964843Y-4700883D01*
X17973011Y-4697169D01*
X17973015Y-4697168D01*
X17988503Y-4690126D01*
X18006033Y-4683677D01*
X18011065Y-4682239D01*
X18082060Y-4682753D01*
X18099233Y-4689333D01*
X18111138Y-4694922D01*
X18119971Y-4699069D01*
X18136670Y-4701669D01*
X18149527Y-4703671D01*
X18166243Y-4707454D01*
X18186289Y-4713449D01*
X18186292Y-4713449D01*
X18194894Y-4716022D01*
X18203869Y-4716077D01*
X18203870Y-4716077D01*
X18214235Y-4716140D01*
X18229630Y-4716234D01*
X18230434Y-4716268D01*
X18231539Y-4716440D01*
X18262850Y-4716440D01*
X18263620Y-4716442D01*
X18337872Y-4716896D01*
X18337875Y-4716896D01*
X18341838Y-4716920D01*
X18343191Y-4716533D01*
X18344557Y-4716440D01*
X19410930Y-4716440D01*
X19411700Y-4716442D01*
X19489918Y-4716920D01*
X19518680Y-4708700D01*
X19535433Y-4705124D01*
X19541918Y-4704195D01*
X19565043Y-4700883D01*
X19573211Y-4697169D01*
X19573215Y-4697168D01*
X19588703Y-4690126D01*
X19606228Y-4683678D01*
X19631207Y-4676539D01*
X19656502Y-4660579D01*
X19671587Y-4652440D01*
X19690641Y-4643777D01*
X19690643Y-4643776D01*
X19698811Y-4640062D01*
X19705611Y-4634203D01*
X19705614Y-4634201D01*
X19718500Y-4623098D01*
X19733501Y-4611997D01*
X19755484Y-4598126D01*
X19771868Y-4579575D01*
X19775285Y-4575706D01*
X19787473Y-4563666D01*
X19810133Y-4544141D01*
X19824269Y-4522333D01*
X19835555Y-4507464D01*
X19836089Y-4506860D01*
X19852758Y-4487985D01*
X19865472Y-4460906D01*
X19873786Y-4445938D01*
X19890058Y-4420832D01*
X19892630Y-4412232D01*
X19892632Y-4412228D01*
X19897505Y-4395936D01*
X19904165Y-4378493D01*
X19911394Y-4363095D01*
X19915209Y-4354969D01*
X19919811Y-4325413D01*
X19923594Y-4308697D01*
X19929589Y-4288651D01*
X19929589Y-4288648D01*
X19932162Y-4280046D01*
X19932221Y-4270492D01*
X19932374Y-4245316D01*
X19932408Y-4244506D01*
X19932580Y-4243401D01*
X19932580Y-4212033D01*
X19932582Y-4211262D01*
X19933036Y-4137068D01*
X19933036Y-4137065D01*
X19933060Y-4133102D01*
X19932946Y-4132703D01*
X23890743Y-4132703D01*
X23891302Y-4136947D01*
X23891302Y-4136951D01*
X23901187Y-4212033D01*
X23928268Y-4417734D01*
X23929401Y-4421874D01*
X23929401Y-4421876D01*
X23944955Y-4478731D01*
X24004129Y-4695036D01*
X24116923Y-4959476D01*
X24264561Y-5206161D01*
X24444313Y-5430528D01*
X24652851Y-5628423D01*
X24886317Y-5796186D01*
X24890112Y-5798195D01*
X24890113Y-5798196D01*
X24911869Y-5809715D01*
X25140392Y-5930712D01*
X25410373Y-6029511D01*
X25691264Y-6090755D01*
X25719841Y-6093004D01*
X25914282Y-6108307D01*
X25914291Y-6108307D01*
X25916739Y-6108500D01*
X26072271Y-6108500D01*
X26074407Y-6108354D01*
X26074418Y-6108354D01*
X26282548Y-6094165D01*
X26282554Y-6094164D01*
X26286825Y-6093873D01*
X26291020Y-6093004D01*
X26291022Y-6093004D01*
X26427584Y-6064723D01*
X26568342Y-6035574D01*
X26839343Y-5939607D01*
X27094812Y-5807750D01*
X27098313Y-5805289D01*
X27098317Y-5805287D01*
X27212417Y-5725096D01*
X27330023Y-5642441D01*
X27540622Y-5446740D01*
X27722713Y-5224268D01*
X27872927Y-4979142D01*
X27988483Y-4715898D01*
X27990138Y-4710090D01*
X28050171Y-4499342D01*
X28067244Y-4439406D01*
X28104469Y-4177845D01*
X28107146Y-4159036D01*
X28107146Y-4159034D01*
X28107751Y-4154784D01*
X28107845Y-4136951D01*
X28109235Y-3871583D01*
X28109235Y-3871576D01*
X28109257Y-3867297D01*
X28108015Y-3857858D01*
X28087775Y-3704125D01*
X28071732Y-3582266D01*
X27995871Y-3304964D01*
X27973181Y-3251768D01*
X27884763Y-3044476D01*
X27884761Y-3044472D01*
X27883077Y-3040524D01*
X27786994Y-2879981D01*
X27737643Y-2797521D01*
X27737640Y-2797517D01*
X27735439Y-2793839D01*
X27555687Y-2569472D01*
X27406549Y-2427945D01*
X27350258Y-2374527D01*
X27350255Y-2374525D01*
X27347149Y-2371577D01*
X27130642Y-2216000D01*
X27117172Y-2206321D01*
X27117171Y-2206320D01*
X27113683Y-2203814D01*
X27108892Y-2201277D01*
X27049610Y-2169889D01*
X26859608Y-2069288D01*
X26717440Y-2017262D01*
X26593658Y-1971964D01*
X26593656Y-1971963D01*
X26589627Y-1970489D01*
X26308736Y-1909245D01*
X26277685Y-1906801D01*
X26085718Y-1891693D01*
X26085709Y-1891693D01*
X26083261Y-1891500D01*
X25927729Y-1891500D01*
X25925593Y-1891646D01*
X25925582Y-1891646D01*
X25717452Y-1905835D01*
X25717446Y-1905836D01*
X25713175Y-1906127D01*
X25708980Y-1906996D01*
X25708978Y-1906996D01*
X25572416Y-1935277D01*
X25431658Y-1964426D01*
X25160657Y-2060393D01*
X25107768Y-2087691D01*
X24912330Y-2188564D01*
X24905188Y-2192250D01*
X24901687Y-2194711D01*
X24901683Y-2194713D01*
X24822139Y-2250618D01*
X24669977Y-2357559D01*
X24600864Y-2421783D01*
X24464917Y-2548113D01*
X24459378Y-2553260D01*
X24277287Y-2775732D01*
X24127073Y-3020858D01*
X24125347Y-3024791D01*
X24125346Y-3024792D01*
X24026977Y-3248883D01*
X24011517Y-3284102D01*
X24010342Y-3288229D01*
X24010341Y-3288230D01*
X23983571Y-3382207D01*
X23932756Y-3560594D01*
X23902485Y-3773296D01*
X23893124Y-3839071D01*
X23892249Y-3845216D01*
X23892227Y-3849505D01*
X23892226Y-3849512D01*
X23890765Y-4128417D01*
X23890743Y-4132703D01*
X19932946Y-4132703D01*
X19932673Y-4131749D01*
X19932580Y-4130384D01*
X19932580Y-3988570D01*
X19932582Y-3987800D01*
X19932616Y-3982218D01*
X19933060Y-3909582D01*
X19931612Y-3904514D01*
X19931761Y-3880068D01*
X19932162Y-3878726D01*
X19932374Y-3843990D01*
X19932408Y-3843186D01*
X19932580Y-3842081D01*
X19932580Y-3810709D01*
X19932582Y-3809938D01*
X19933036Y-3735748D01*
X19933036Y-3735745D01*
X19933060Y-3731782D01*
X19932673Y-3730429D01*
X19932580Y-3729064D01*
X19932580Y-2535690D01*
X19932582Y-2534920D01*
X19933005Y-2465677D01*
X19933060Y-2456702D01*
X19924840Y-2427940D01*
X19921264Y-2411187D01*
X19919809Y-2401027D01*
X19917023Y-2381577D01*
X19913309Y-2373409D01*
X19913308Y-2373405D01*
X19906266Y-2357917D01*
X19899818Y-2340392D01*
X19892679Y-2315413D01*
X19876719Y-2290118D01*
X19868580Y-2275033D01*
X19867518Y-2272696D01*
X19856202Y-2247809D01*
X19850343Y-2241009D01*
X19850341Y-2241006D01*
X19839238Y-2228120D01*
X19828137Y-2213119D01*
X19814266Y-2191136D01*
X19807537Y-2185193D01*
X19791846Y-2171335D01*
X19779806Y-2159147D01*
X19760281Y-2136487D01*
X19738473Y-2122351D01*
X19723604Y-2111065D01*
X19723291Y-2110788D01*
X19704125Y-2093862D01*
X19694867Y-2089515D01*
X19691384Y-2087880D01*
X19677046Y-2081148D01*
X19662078Y-2072834D01*
X19636972Y-2056562D01*
X19628372Y-2053990D01*
X19628368Y-2053988D01*
X19612076Y-2049115D01*
X19594633Y-2042455D01*
X19579235Y-2035226D01*
X19571109Y-2031411D01*
X19545926Y-2027490D01*
X19541553Y-2026809D01*
X19524837Y-2023026D01*
X19504791Y-2017031D01*
X19504788Y-2017031D01*
X19496186Y-2014458D01*
X19487211Y-2014403D01*
X19487210Y-2014403D01*
X19476845Y-2014340D01*
X19461450Y-2014246D01*
X19460646Y-2014212D01*
X19459541Y-2014040D01*
X19428230Y-2014040D01*
X19427460Y-2014038D01*
X19353208Y-2013584D01*
X19353205Y-2013584D01*
X19349242Y-2013560D01*
X19347889Y-2013947D01*
X19346523Y-2014040D01*
X19207250Y-2014040D01*
X19206480Y-2014038D01*
X19205736Y-2014033D01*
X19128262Y-2013560D01*
X19099500Y-2021780D01*
X19082747Y-2025356D01*
X19078280Y-2025996D01*
X19053137Y-2029597D01*
X19044969Y-2033311D01*
X19044965Y-2033312D01*
X19029477Y-2040354D01*
X19011953Y-2046802D01*
X18986973Y-2053941D01*
X18979383Y-2058730D01*
X18961678Y-2069901D01*
X18946593Y-2078040D01*
X18927539Y-2086703D01*
X18927537Y-2086704D01*
X18919369Y-2090418D01*
X18912569Y-2096277D01*
X18912566Y-2096279D01*
X18899680Y-2107382D01*
X18884679Y-2118483D01*
X18862696Y-2132354D01*
X18856753Y-2139083D01*
X18842895Y-2154774D01*
X18830707Y-2166814D01*
X18808047Y-2186339D01*
X18793911Y-2208147D01*
X18782626Y-2223015D01*
X18765422Y-2242495D01*
X18752708Y-2269574D01*
X18744394Y-2284542D01*
X18728122Y-2309648D01*
X18725550Y-2318248D01*
X18725548Y-2318252D01*
X18720675Y-2334544D01*
X18714015Y-2351987D01*
X18712496Y-2355223D01*
X18702971Y-2375511D01*
X18701590Y-2384382D01*
X18698369Y-2405067D01*
X18694586Y-2421783D01*
X18692744Y-2427945D01*
X18686018Y-2450434D01*
X18685963Y-2459409D01*
X18685963Y-2459410D01*
X18685806Y-2485164D01*
X18685772Y-2485974D01*
X18685600Y-2487079D01*
X18685600Y-2518390D01*
X18685598Y-2519160D01*
X18685291Y-2569472D01*
X18685120Y-2597378D01*
X18685507Y-2598731D01*
X18685600Y-2600097D01*
X18685600Y-3340920D01*
X18665598Y-3409041D01*
X18611942Y-3455534D01*
X18559600Y-3466920D01*
X18460920Y-3466920D01*
X18392799Y-3446918D01*
X18346306Y-3393262D01*
X18334920Y-3340920D01*
X18334920Y-3244275D01*
X18334922Y-3243504D01*
X18335345Y-3174335D01*
X18335400Y-3165362D01*
X18334637Y-3162692D01*
X18334810Y-3134350D01*
X18337042Y-3126886D01*
X18337254Y-3092150D01*
X18337288Y-3091346D01*
X18337460Y-3090241D01*
X18337460Y-3058892D01*
X18337462Y-3058122D01*
X18337916Y-2983908D01*
X18337916Y-2983905D01*
X18337940Y-2979942D01*
X18337553Y-2978589D01*
X18337460Y-2977223D01*
X18337460Y-2525524D01*
X18337462Y-2524754D01*
X18337861Y-2459410D01*
X18337940Y-2446542D01*
X18329720Y-2417780D01*
X18326144Y-2401027D01*
X18325220Y-2394579D01*
X18321903Y-2371417D01*
X18318189Y-2363249D01*
X18318188Y-2363245D01*
X18311146Y-2347757D01*
X18304698Y-2330232D01*
X18297559Y-2305253D01*
X18281599Y-2279958D01*
X18273460Y-2264873D01*
X18264797Y-2245819D01*
X18264796Y-2245817D01*
X18261082Y-2237649D01*
X18255223Y-2230849D01*
X18255221Y-2230846D01*
X18244118Y-2217960D01*
X18233017Y-2202959D01*
X18219146Y-2180976D01*
X18208230Y-2171335D01*
X18196726Y-2161175D01*
X18184686Y-2148987D01*
X18165161Y-2126327D01*
X18143353Y-2112191D01*
X18128484Y-2100905D01*
X18119502Y-2092972D01*
X18109005Y-2083702D01*
X18098452Y-2078747D01*
X18096909Y-2078023D01*
X18081926Y-2070988D01*
X18066958Y-2062674D01*
X18041852Y-2046402D01*
X18033252Y-2043830D01*
X18033248Y-2043828D01*
X18016956Y-2038955D01*
X17999513Y-2032295D01*
X17984115Y-2025066D01*
X17975989Y-2021251D01*
X17951468Y-2017433D01*
X17946433Y-2016649D01*
X17929717Y-2012866D01*
X17909671Y-2006871D01*
X17909668Y-2006871D01*
X17901066Y-2004298D01*
X17892091Y-2004243D01*
X17892090Y-2004243D01*
X17881725Y-2004180D01*
X17866330Y-2004086D01*
X17865526Y-2004052D01*
X17864421Y-2003880D01*
X17833110Y-2003880D01*
X17832340Y-2003878D01*
X17758088Y-2003424D01*
X17758085Y-2003424D01*
X17754122Y-2003400D01*
X17752769Y-2003787D01*
X17751403Y-2003880D01*
X16735830Y-2003880D01*
X16735060Y-2003878D01*
X16734316Y-2003873D01*
X16656842Y-2003400D01*
X16628080Y-2011620D01*
X16611327Y-2015196D01*
X16605526Y-2016027D01*
X16581717Y-2019437D01*
X16573549Y-2023151D01*
X16573545Y-2023152D01*
X16558057Y-2030194D01*
X16540533Y-2036642D01*
X16515553Y-2043781D01*
X16496865Y-2055572D01*
X16490258Y-2059741D01*
X16475173Y-2067880D01*
X16456119Y-2076543D01*
X16456117Y-2076544D01*
X16447949Y-2080258D01*
X16441149Y-2086117D01*
X16441146Y-2086119D01*
X16428260Y-2097222D01*
X16413259Y-2108323D01*
X16391276Y-2122194D01*
X16385333Y-2128923D01*
X16371475Y-2144614D01*
X16359280Y-2156660D01*
X16351157Y-2163659D01*
X16286494Y-2192972D01*
X16216249Y-2182672D01*
X16203944Y-2176165D01*
X16201840Y-2174899D01*
X16197873Y-2172073D01*
X16193521Y-2169892D01*
X16193515Y-2169889D01*
X16185213Y-2165730D01*
X16176302Y-2160806D01*
X16170713Y-2157416D01*
X16166882Y-2155092D01*
X16150983Y-2148314D01*
X16144004Y-2145082D01*
X16134510Y-2140325D01*
X16124665Y-2134827D01*
X16120267Y-2132106D01*
X16115107Y-2128913D01*
X16110629Y-2127022D01*
X16110618Y-2127016D01*
X16097375Y-2121423D01*
X16089954Y-2118001D01*
X16087505Y-2116774D01*
X16075559Y-2110788D01*
X16071299Y-2109366D01*
X16067165Y-2107650D01*
X16067293Y-2107342D01*
X16062458Y-2105256D01*
X16062319Y-2105572D01*
X16057868Y-2103610D01*
X16053575Y-2101307D01*
X16034480Y-2094597D01*
X16027238Y-2091798D01*
X16017962Y-2087880D01*
X16011480Y-2085142D01*
X16000805Y-2082332D01*
X15991109Y-2079356D01*
X15987317Y-2078023D01*
X15978076Y-2074359D01*
X15969098Y-2070382D01*
X15969088Y-2070378D01*
X15964644Y-2068410D01*
X15959940Y-2067146D01*
X15949323Y-2064293D01*
X15940247Y-2061483D01*
X15928246Y-2057266D01*
X15913031Y-2054251D01*
X15904848Y-2052342D01*
X15897127Y-2050267D01*
X15887268Y-2047179D01*
X15878957Y-2044196D01*
X15878950Y-2044194D01*
X15874377Y-2042553D01*
X15857887Y-2039380D01*
X15848998Y-2037334D01*
X15835768Y-2033779D01*
X15831330Y-2033243D01*
X15831316Y-2033240D01*
X15821733Y-2032082D01*
X15805256Y-2028550D01*
X15805217Y-2028719D01*
X15800481Y-2027635D01*
X15795829Y-2026185D01*
X15791013Y-2025468D01*
X15791003Y-2025466D01*
X15777450Y-2023449D01*
X15769445Y-2021786D01*
X15764932Y-2020943D01*
X15760233Y-2019683D01*
X15755395Y-2019161D01*
X15755391Y-2019160D01*
X15754657Y-2019081D01*
X15748140Y-2018105D01*
X15745959Y-2017844D01*
X15741549Y-2016996D01*
X15737066Y-2016782D01*
X15735329Y-2016574D01*
X15732141Y-2016152D01*
X15728325Y-2015597D01*
X15723567Y-2014525D01*
X15718705Y-2014198D01*
X15718698Y-2014197D01*
X15717499Y-2014116D01*
X15710978Y-2013413D01*
X15708957Y-2013258D01*
X15704535Y-2012600D01*
X15700061Y-2012575D01*
X15695586Y-2012232D01*
X15695597Y-2012088D01*
X15692776Y-2011914D01*
X15690312Y-2011425D01*
X15685445Y-2011224D01*
X15685443Y-2011224D01*
X15683793Y-2011156D01*
X15675466Y-2010535D01*
X15672170Y-2010179D01*
X15672165Y-2010179D01*
X15667702Y-2009697D01*
X15663215Y-2009853D01*
X15659582Y-2009721D01*
X15659266Y-2009700D01*
X15657476Y-2009381D01*
X15644992Y-2009112D01*
X15639288Y-2008858D01*
X15626882Y-2008024D01*
X15624984Y-2008167D01*
X15624178Y-2008038D01*
X15620813Y-2008025D01*
X15620798Y-2008024D01*
X15608963Y-2007977D01*
X15604272Y-2007871D01*
X15597583Y-2007595D01*
X15590821Y-2007316D01*
X15590699Y-2007328D01*
X15590221Y-2007261D01*
X15586569Y-2007313D01*
X15586567Y-2007313D01*
X15585194Y-2007333D01*
X15573802Y-2007495D01*
X15569331Y-2007479D01*
X15556965Y-2007212D01*
X15556961Y-2007212D01*
X15556968Y-2006895D01*
X15555922Y-2007088D01*
X15555261Y-2007009D01*
X15540872Y-2007527D01*
X15538926Y-2007597D01*
X15533895Y-2007678D01*
X15532187Y-2007671D01*
X15522768Y-2007634D01*
X15522279Y-2007702D01*
X15521661Y-2007719D01*
X15517747Y-2007375D01*
X15512895Y-2007699D01*
X15512891Y-2007699D01*
X15503596Y-2008320D01*
X15496989Y-2008587D01*
X15493108Y-2008642D01*
X15493105Y-2008642D01*
X15489666Y-2008691D01*
X15488259Y-2008913D01*
X15484826Y-2009005D01*
X15479964Y-2008760D01*
X15475120Y-2009266D01*
X15475115Y-2009266D01*
X15470181Y-2009781D01*
X15461630Y-2010381D01*
X15456776Y-2010556D01*
X15455458Y-2010793D01*
X15447473Y-2011253D01*
X15441641Y-2011299D01*
X15435656Y-2012279D01*
X15431503Y-2012756D01*
X15431511Y-2012813D01*
X15427066Y-2013430D01*
X15422596Y-2013728D01*
X15418213Y-2014658D01*
X15414475Y-2015176D01*
X15406496Y-2016435D01*
X15395180Y-2017617D01*
X15385586Y-2020030D01*
X15375221Y-2022177D01*
X15372569Y-2022612D01*
X15364912Y-2023865D01*
X15355481Y-2025046D01*
X15353882Y-2025185D01*
X15339721Y-2026417D01*
X15325381Y-2029945D01*
X15315688Y-2031927D01*
X15304200Y-2033809D01*
X15288309Y-2038804D01*
X15280656Y-2040947D01*
X15264793Y-2044850D01*
X15255557Y-2046757D01*
X15239808Y-2049397D01*
X15235191Y-2050930D01*
X15235186Y-2050931D01*
X15225955Y-2053996D01*
X15216359Y-2056765D01*
X15205204Y-2059509D01*
X15201049Y-2061185D01*
X15201047Y-2061186D01*
X15189627Y-2065793D01*
X15182182Y-2068528D01*
X15167048Y-2073552D01*
X15158005Y-2076183D01*
X15147135Y-2078909D01*
X15147128Y-2078911D01*
X15142421Y-2080092D01*
X15137948Y-2081984D01*
X15137937Y-2081988D01*
X15129070Y-2085739D01*
X15119696Y-2089272D01*
X15108904Y-2092855D01*
X15104897Y-2094854D01*
X15104890Y-2094857D01*
X15093758Y-2100411D01*
X15086612Y-2103702D01*
X15072130Y-2109829D01*
X15063396Y-2113146D01*
X15048044Y-2118333D01*
X15035281Y-2124982D01*
X15026178Y-2129269D01*
X15018887Y-2132354D01*
X15018528Y-2132506D01*
X14947997Y-2140623D01*
X14900924Y-2122204D01*
X14900909Y-2122194D01*
X14897244Y-2119818D01*
X14882364Y-2108525D01*
X14882145Y-2108331D01*
X14862885Y-2091322D01*
X14835806Y-2078608D01*
X14820838Y-2070294D01*
X14795732Y-2054022D01*
X14787132Y-2051450D01*
X14787128Y-2051448D01*
X14770836Y-2046575D01*
X14753393Y-2039915D01*
X14737995Y-2032686D01*
X14729869Y-2028871D01*
X14705303Y-2025046D01*
X14700313Y-2024269D01*
X14683597Y-2020486D01*
X14663551Y-2014491D01*
X14663548Y-2014491D01*
X14654946Y-2011918D01*
X14645971Y-2011863D01*
X14645970Y-2011863D01*
X14635605Y-2011800D01*
X14620210Y-2011706D01*
X14619406Y-2011672D01*
X14618301Y-2011500D01*
X14586990Y-2011500D01*
X14586220Y-2011498D01*
X14511968Y-2011044D01*
X14511965Y-2011044D01*
X14508002Y-2011020D01*
X14506649Y-2011407D01*
X14505283Y-2011500D01*
X13217930Y-2011500D01*
X13217160Y-2011498D01*
X13216416Y-2011493D01*
X13138942Y-2011020D01*
X13110180Y-2019240D01*
X13093427Y-2022816D01*
X13086979Y-2023740D01*
X13063817Y-2027057D01*
X13055649Y-2030771D01*
X13055645Y-2030772D01*
X13040157Y-2037814D01*
X13022655Y-2044255D01*
X13020781Y-2044791D01*
X12949786Y-2044293D01*
X12932584Y-2037704D01*
X12921898Y-2032687D01*
X12921895Y-2032686D01*
X12913769Y-2028871D01*
X12889203Y-2025046D01*
X12884213Y-2024269D01*
X12867497Y-2020486D01*
X12847451Y-2014491D01*
X12847448Y-2014491D01*
X12838846Y-2011918D01*
X12829871Y-2011863D01*
X12829870Y-2011863D01*
X12819505Y-2011800D01*
X12804110Y-2011706D01*
X12803306Y-2011672D01*
X12802201Y-2011500D01*
X12770890Y-2011500D01*
X12770120Y-2011498D01*
X12695868Y-2011044D01*
X12695865Y-2011044D01*
X12691902Y-2011020D01*
X12690549Y-2011407D01*
X12689183Y-2011500D01*
X12549910Y-2011500D01*
X12549140Y-2011498D01*
X12548396Y-2011493D01*
X12470922Y-2011020D01*
X12442160Y-2019240D01*
X12425407Y-2022816D01*
X12418959Y-2023740D01*
X12395797Y-2027057D01*
X12387629Y-2030771D01*
X12387625Y-2030772D01*
X12383156Y-2032804D01*
X12312865Y-2042790D01*
X12292786Y-2038167D01*
X12290570Y-2037462D01*
X12282487Y-2033553D01*
X12267803Y-2031094D01*
X12246601Y-2025613D01*
X12226287Y-2018426D01*
X12217329Y-2017928D01*
X12217320Y-2017926D01*
X12206675Y-2017334D01*
X12200947Y-2016796D01*
X12193311Y-2014648D01*
X12184339Y-2014740D01*
X12184337Y-2014740D01*
X12183668Y-2014747D01*
X12183120Y-2014753D01*
X12169879Y-2014124D01*
X12166048Y-2013416D01*
X12162438Y-2013314D01*
X12158094Y-2012722D01*
X12137558Y-2009282D01*
X12133707Y-2009741D01*
X12132818Y-2009670D01*
X12118167Y-2007687D01*
X12108151Y-2009200D01*
X12097450Y-2009706D01*
X12097474Y-2009987D01*
X12088531Y-2010764D01*
X12079567Y-2010266D01*
X12074896Y-2011354D01*
X12074058Y-2011385D01*
X12060432Y-2011198D01*
X12058827Y-2011406D01*
X12057267Y-2011446D01*
X12040710Y-2011345D01*
X12039905Y-2011455D01*
X12039189Y-2011478D01*
X12031529Y-2011460D01*
X12020030Y-2011434D01*
X12020020Y-2011434D01*
X12018984Y-2011432D01*
X12018627Y-2011482D01*
X12018316Y-2011493D01*
X12008219Y-2011487D01*
X11994267Y-2011479D01*
X11993938Y-2011479D01*
X11993828Y-2011495D01*
X11993735Y-2011498D01*
X11983173Y-2011497D01*
X11976642Y-2011497D01*
X11976628Y-2011499D01*
X11976509Y-2011499D01*
X11920578Y-2011500D01*
X11912332Y-2011230D01*
X11906360Y-2010838D01*
X11868251Y-2008338D01*
X11868248Y-2008338D01*
X11859296Y-2007751D01*
X11849447Y-2009943D01*
X11811525Y-2018382D01*
X11802019Y-2020118D01*
X11799450Y-2020486D01*
X11753565Y-2027058D01*
X11745394Y-2030773D01*
X11739892Y-2032382D01*
X11730006Y-2035689D01*
X11724620Y-2037724D01*
X11715858Y-2039674D01*
X11707991Y-2044007D01*
X11707989Y-2044008D01*
X11672983Y-2063290D01*
X11664372Y-2067612D01*
X11619797Y-2087880D01*
X11612994Y-2093742D01*
X11608176Y-2096823D01*
X11599586Y-2102793D01*
X11595012Y-2106239D01*
X11587146Y-2110572D01*
X11580814Y-2116936D01*
X11580812Y-2116938D01*
X11552623Y-2145272D01*
X11545555Y-2151852D01*
X11508476Y-2183802D01*
X11503595Y-2191333D01*
X11503592Y-2191336D01*
X11492779Y-2208020D01*
X11438943Y-2254305D01*
X11368631Y-2264137D01*
X11304165Y-2234394D01*
X11292689Y-2222994D01*
X11284542Y-2213786D01*
X11277569Y-2205169D01*
X11277124Y-2204567D01*
X11275382Y-2202209D01*
X11274629Y-2201445D01*
X11274014Y-2200676D01*
X11273666Y-2200209D01*
X11273663Y-2200205D01*
X11270985Y-2196619D01*
X11267818Y-2193441D01*
X11265850Y-2191163D01*
X11265828Y-2191136D01*
X11264612Y-2189801D01*
X11261847Y-2186291D01*
X11258605Y-2183202D01*
X11257707Y-2182346D01*
X11247466Y-2171350D01*
X11234422Y-2155552D01*
X11234420Y-2155550D01*
X11228707Y-2148631D01*
X11224670Y-2145892D01*
X11223539Y-2144745D01*
X11223180Y-2144440D01*
X11217235Y-2137722D01*
X11209638Y-2132939D01*
X11206072Y-2129910D01*
X11199866Y-2125241D01*
X11193530Y-2118882D01*
X11187763Y-2115711D01*
X11182395Y-2110597D01*
X11148267Y-2092972D01*
X11135344Y-2085289D01*
X11114536Y-2071172D01*
X11114534Y-2071171D01*
X11107105Y-2066131D01*
X11095636Y-2062437D01*
X11073558Y-2052915D01*
X11072633Y-2052406D01*
X11072629Y-2052404D01*
X11064766Y-2048081D01*
X11058761Y-2046749D01*
X11051832Y-2043171D01*
X11043025Y-2041457D01*
X11043022Y-2041456D01*
X11024305Y-2037814D01*
X11018776Y-2036738D01*
X11004439Y-2033047D01*
X11004259Y-2033004D01*
X10999630Y-2031513D01*
X10994821Y-2030751D01*
X10994813Y-2030749D01*
X10994662Y-2030725D01*
X10981369Y-2027875D01*
X10952107Y-2019927D01*
X10952100Y-2019926D01*
X10943440Y-2017574D01*
X10934466Y-2017747D01*
X10930751Y-2017288D01*
X10925387Y-2016823D01*
X10925370Y-2017167D01*
X10921304Y-2016265D01*
X10915542Y-2016647D01*
X10907591Y-2015100D01*
X10898652Y-2015927D01*
X10898649Y-2015927D01*
X10893522Y-2016401D01*
X10879953Y-2016518D01*
X10879952Y-2016828D01*
X10875476Y-2016809D01*
X10871005Y-2016472D01*
X10866537Y-2016772D01*
X10862122Y-2016753D01*
X10854807Y-2016858D01*
X10849325Y-2016647D01*
X10846887Y-2016553D01*
X10846884Y-2016553D01*
X10842409Y-2016381D01*
X10838450Y-2016793D01*
X10833325Y-2016828D01*
X10823904Y-2016649D01*
X10823903Y-2016649D01*
X10819426Y-2016564D01*
X10817125Y-2016849D01*
X10814687Y-2016903D01*
X10800818Y-2016794D01*
X10800817Y-2016794D01*
X10797006Y-2016764D01*
X10795579Y-2016957D01*
X10794208Y-2017000D01*
X10772709Y-2016976D01*
X10771845Y-2017099D01*
X10771057Y-2017128D01*
X10745320Y-2017205D01*
X10744855Y-2017273D01*
X10744464Y-2017289D01*
X10725661Y-2017386D01*
X10725512Y-2017408D01*
X10725437Y-2017411D01*
X10723914Y-2017420D01*
X10721799Y-2017433D01*
X10710273Y-2016974D01*
X10704744Y-2016500D01*
X10695994Y-2014471D01*
X10638045Y-2017759D01*
X10631662Y-2017959D01*
X10611877Y-2018074D01*
X10607453Y-2018734D01*
X10607441Y-2018735D01*
X10604924Y-2019111D01*
X10593467Y-2020289D01*
X10549284Y-2022796D01*
X10538367Y-2026672D01*
X10514803Y-2032554D01*
X10512221Y-2032939D01*
X10512219Y-2032940D01*
X10503341Y-2034264D01*
X10495192Y-2038027D01*
X10495188Y-2038028D01*
X10463167Y-2052814D01*
X10452503Y-2057159D01*
X10410806Y-2071963D01*
X10403532Y-2077219D01*
X10403529Y-2077220D01*
X10401416Y-2078747D01*
X10380446Y-2091009D01*
X10369930Y-2095865D01*
X10336575Y-2124947D01*
X10327575Y-2132097D01*
X10291695Y-2158020D01*
X10286185Y-2165110D01*
X10286181Y-2165114D01*
X10284583Y-2167170D01*
X10267904Y-2184819D01*
X10265933Y-2186537D01*
X10265931Y-2186539D01*
X10259170Y-2192434D01*
X10235308Y-2229722D01*
X10228685Y-2239099D01*
X10201525Y-2274048D01*
X10198227Y-2282397D01*
X10198225Y-2282401D01*
X10197267Y-2284826D01*
X10186212Y-2306444D01*
X10179965Y-2316207D01*
X10177445Y-2324818D01*
X10177443Y-2324821D01*
X10167530Y-2358689D01*
X10163799Y-2369565D01*
X10147544Y-2410721D01*
X10146723Y-2419656D01*
X10146722Y-2419659D01*
X10146484Y-2422253D01*
X10141938Y-2446120D01*
X10138684Y-2457236D01*
X10138676Y-2485782D01*
X10138672Y-2501488D01*
X10138144Y-2512977D01*
X10134092Y-2557050D01*
X5542597Y-2557050D01*
X5406549Y-2427945D01*
X5350258Y-2374527D01*
X5350255Y-2374525D01*
X5347149Y-2371577D01*
X5130642Y-2216000D01*
X5117172Y-2206321D01*
X5117171Y-2206320D01*
X5113683Y-2203814D01*
X5108892Y-2201277D01*
X5049610Y-2169889D01*
X4859608Y-2069288D01*
X4717440Y-2017262D01*
X4593658Y-1971964D01*
X4593656Y-1971963D01*
X4589627Y-1970489D01*
X4308736Y-1909245D01*
X4277685Y-1906801D01*
X4085718Y-1891693D01*
X4085709Y-1891693D01*
X4083261Y-1891500D01*
X3927729Y-1891500D01*
X3925593Y-1891646D01*
X3925582Y-1891646D01*
X3717452Y-1905835D01*
X3717446Y-1905836D01*
X3713175Y-1906127D01*
X3708980Y-1906996D01*
X3708978Y-1906996D01*
X3572416Y-1935277D01*
X3431658Y-1964426D01*
X3160657Y-2060393D01*
X3107768Y-2087691D01*
X2912330Y-2188564D01*
X2905188Y-2192250D01*
X2901687Y-2194711D01*
X2901683Y-2194713D01*
X2822139Y-2250618D01*
X2669977Y-2357559D01*
X2600864Y-2421783D01*
X2464917Y-2548113D01*
X2459378Y-2553260D01*
X2277287Y-2775732D01*
X2127073Y-3020858D01*
X2125347Y-3024791D01*
X2125346Y-3024792D01*
X2026977Y-3248883D01*
X2011517Y-3284102D01*
X2010342Y-3288229D01*
X2010341Y-3288230D01*
X1983571Y-3382207D01*
X1932756Y-3560594D01*
X1902485Y-3773296D01*
X1893124Y-3839071D01*
X1892249Y-3845216D01*
X1892227Y-3849505D01*
X1892226Y-3849512D01*
X1890765Y-4128417D01*
X1890743Y-4132703D01*
X508000Y-4132703D01*
X508000Y-634000D01*
X528002Y-565879D01*
X581658Y-519386D01*
X634000Y-508000D01*
X29366000Y-508000D01*
X29434121Y-528002D01*
G37*
G04 #@! TD.AperFunction*
M02*
