G04 #@! TF.GenerationSoftware,KiCad,Pcbnew,6.0.9-8da3e8f707~116~ubuntu20.04.1*
G04 #@! TF.CreationDate,2023-03-26T14:22:57+00:00*
G04 #@! TF.ProjectId,LEC001021,4c454330-3031-4303-9231-2e6b69636164,rev?*
G04 #@! TF.SameCoordinates,Original*
G04 #@! TF.FileFunction,Legend,Bot*
G04 #@! TF.FilePolarity,Positive*
%FSLAX46Y46*%
G04 Gerber Fmt 4.6, Leading zero omitted, Abs format (unit mm)*
G04 Created by KiCad (PCBNEW 6.0.9-8da3e8f707~116~ubuntu20.04.1) date 2023-03-26 14:22:57*
%MOMM*%
%LPD*%
G01*
G04 APERTURE LIST*
%ADD10C,0.150000*%
%ADD11C,0.400000*%
%ADD12C,0.120000*%
%ADD13C,0.010000*%
G04 APERTURE END LIST*
D10*
X20000000Y-6375000D02*
X20000000Y-2000000D01*
X20000000Y-2000000D02*
X10000000Y-2000000D01*
X10000000Y-2000000D02*
X10000000Y-6375000D01*
X10000000Y-6375000D02*
X20000000Y-6375000D01*
D11*
X8928571Y-26904761D02*
X10071428Y-26904761D01*
X9500000Y-26904761D02*
X9500000Y-24904761D01*
X9690476Y-25190476D01*
X9880952Y-25380952D01*
X10071428Y-25476190D01*
X21071428Y-25095238D02*
X20976190Y-25000000D01*
X20785714Y-24904761D01*
X20309523Y-24904761D01*
X20119047Y-25000000D01*
X20023809Y-25095238D01*
X19928571Y-25285714D01*
X19928571Y-25476190D01*
X20023809Y-25761904D01*
X21166666Y-26904761D01*
X19928571Y-26904761D01*
D10*
X22761904Y-9147380D02*
X22761904Y-8480714D01*
X22761904Y-8575952D02*
X22714285Y-8528333D01*
X22619047Y-8480714D01*
X22476190Y-8480714D01*
X22380952Y-8528333D01*
X22333333Y-8623571D01*
X22333333Y-9147380D01*
X22333333Y-8623571D02*
X22285714Y-8528333D01*
X22190476Y-8480714D01*
X22047619Y-8480714D01*
X21952380Y-8528333D01*
X21904761Y-8623571D01*
X21904761Y-9147380D01*
X21000000Y-9147380D02*
X21000000Y-8623571D01*
X21047619Y-8528333D01*
X21142857Y-8480714D01*
X21333333Y-8480714D01*
X21428571Y-8528333D01*
X21000000Y-9099761D02*
X21095238Y-9147380D01*
X21333333Y-9147380D01*
X21428571Y-9099761D01*
X21476190Y-9004523D01*
X21476190Y-8909285D01*
X21428571Y-8814047D01*
X21333333Y-8766428D01*
X21095238Y-8766428D01*
X21000000Y-8718809D01*
X20523809Y-8480714D02*
X20523809Y-9147380D01*
X20523809Y-8575952D02*
X20476190Y-8528333D01*
X20380952Y-8480714D01*
X20238095Y-8480714D01*
X20142857Y-8528333D01*
X20095238Y-8623571D01*
X20095238Y-9147380D01*
X19190476Y-8480714D02*
X19190476Y-9147380D01*
X19619047Y-8480714D02*
X19619047Y-9004523D01*
X19571428Y-9099761D01*
X19476190Y-9147380D01*
X19333333Y-9147380D01*
X19238095Y-9099761D01*
X19190476Y-9052142D01*
X18285714Y-9147380D02*
X18285714Y-8623571D01*
X18333333Y-8528333D01*
X18428571Y-8480714D01*
X18619047Y-8480714D01*
X18714285Y-8528333D01*
X18285714Y-9099761D02*
X18380952Y-9147380D01*
X18619047Y-9147380D01*
X18714285Y-9099761D01*
X18761904Y-9004523D01*
X18761904Y-8909285D01*
X18714285Y-8814047D01*
X18619047Y-8766428D01*
X18380952Y-8766428D01*
X18285714Y-8718809D01*
X17666666Y-9147380D02*
X17761904Y-9099761D01*
X17809523Y-9004523D01*
X17809523Y-8147380D01*
X16095238Y-9147380D02*
X16095238Y-8623571D01*
X16142857Y-8528333D01*
X16238095Y-8480714D01*
X16428571Y-8480714D01*
X16523809Y-8528333D01*
X16095238Y-9099761D02*
X16190476Y-9147380D01*
X16428571Y-9147380D01*
X16523809Y-9099761D01*
X16571428Y-9004523D01*
X16571428Y-8909285D01*
X16523809Y-8814047D01*
X16428571Y-8766428D01*
X16190476Y-8766428D01*
X16095238Y-8718809D01*
X15714285Y-8480714D02*
X15476190Y-9147380D01*
X15238095Y-8480714D01*
X14428571Y-9147380D02*
X14428571Y-8623571D01*
X14476190Y-8528333D01*
X14571428Y-8480714D01*
X14761904Y-8480714D01*
X14857142Y-8528333D01*
X14428571Y-9099761D02*
X14523809Y-9147380D01*
X14761904Y-9147380D01*
X14857142Y-9099761D01*
X14904761Y-9004523D01*
X14904761Y-8909285D01*
X14857142Y-8814047D01*
X14761904Y-8766428D01*
X14523809Y-8766428D01*
X14428571Y-8718809D01*
X13952380Y-9147380D02*
X13952380Y-8480714D01*
X13952380Y-8147380D02*
X14000000Y-8195000D01*
X13952380Y-8242619D01*
X13904761Y-8195000D01*
X13952380Y-8147380D01*
X13952380Y-8242619D01*
X13333333Y-9147380D02*
X13428571Y-9099761D01*
X13476190Y-9004523D01*
X13476190Y-8147380D01*
X12523809Y-9147380D02*
X12523809Y-8623571D01*
X12571428Y-8528333D01*
X12666666Y-8480714D01*
X12857142Y-8480714D01*
X12952380Y-8528333D01*
X12523809Y-9099761D02*
X12619047Y-9147380D01*
X12857142Y-9147380D01*
X12952380Y-9099761D01*
X13000000Y-9004523D01*
X13000000Y-8909285D01*
X12952380Y-8814047D01*
X12857142Y-8766428D01*
X12619047Y-8766428D01*
X12523809Y-8718809D01*
X12047619Y-9147380D02*
X12047619Y-8147380D01*
X12047619Y-8528333D02*
X11952380Y-8480714D01*
X11761904Y-8480714D01*
X11666666Y-8528333D01*
X11619047Y-8575952D01*
X11571428Y-8671190D01*
X11571428Y-8956904D01*
X11619047Y-9052142D01*
X11666666Y-9099761D01*
X11761904Y-9147380D01*
X11952380Y-9147380D01*
X12047619Y-9099761D01*
X11000000Y-9147380D02*
X11095238Y-9099761D01*
X11142857Y-9004523D01*
X11142857Y-8147380D01*
X10238095Y-9099761D02*
X10333333Y-9147380D01*
X10523809Y-9147380D01*
X10619047Y-9099761D01*
X10666666Y-9004523D01*
X10666666Y-8623571D01*
X10619047Y-8528333D01*
X10523809Y-8480714D01*
X10333333Y-8480714D01*
X10238095Y-8528333D01*
X10190476Y-8623571D01*
X10190476Y-8718809D01*
X10666666Y-8814047D01*
X8571428Y-9147380D02*
X8571428Y-8623571D01*
X8619047Y-8528333D01*
X8714285Y-8480714D01*
X8904761Y-8480714D01*
X9000000Y-8528333D01*
X8571428Y-9099761D02*
X8666666Y-9147380D01*
X8904761Y-9147380D01*
X9000000Y-9099761D01*
X9047619Y-9004523D01*
X9047619Y-8909285D01*
X9000000Y-8814047D01*
X8904761Y-8766428D01*
X8666666Y-8766428D01*
X8571428Y-8718809D01*
X8238095Y-8480714D02*
X7857142Y-8480714D01*
X8095238Y-8147380D02*
X8095238Y-9004523D01*
X8047619Y-9099761D01*
X7952380Y-9147380D01*
X7857142Y-9147380D01*
X20809523Y-10757380D02*
X20809523Y-9757380D01*
X20380952Y-10757380D02*
X20380952Y-10233571D01*
X20428571Y-10138333D01*
X20523809Y-10090714D01*
X20666666Y-10090714D01*
X20761904Y-10138333D01*
X20809523Y-10185952D01*
X20047619Y-10090714D02*
X19666666Y-10090714D01*
X19904761Y-9757380D02*
X19904761Y-10614523D01*
X19857142Y-10709761D01*
X19761904Y-10757380D01*
X19666666Y-10757380D01*
X19476190Y-10090714D02*
X19095238Y-10090714D01*
X19333333Y-9757380D02*
X19333333Y-10614523D01*
X19285714Y-10709761D01*
X19190476Y-10757380D01*
X19095238Y-10757380D01*
X18761904Y-10090714D02*
X18761904Y-11090714D01*
X18761904Y-10138333D02*
X18666666Y-10090714D01*
X18476190Y-10090714D01*
X18380952Y-10138333D01*
X18333333Y-10185952D01*
X18285714Y-10281190D01*
X18285714Y-10566904D01*
X18333333Y-10662142D01*
X18380952Y-10709761D01*
X18476190Y-10757380D01*
X18666666Y-10757380D01*
X18761904Y-10709761D01*
X17904761Y-10709761D02*
X17809523Y-10757380D01*
X17619047Y-10757380D01*
X17523809Y-10709761D01*
X17476190Y-10614523D01*
X17476190Y-10566904D01*
X17523809Y-10471666D01*
X17619047Y-10424047D01*
X17761904Y-10424047D01*
X17857142Y-10376428D01*
X17904761Y-10281190D01*
X17904761Y-10233571D01*
X17857142Y-10138333D01*
X17761904Y-10090714D01*
X17619047Y-10090714D01*
X17523809Y-10138333D01*
X17047619Y-10662142D02*
X17000000Y-10709761D01*
X17047619Y-10757380D01*
X17095238Y-10709761D01*
X17047619Y-10662142D01*
X17047619Y-10757380D01*
X17047619Y-10138333D02*
X17000000Y-10185952D01*
X17047619Y-10233571D01*
X17095238Y-10185952D01*
X17047619Y-10138333D01*
X17047619Y-10233571D01*
X15857142Y-9709761D02*
X16714285Y-10995476D01*
X14809523Y-9709761D02*
X15666666Y-10995476D01*
X14333333Y-10757380D02*
X14428571Y-10709761D01*
X14476190Y-10614523D01*
X14476190Y-9757380D01*
X13571428Y-10709761D02*
X13666666Y-10757380D01*
X13857142Y-10757380D01*
X13952380Y-10709761D01*
X14000000Y-10614523D01*
X14000000Y-10233571D01*
X13952380Y-10138333D01*
X13857142Y-10090714D01*
X13666666Y-10090714D01*
X13571428Y-10138333D01*
X13523809Y-10233571D01*
X13523809Y-10328809D01*
X14000000Y-10424047D01*
X12666666Y-10709761D02*
X12761904Y-10757380D01*
X12952380Y-10757380D01*
X13047619Y-10709761D01*
X13095238Y-10662142D01*
X13142857Y-10566904D01*
X13142857Y-10281190D01*
X13095238Y-10185952D01*
X13047619Y-10138333D01*
X12952380Y-10090714D01*
X12761904Y-10090714D01*
X12666666Y-10138333D01*
X12380952Y-10090714D02*
X12000000Y-10090714D01*
X12238095Y-9757380D02*
X12238095Y-10614523D01*
X12190476Y-10709761D01*
X12095238Y-10757380D01*
X12000000Y-10757380D01*
X11666666Y-10757380D02*
X11666666Y-10090714D01*
X11666666Y-9757380D02*
X11714285Y-9805000D01*
X11666666Y-9852619D01*
X11619047Y-9805000D01*
X11666666Y-9757380D01*
X11666666Y-9852619D01*
X11285714Y-10757380D02*
X10761904Y-10090714D01*
X11285714Y-10090714D02*
X10761904Y-10757380D01*
X10380952Y-10662142D02*
X10333333Y-10709761D01*
X10380952Y-10757380D01*
X10428571Y-10709761D01*
X10380952Y-10662142D01*
X10380952Y-10757380D01*
X10047619Y-10090714D02*
X9666666Y-10090714D01*
X9904761Y-10757380D02*
X9904761Y-9900238D01*
X9857142Y-9805000D01*
X9761904Y-9757380D01*
X9666666Y-9757380D01*
X9333333Y-10757380D02*
X9333333Y-10090714D01*
X9333333Y-10281190D02*
X9285714Y-10185952D01*
X9238095Y-10138333D01*
X9142857Y-10090714D01*
X9047619Y-10090714D01*
D12*
G04 #@! TO.C,H2*
X7224903Y-4000000D02*
G75*
G03*
X7224903Y-4000000I-3224903J0D01*
G01*
G36*
X2400000Y-4100000D02*
G01*
X2500000Y-4500000D01*
X2700000Y-4900000D01*
X3100000Y-5300000D01*
X3500000Y-5500000D01*
X3900000Y-5600000D01*
X4000000Y-5600000D01*
X4000000Y-7224903D01*
X3500000Y-7200000D01*
X2500000Y-6900000D01*
X1700000Y-6300000D01*
X1200000Y-5600000D01*
X900000Y-4900000D01*
X800000Y-4500000D01*
X800000Y-4000000D01*
X2400000Y-4000000D01*
X2400000Y-4100000D01*
G37*
D13*
X2400000Y-4100000D02*
X2500000Y-4500000D01*
X2700000Y-4900000D01*
X3100000Y-5300000D01*
X3500000Y-5500000D01*
X3900000Y-5600000D01*
X4000000Y-5600000D01*
X4000000Y-7224903D01*
X3500000Y-7200000D01*
X2500000Y-6900000D01*
X1700000Y-6300000D01*
X1200000Y-5600000D01*
X900000Y-4900000D01*
X800000Y-4500000D01*
X800000Y-4000000D01*
X2400000Y-4000000D01*
X2400000Y-4100000D01*
G36*
X4500000Y-800000D02*
G01*
X5500000Y-1100000D01*
X6300000Y-1700000D01*
X6800000Y-2400000D01*
X7100000Y-3100000D01*
X7200000Y-3500000D01*
X7200000Y-4000000D01*
X5600000Y-4000000D01*
X5600000Y-3900000D01*
X5500000Y-3500000D01*
X5300000Y-3100000D01*
X4900000Y-2700000D01*
X4500000Y-2500000D01*
X4100000Y-2400000D01*
X4000000Y-2400000D01*
X4000000Y-775097D01*
X4500000Y-800000D01*
G37*
X4500000Y-800000D02*
X5500000Y-1100000D01*
X6300000Y-1700000D01*
X6800000Y-2400000D01*
X7100000Y-3100000D01*
X7200000Y-3500000D01*
X7200000Y-4000000D01*
X5600000Y-4000000D01*
X5600000Y-3900000D01*
X5500000Y-3500000D01*
X5300000Y-3100000D01*
X4900000Y-2700000D01*
X4500000Y-2500000D01*
X4100000Y-2400000D01*
X4000000Y-2400000D01*
X4000000Y-775097D01*
X4500000Y-800000D01*
D12*
G04 #@! TO.C,H3*
X29224903Y-4000000D02*
G75*
G03*
X29224903Y-4000000I-3224903J0D01*
G01*
G36*
X26500000Y-800000D02*
G01*
X27500000Y-1100000D01*
X28300000Y-1700000D01*
X28800000Y-2400000D01*
X29100000Y-3100000D01*
X29200000Y-3500000D01*
X29200000Y-4000000D01*
X27600000Y-4000000D01*
X27600000Y-3900000D01*
X27500000Y-3500000D01*
X27300000Y-3100000D01*
X26900000Y-2700000D01*
X26500000Y-2500000D01*
X26100000Y-2400000D01*
X26000000Y-2400000D01*
X26000000Y-775097D01*
X26500000Y-800000D01*
G37*
D13*
X26500000Y-800000D02*
X27500000Y-1100000D01*
X28300000Y-1700000D01*
X28800000Y-2400000D01*
X29100000Y-3100000D01*
X29200000Y-3500000D01*
X29200000Y-4000000D01*
X27600000Y-4000000D01*
X27600000Y-3900000D01*
X27500000Y-3500000D01*
X27300000Y-3100000D01*
X26900000Y-2700000D01*
X26500000Y-2500000D01*
X26100000Y-2400000D01*
X26000000Y-2400000D01*
X26000000Y-775097D01*
X26500000Y-800000D01*
G36*
X24400000Y-4100000D02*
G01*
X24500000Y-4500000D01*
X24700000Y-4900000D01*
X25100000Y-5300000D01*
X25500000Y-5500000D01*
X25900000Y-5600000D01*
X26000000Y-5600000D01*
X26000000Y-7224903D01*
X25500000Y-7200000D01*
X24500000Y-6900000D01*
X23700000Y-6300000D01*
X23200000Y-5600000D01*
X22900000Y-4900000D01*
X22800000Y-4500000D01*
X22800000Y-4000000D01*
X24400000Y-4000000D01*
X24400000Y-4100000D01*
G37*
X24400000Y-4100000D02*
X24500000Y-4500000D01*
X24700000Y-4900000D01*
X25100000Y-5300000D01*
X25500000Y-5500000D01*
X25900000Y-5600000D01*
X26000000Y-5600000D01*
X26000000Y-7224903D01*
X25500000Y-7200000D01*
X24500000Y-6900000D01*
X23700000Y-6300000D01*
X23200000Y-5600000D01*
X22900000Y-4900000D01*
X22800000Y-4500000D01*
X22800000Y-4000000D01*
X24400000Y-4000000D01*
X24400000Y-4100000D01*
D12*
G04 #@! TO.C,H1*
X18224903Y-15000000D02*
G75*
G03*
X18224903Y-15000000I-3224903J0D01*
G01*
G36*
X15500000Y-11800000D02*
G01*
X16500000Y-12100000D01*
X17300000Y-12700000D01*
X17800000Y-13400000D01*
X18100000Y-14100000D01*
X18200000Y-14500000D01*
X18200000Y-15000000D01*
X16600000Y-15000000D01*
X16600000Y-14900000D01*
X16500000Y-14500000D01*
X16300000Y-14100000D01*
X15900000Y-13700000D01*
X15500000Y-13500000D01*
X15100000Y-13400000D01*
X15000000Y-13400000D01*
X15000000Y-11775097D01*
X15500000Y-11800000D01*
G37*
D13*
X15500000Y-11800000D02*
X16500000Y-12100000D01*
X17300000Y-12700000D01*
X17800000Y-13400000D01*
X18100000Y-14100000D01*
X18200000Y-14500000D01*
X18200000Y-15000000D01*
X16600000Y-15000000D01*
X16600000Y-14900000D01*
X16500000Y-14500000D01*
X16300000Y-14100000D01*
X15900000Y-13700000D01*
X15500000Y-13500000D01*
X15100000Y-13400000D01*
X15000000Y-13400000D01*
X15000000Y-11775097D01*
X15500000Y-11800000D01*
G36*
X13400000Y-15100000D02*
G01*
X13500000Y-15500000D01*
X13700000Y-15900000D01*
X14100000Y-16300000D01*
X14500000Y-16500000D01*
X14900000Y-16600000D01*
X15000000Y-16600000D01*
X15000000Y-18224903D01*
X14500000Y-18200000D01*
X13500000Y-17900000D01*
X12700000Y-17300000D01*
X12200000Y-16600000D01*
X11900000Y-15900000D01*
X11800000Y-15500000D01*
X11800000Y-15000000D01*
X13400000Y-15000000D01*
X13400000Y-15100000D01*
G37*
X13400000Y-15100000D02*
X13500000Y-15500000D01*
X13700000Y-15900000D01*
X14100000Y-16300000D01*
X14500000Y-16500000D01*
X14900000Y-16600000D01*
X15000000Y-16600000D01*
X15000000Y-18224903D01*
X14500000Y-18200000D01*
X13500000Y-17900000D01*
X12700000Y-17300000D01*
X12200000Y-16600000D01*
X11900000Y-15900000D01*
X11800000Y-15500000D01*
X11800000Y-15000000D01*
X13400000Y-15000000D01*
X13400000Y-15100000D01*
G04 #@! TO.C,kibuzzard-6239BEEF*
G36*
X12988892Y-5257612D02*
G01*
X13016938Y-5176437D01*
X13079088Y-5097142D01*
X13164575Y-5070710D01*
X13248871Y-5097142D01*
X13311260Y-5176437D01*
X13339835Y-5257612D01*
X13356980Y-5360164D01*
X13362695Y-5484095D01*
X13356980Y-5609084D01*
X13339835Y-5712272D01*
X13311260Y-5793658D01*
X13248871Y-5872953D01*
X13164575Y-5899385D01*
X13079088Y-5872953D01*
X13016938Y-5793658D01*
X12988892Y-5712272D01*
X12972064Y-5609084D01*
X12966455Y-5484095D01*
X12967317Y-5465045D01*
X13057895Y-5465045D01*
X13087422Y-5553628D01*
X13162670Y-5590775D01*
X13240775Y-5553628D01*
X13269350Y-5465045D01*
X13240775Y-5375510D01*
X13162670Y-5337410D01*
X13087422Y-5375510D01*
X13057895Y-5465045D01*
X12967317Y-5465045D01*
X12972064Y-5360164D01*
X12988892Y-5257612D01*
G37*
G36*
X14893892Y-5257612D02*
G01*
X14921937Y-5176437D01*
X14984088Y-5097142D01*
X15069575Y-5070710D01*
X15153871Y-5097142D01*
X15216260Y-5176437D01*
X15244835Y-5257612D01*
X15261980Y-5360164D01*
X15267695Y-5484095D01*
X15261980Y-5609084D01*
X15244835Y-5712272D01*
X15216260Y-5793658D01*
X15153871Y-5872953D01*
X15069575Y-5899385D01*
X14984088Y-5872953D01*
X14921937Y-5793658D01*
X14893892Y-5712272D01*
X14877064Y-5609084D01*
X14871455Y-5484095D01*
X14872317Y-5465045D01*
X14962895Y-5465045D01*
X14992422Y-5553628D01*
X15067670Y-5590775D01*
X15145775Y-5553628D01*
X15174350Y-5465045D01*
X15145775Y-5375510D01*
X15067670Y-5337410D01*
X14992422Y-5375510D01*
X14962895Y-5465045D01*
X14872317Y-5465045D01*
X14877064Y-5360164D01*
X14893892Y-5257612D01*
G37*
G36*
X20064776Y-6339440D02*
G01*
X10017224Y-6339440D01*
X10017224Y-6076550D01*
X10861430Y-6076550D01*
X11577710Y-6076550D01*
X11808215Y-6076550D01*
X12577835Y-6076550D01*
X12582597Y-6028925D01*
X12581645Y-5988920D01*
X12572834Y-5897480D01*
X12546402Y-5813660D01*
X12506397Y-5736746D01*
X12456867Y-5666023D01*
X12400670Y-5600776D01*
X12340662Y-5540293D01*
X12281408Y-5484095D01*
X12755000Y-5484095D01*
X12761548Y-5630304D01*
X12781194Y-5756510D01*
X12813936Y-5862714D01*
X12859775Y-5948915D01*
X12940208Y-6033582D01*
X13041808Y-6084382D01*
X13164575Y-6101315D01*
X13287342Y-6084382D01*
X13303006Y-6076550D01*
X13718930Y-6076550D01*
X14435210Y-6076550D01*
X14435210Y-5882240D01*
X14187560Y-5882240D01*
X14187560Y-5484095D01*
X14660000Y-5484095D01*
X14666548Y-5630304D01*
X14686194Y-5756510D01*
X14718936Y-5862714D01*
X14764775Y-5948915D01*
X14845208Y-6033582D01*
X14946808Y-6084382D01*
X15069575Y-6101315D01*
X15192342Y-6084382D01*
X15293942Y-6033582D01*
X15374375Y-5948915D01*
X15420214Y-5862714D01*
X15452956Y-5756510D01*
X15472602Y-5630304D01*
X15479150Y-5484095D01*
X15612500Y-5484095D01*
X15619048Y-5630304D01*
X15638694Y-5756510D01*
X15671436Y-5862714D01*
X15717275Y-5948915D01*
X15797708Y-6033582D01*
X15899308Y-6084382D01*
X16022075Y-6101315D01*
X16144842Y-6084382D01*
X16246442Y-6033582D01*
X16259915Y-6019400D01*
X16557380Y-6019400D01*
X16691683Y-6075598D01*
X16782884Y-6094886D01*
X16886945Y-6101315D01*
X17040192Y-6083535D01*
X17056823Y-6076550D01*
X17527025Y-6076550D01*
X18283310Y-6076550D01*
X18479525Y-6076550D01*
X19220570Y-6076550D01*
X19220570Y-4897355D01*
X18984350Y-4897355D01*
X18984350Y-5882240D01*
X18479525Y-5882240D01*
X18479525Y-6076550D01*
X18283310Y-6076550D01*
X18283310Y-4897355D01*
X17568935Y-4897355D01*
X17568935Y-5091665D01*
X18048995Y-5091665D01*
X18048995Y-5356460D01*
X17631800Y-5356460D01*
X17631800Y-5550770D01*
X18048995Y-5550770D01*
X18048995Y-5882240D01*
X17527025Y-5882240D01*
X17527025Y-6076550D01*
X17056823Y-6076550D01*
X17167192Y-6030195D01*
X17267945Y-5941295D01*
X17325452Y-5852832D01*
X17366529Y-5747461D01*
X17391175Y-5625184D01*
X17399390Y-5486000D01*
X17389389Y-5347411D01*
X17359385Y-5225015D01*
X17311522Y-5119526D01*
X17247943Y-5031657D01*
X17169838Y-4962125D01*
X17078398Y-4911642D01*
X16975766Y-4880924D01*
X16864085Y-4870685D01*
X16750738Y-4881162D01*
X16662155Y-4904975D01*
X16598338Y-4933550D01*
X16559285Y-4956410D01*
X16620245Y-5143100D01*
X16725973Y-5094522D01*
X16867895Y-5074520D01*
X16975528Y-5094522D01*
X17068873Y-5161197D01*
X17135548Y-5285975D01*
X17154836Y-5373605D01*
X17161265Y-5480285D01*
X17153539Y-5604428D01*
X17130362Y-5707615D01*
X17091733Y-5789848D01*
X17000054Y-5870572D01*
X16864085Y-5897480D01*
X16712638Y-5876525D01*
X16616435Y-5834615D01*
X16557380Y-6019400D01*
X16259915Y-6019400D01*
X16326875Y-5948915D01*
X16372714Y-5862714D01*
X16405456Y-5756510D01*
X16425102Y-5630304D01*
X16431650Y-5484095D01*
X16424983Y-5339553D01*
X16404980Y-5214537D01*
X16371643Y-5109048D01*
X16324970Y-5023085D01*
X16243902Y-4938418D01*
X16142937Y-4887618D01*
X16022075Y-4870685D01*
X15899308Y-4887512D01*
X15797708Y-4937995D01*
X15717275Y-5022132D01*
X15671436Y-5107798D01*
X15638694Y-5213347D01*
X15619048Y-5338779D01*
X15612500Y-5484095D01*
X15479150Y-5484095D01*
X15472483Y-5339553D01*
X15452480Y-5214537D01*
X15419143Y-5109048D01*
X15372470Y-5023085D01*
X15291402Y-4938418D01*
X15190437Y-4887618D01*
X15069575Y-4870685D01*
X14946808Y-4887512D01*
X14845208Y-4937995D01*
X14764775Y-5022132D01*
X14718936Y-5107798D01*
X14686194Y-5213347D01*
X14666548Y-5338779D01*
X14660000Y-5484095D01*
X14187560Y-5484095D01*
X14187560Y-5223110D01*
X14309480Y-5290737D01*
X14425685Y-5337410D01*
X14501885Y-5143100D01*
X14402825Y-5099285D01*
X14296145Y-5040230D01*
X14195180Y-4971650D01*
X14113265Y-4897355D01*
X13953245Y-4897355D01*
X13953245Y-5882240D01*
X13718930Y-5882240D01*
X13718930Y-6076550D01*
X13303006Y-6076550D01*
X13388942Y-6033582D01*
X13469375Y-5948915D01*
X13515214Y-5862714D01*
X13547956Y-5756510D01*
X13567602Y-5630304D01*
X13574150Y-5484095D01*
X13567482Y-5339553D01*
X13547480Y-5214537D01*
X13514142Y-5109048D01*
X13467470Y-5023085D01*
X13386402Y-4938418D01*
X13285437Y-4887618D01*
X13164575Y-4870685D01*
X13041808Y-4887512D01*
X12940208Y-4937995D01*
X12859775Y-5022132D01*
X12813936Y-5107798D01*
X12781194Y-5213347D01*
X12761548Y-5338779D01*
X12755000Y-5484095D01*
X12281408Y-5484095D01*
X12280655Y-5483381D01*
X12224457Y-5428850D01*
X12134922Y-5325980D01*
X12099680Y-5225015D01*
X12143495Y-5113572D01*
X12253985Y-5074520D01*
X12370190Y-5101190D01*
X12490205Y-5190725D01*
X12606410Y-5026895D01*
X12524257Y-4957362D01*
X12430197Y-4908785D01*
X12330423Y-4880210D01*
X12231125Y-4870685D01*
X12092060Y-4891640D01*
X11973950Y-4954505D01*
X11892035Y-5060232D01*
X11861555Y-5207870D01*
X11884415Y-5325027D01*
X11945375Y-5434565D01*
X12031100Y-5537435D01*
X12128255Y-5632685D01*
X12185405Y-5686978D01*
X12246365Y-5751748D01*
X12294942Y-5819375D01*
X12314945Y-5882240D01*
X11808215Y-5882240D01*
X11808215Y-6076550D01*
X11577710Y-6076550D01*
X11577710Y-5882240D01*
X11330060Y-5882240D01*
X11330060Y-5223110D01*
X11451980Y-5290737D01*
X11568185Y-5337410D01*
X11644385Y-5143100D01*
X11545325Y-5099285D01*
X11438645Y-5040230D01*
X11337680Y-4971650D01*
X11255765Y-4897355D01*
X11095745Y-4897355D01*
X11095745Y-5882240D01*
X10861430Y-5882240D01*
X10861430Y-6076550D01*
X10017224Y-6076550D01*
X10017224Y-4632560D01*
X20064776Y-4632560D01*
X20064776Y-6339440D01*
G37*
G36*
X15846392Y-5257612D02*
G01*
X15874438Y-5176437D01*
X15936588Y-5097142D01*
X16022075Y-5070710D01*
X16106371Y-5097142D01*
X16168760Y-5176437D01*
X16197335Y-5257612D01*
X16214480Y-5360164D01*
X16220195Y-5484095D01*
X16214480Y-5609084D01*
X16197335Y-5712272D01*
X16168760Y-5793658D01*
X16106371Y-5872953D01*
X16022075Y-5899385D01*
X15936588Y-5872953D01*
X15874438Y-5793658D01*
X15846392Y-5712272D01*
X15829564Y-5609084D01*
X15823955Y-5484095D01*
X15824817Y-5465045D01*
X15915395Y-5465045D01*
X15944923Y-5553628D01*
X16020170Y-5590775D01*
X16098275Y-5553628D01*
X16126850Y-5465045D01*
X16098275Y-5375510D01*
X16020170Y-5337410D01*
X15944923Y-5375510D01*
X15915395Y-5465045D01*
X15824817Y-5465045D01*
X15829564Y-5360164D01*
X15846392Y-5257612D01*
G37*
G04 #@! TO.C,REF\u002A\u002A*
G36*
X24815662Y-16327696D02*
G01*
X24855314Y-16328782D01*
X24923109Y-16328782D01*
X24923109Y-16441951D01*
X24763577Y-16441951D01*
X24748682Y-16619732D01*
X24746682Y-16644037D01*
X24742023Y-16704880D01*
X24738731Y-16754389D01*
X24737092Y-16787992D01*
X24737390Y-16801116D01*
X24741724Y-16797343D01*
X24761496Y-16777676D01*
X24795679Y-16742818D01*
X24842541Y-16694576D01*
X24900354Y-16634757D01*
X24967387Y-16565167D01*
X25041912Y-16487615D01*
X25122197Y-16403907D01*
X25206513Y-16315849D01*
X25293130Y-16225250D01*
X25380319Y-16133915D01*
X25466349Y-16043653D01*
X25549492Y-15956269D01*
X25628016Y-15873572D01*
X25700192Y-15797368D01*
X25764291Y-15729463D01*
X25818583Y-15671666D01*
X25915592Y-15568040D01*
X25916034Y-15656315D01*
X25916475Y-15744589D01*
X25315938Y-16376158D01*
X24715401Y-17007726D01*
X24703396Y-17151674D01*
X24655365Y-17727635D01*
X24646876Y-17829791D01*
X24636343Y-17957612D01*
X24626621Y-18076767D01*
X24617898Y-18184914D01*
X24610358Y-18279713D01*
X24604187Y-18358819D01*
X24599573Y-18419892D01*
X24596700Y-18460590D01*
X24595754Y-18478570D01*
X24598251Y-18486808D01*
X24609471Y-18504599D01*
X24630751Y-18531411D01*
X24641021Y-18543129D01*
X24663225Y-18568466D01*
X24708023Y-18616986D01*
X24766281Y-18678192D01*
X24839129Y-18753307D01*
X24927703Y-18843550D01*
X25033134Y-18950145D01*
X25102492Y-19020093D01*
X25199179Y-19117658D01*
X25295526Y-19214941D01*
X25388638Y-19309014D01*
X25475618Y-19396950D01*
X25553569Y-19475820D01*
X25619596Y-19542699D01*
X25670802Y-19594658D01*
X25871514Y-19798620D01*
X25835058Y-19836671D01*
X25826460Y-19845245D01*
X25801095Y-19866297D01*
X25783695Y-19874723D01*
X25770071Y-19867530D01*
X25744743Y-19845944D01*
X25714379Y-19814995D01*
X25695896Y-19795448D01*
X25661427Y-19759752D01*
X25612712Y-19709684D01*
X25551469Y-19647001D01*
X25479420Y-19573457D01*
X25398285Y-19490810D01*
X25309784Y-19400815D01*
X25215637Y-19305228D01*
X25117565Y-19205805D01*
X24575161Y-18656343D01*
X24553066Y-18941746D01*
X24548250Y-19002662D01*
X24541216Y-19084548D01*
X24534872Y-19146569D01*
X24528748Y-19191987D01*
X24522373Y-19224062D01*
X24515277Y-19246052D01*
X24506991Y-19261219D01*
X24495393Y-19282416D01*
X24485850Y-19321386D01*
X24483010Y-19377531D01*
X24483010Y-19459773D01*
X24256674Y-19459773D01*
X24256674Y-19283733D01*
X23411082Y-19283733D01*
X23362203Y-19339262D01*
X23348836Y-19353722D01*
X23276388Y-19411813D01*
X23194532Y-19447576D01*
X23105900Y-19459773D01*
X23027692Y-19453306D01*
X22939233Y-19426047D01*
X22863507Y-19377328D01*
X22848748Y-19363403D01*
X22811864Y-19318328D01*
X22779503Y-19265819D01*
X22756297Y-19214061D01*
X22746879Y-19171239D01*
X22746697Y-19165023D01*
X22745342Y-19142246D01*
X22741800Y-19126513D01*
X22734390Y-19119068D01*
X22721431Y-19121156D01*
X22701243Y-19134020D01*
X22672145Y-19158905D01*
X22632456Y-19197053D01*
X22580496Y-19249710D01*
X22514584Y-19318119D01*
X22433040Y-19403524D01*
X22389604Y-19449112D01*
X22317000Y-19525441D01*
X22248309Y-19597808D01*
X22186223Y-19663366D01*
X22133434Y-19719274D01*
X22092634Y-19762686D01*
X22066515Y-19790758D01*
X21995119Y-19868436D01*
X21906863Y-19780416D01*
X22452690Y-19208287D01*
X22487105Y-19172188D01*
X22609546Y-19043272D01*
X22714651Y-18931754D01*
X22802736Y-18837288D01*
X22874116Y-18759529D01*
X22924588Y-18703174D01*
X23131247Y-18703174D01*
X23132872Y-18716434D01*
X23133156Y-18717819D01*
X23146698Y-18749228D01*
X23173748Y-18763863D01*
X23257129Y-18795063D01*
X23331418Y-18847038D01*
X23389846Y-18915791D01*
X23429890Y-18998315D01*
X23449026Y-19091606D01*
X23455364Y-19170565D01*
X24404838Y-19170565D01*
X24411458Y-19142273D01*
X24412629Y-19135329D01*
X24416268Y-19104281D01*
X24421234Y-19054081D01*
X24427157Y-18988727D01*
X24433669Y-18912219D01*
X24440401Y-18828555D01*
X24462724Y-18543129D01*
X24161826Y-18237565D01*
X24106636Y-18181704D01*
X24039109Y-18113888D01*
X23978529Y-18053643D01*
X23927021Y-18003052D01*
X23886710Y-17964200D01*
X23859722Y-17939170D01*
X23848182Y-17930046D01*
X23840444Y-17934405D01*
X23817395Y-17954241D01*
X23782709Y-17987375D01*
X23739487Y-18030820D01*
X23690832Y-18081587D01*
X23678140Y-18095051D01*
X23621229Y-18155275D01*
X23553414Y-18226864D01*
X23479800Y-18304437D01*
X23405493Y-18382611D01*
X23335599Y-18456005D01*
X23331401Y-18460409D01*
X23266420Y-18528785D01*
X23216836Y-18581732D01*
X23180688Y-18621767D01*
X23156016Y-18651411D01*
X23140858Y-18673181D01*
X23133256Y-18689595D01*
X23131247Y-18703174D01*
X22924588Y-18703174D01*
X22929105Y-18698131D01*
X22968019Y-18652748D01*
X22991173Y-18623035D01*
X22998882Y-18608644D01*
X22998883Y-18608559D01*
X22997825Y-18590624D01*
X22994737Y-18550421D01*
X22989858Y-18490687D01*
X22983432Y-18414158D01*
X22975700Y-18323569D01*
X22966905Y-18221657D01*
X22957287Y-18111159D01*
X22947091Y-17994811D01*
X22936556Y-17875348D01*
X22925926Y-17755507D01*
X22915442Y-17638025D01*
X22905346Y-17525637D01*
X22895881Y-17421081D01*
X22887288Y-17327091D01*
X22879809Y-17246405D01*
X22873687Y-17181759D01*
X22869162Y-17135888D01*
X22866478Y-17111530D01*
X22861067Y-17070732D01*
X22990253Y-17070732D01*
X22991908Y-17101653D01*
X22995549Y-17153653D01*
X23000995Y-17224487D01*
X23008063Y-17311911D01*
X23016570Y-17413681D01*
X23026335Y-17527552D01*
X23037174Y-17651279D01*
X23048907Y-17782618D01*
X23058079Y-17883908D01*
X23069566Y-18009526D01*
X23080322Y-18125762D01*
X23090131Y-18230380D01*
X23098781Y-18321140D01*
X23106057Y-18395804D01*
X23111746Y-18452134D01*
X23115634Y-18487891D01*
X23117506Y-18500837D01*
X23123188Y-18496826D01*
X23144020Y-18477138D01*
X23177872Y-18443322D01*
X23222412Y-18397837D01*
X23275310Y-18343146D01*
X23334236Y-18281710D01*
X23396858Y-18215990D01*
X23460848Y-18148449D01*
X23523874Y-18081547D01*
X23583606Y-18017746D01*
X23637713Y-17959507D01*
X23683865Y-17909292D01*
X23719733Y-17869563D01*
X23742984Y-17842780D01*
X23749778Y-17833477D01*
X23931601Y-17833477D01*
X24207305Y-18108968D01*
X24274726Y-18176224D01*
X24338267Y-18239162D01*
X24387490Y-18287100D01*
X24424196Y-18321594D01*
X24450190Y-18344199D01*
X24467276Y-18356471D01*
X24477256Y-18359966D01*
X24481935Y-18356238D01*
X24483116Y-18346844D01*
X24483873Y-18331749D01*
X24486601Y-18292883D01*
X24491108Y-18233895D01*
X24497179Y-18157473D01*
X24504596Y-18066305D01*
X24513142Y-17963080D01*
X24522602Y-17850483D01*
X24532758Y-17731205D01*
X24541723Y-17626077D01*
X24551066Y-17515351D01*
X24559443Y-17414814D01*
X24566653Y-17326943D01*
X24572496Y-17254215D01*
X24576769Y-17199110D01*
X24579273Y-17164104D01*
X24579805Y-17151674D01*
X24579384Y-17151908D01*
X24567509Y-17163350D01*
X24541130Y-17190198D01*
X24502570Y-17230018D01*
X24454153Y-17280372D01*
X24398203Y-17338828D01*
X24337042Y-17402948D01*
X24272995Y-17470298D01*
X24208385Y-17538443D01*
X24145535Y-17604948D01*
X24086768Y-17667377D01*
X24034409Y-17723295D01*
X23933533Y-17831406D01*
X23931601Y-17833477D01*
X23749778Y-17833477D01*
X23751290Y-17831406D01*
X23743148Y-17820383D01*
X23719478Y-17793999D01*
X23682478Y-17754527D01*
X23634350Y-17704191D01*
X23577296Y-17645217D01*
X23513520Y-17579830D01*
X23445222Y-17510255D01*
X23374605Y-17438716D01*
X23303871Y-17367438D01*
X23235222Y-17298647D01*
X23170861Y-17234566D01*
X23112989Y-17177422D01*
X23063810Y-17129439D01*
X23025524Y-17092841D01*
X23000334Y-17069854D01*
X22990442Y-17062703D01*
X22990253Y-17070732D01*
X22861067Y-17070732D01*
X22859390Y-17058089D01*
X22584297Y-17058089D01*
X22584140Y-16957495D01*
X22684891Y-16957495D01*
X22766624Y-16957495D01*
X22773895Y-16957489D01*
X22814950Y-16956613D01*
X22837277Y-16952867D01*
X22846529Y-16944270D01*
X22848357Y-16928840D01*
X22840306Y-16906159D01*
X22812730Y-16868428D01*
X22766624Y-16819179D01*
X22684891Y-16738172D01*
X22684891Y-16957495D01*
X22584140Y-16957495D01*
X22583968Y-16847471D01*
X22583639Y-16636852D01*
X22131914Y-16177891D01*
X21680189Y-15718931D01*
X21679570Y-15631848D01*
X21678951Y-15544767D01*
X22220769Y-16093952D01*
X22273137Y-16146998D01*
X22381803Y-16256772D01*
X22474709Y-16350114D01*
X22553055Y-16428173D01*
X22618043Y-16492097D01*
X22670872Y-16543035D01*
X22712743Y-16582135D01*
X22744855Y-16610548D01*
X22768410Y-16629420D01*
X22784608Y-16639901D01*
X22794649Y-16643139D01*
X22811579Y-16642158D01*
X22821084Y-16634996D01*
X22822723Y-16615401D01*
X22818782Y-16577124D01*
X22816065Y-16553025D01*
X22812284Y-16512744D01*
X22810760Y-16485961D01*
X22810015Y-16476728D01*
X22802746Y-16466839D01*
X22782668Y-16463562D01*
X22743689Y-16464992D01*
X22733737Y-16465553D01*
X22693898Y-16464921D01*
X22665560Y-16456167D01*
X22645586Y-16441951D01*
X22928852Y-16441951D01*
X22933013Y-16489104D01*
X22934935Y-16510498D01*
X22940924Y-16568909D01*
X22946826Y-16607381D01*
X22953727Y-16629912D01*
X22962712Y-16640498D01*
X22974870Y-16643139D01*
X22985801Y-16644937D01*
X22993050Y-16653530D01*
X22997100Y-16673505D01*
X22998863Y-16709450D01*
X22999248Y-16765952D01*
X22999248Y-16888766D01*
X23039447Y-16928840D01*
X23137565Y-17026654D01*
X23275881Y-17164542D01*
X23275881Y-17058089D01*
X24030337Y-17058089D01*
X24030337Y-17297000D01*
X23411831Y-17297000D01*
X23621592Y-17513906D01*
X23661770Y-17555334D01*
X23717328Y-17612200D01*
X23765570Y-17661082D01*
X23803971Y-17699441D01*
X23830003Y-17724741D01*
X23841140Y-17734442D01*
X23845373Y-17731767D01*
X23865224Y-17713782D01*
X23899451Y-17680481D01*
X23946227Y-17633712D01*
X24003724Y-17575325D01*
X24070112Y-17507169D01*
X24143564Y-17431094D01*
X24222251Y-17348950D01*
X24301341Y-17265943D01*
X24378871Y-17184136D01*
X24441746Y-17117083D01*
X24491502Y-17063007D01*
X24529678Y-17020129D01*
X24557811Y-16986673D01*
X24577440Y-16960861D01*
X24590101Y-16940914D01*
X24597334Y-16925056D01*
X24600675Y-16911509D01*
X24601561Y-16904910D01*
X24605488Y-16868548D01*
X24610459Y-16815018D01*
X24615927Y-16750421D01*
X24621344Y-16680862D01*
X24623181Y-16656635D01*
X24628488Y-16591178D01*
X24633548Y-16534717D01*
X24637863Y-16492618D01*
X24640934Y-16470243D01*
X24646955Y-16441951D01*
X22928852Y-16441951D01*
X22645586Y-16441951D01*
X22637630Y-16436289D01*
X22632820Y-16432104D01*
X22593482Y-16381427D01*
X22577903Y-16328782D01*
X22918698Y-16328782D01*
X24333221Y-16328782D01*
X24545881Y-16328782D01*
X24602908Y-16328782D01*
X24619993Y-16328662D01*
X24645308Y-16326462D01*
X24652616Y-16319334D01*
X24646943Y-16304508D01*
X24645267Y-16301682D01*
X24626448Y-16279944D01*
X24599183Y-16255820D01*
X24571987Y-16236254D01*
X24553371Y-16228188D01*
X24551697Y-16229463D01*
X24547544Y-16246976D01*
X24545881Y-16278485D01*
X24545881Y-16328782D01*
X24333221Y-16328782D01*
X24329526Y-16238095D01*
X24325832Y-16147407D01*
X24250386Y-16132252D01*
X24212551Y-16125379D01*
X24149368Y-16115756D01*
X24090065Y-16108496D01*
X24005188Y-16099893D01*
X24005188Y-16203040D01*
X23426773Y-16203040D01*
X23426773Y-16112122D01*
X23354471Y-16120753D01*
X23243998Y-16139249D01*
X23132816Y-16172691D01*
X23040850Y-16219324D01*
X22966542Y-16279786D01*
X22918698Y-16328782D01*
X22577903Y-16328782D01*
X22576172Y-16322934D01*
X22581474Y-16261575D01*
X22609975Y-16202297D01*
X22612733Y-16198606D01*
X22650822Y-16166851D01*
X22700476Y-16148067D01*
X22754002Y-16143071D01*
X22803707Y-16152678D01*
X22841900Y-16177704D01*
X22854831Y-16190480D01*
X22867428Y-16193576D01*
X22885467Y-16183998D01*
X22915928Y-16160082D01*
X22925274Y-16152731D01*
X22997430Y-16106339D01*
X23082915Y-16065084D01*
X23152830Y-16039575D01*
X23527367Y-16039575D01*
X23527367Y-16102446D01*
X23904594Y-16102446D01*
X23904594Y-16039575D01*
X23527367Y-16039575D01*
X23152830Y-16039575D01*
X23173767Y-16031936D01*
X23262027Y-16009868D01*
X23339736Y-16001852D01*
X23347991Y-16001788D01*
X23393879Y-15997321D01*
X23419079Y-15984795D01*
X23426773Y-15962784D01*
X23427676Y-15955849D01*
X23432615Y-15949885D01*
X23444611Y-15945519D01*
X23466680Y-15942503D01*
X23501836Y-15940590D01*
X23553094Y-15939530D01*
X23623471Y-15939077D01*
X23715980Y-15938980D01*
X23802660Y-15939150D01*
X23876332Y-15939834D01*
X23930265Y-15941215D01*
X23967288Y-15943470D01*
X23990230Y-15946778D01*
X24001920Y-15951320D01*
X24005188Y-15957272D01*
X24015937Y-15971888D01*
X24046055Y-15981215D01*
X24057582Y-15982847D01*
X24096886Y-15988591D01*
X24149188Y-15996378D01*
X24206376Y-16005003D01*
X24237916Y-16009393D01*
X24284074Y-16014148D01*
X24316641Y-16015295D01*
X24330023Y-16012495D01*
X24332308Y-16010671D01*
X24353405Y-16006165D01*
X24391355Y-16003029D01*
X24440048Y-16001852D01*
X24545881Y-16001852D01*
X24545894Y-16039575D01*
X24545894Y-16042718D01*
X24546388Y-16055668D01*
X24552819Y-16077411D01*
X24571123Y-16095851D01*
X24606830Y-16117801D01*
X24638174Y-16137854D01*
X24685893Y-16176356D01*
X24729138Y-16219579D01*
X24762219Y-16261627D01*
X24779442Y-16296604D01*
X24783662Y-16310081D01*
X24791480Y-16319334D01*
X24794116Y-16322454D01*
X24815662Y-16327696D01*
G37*
X24815662Y-16327696D02*
X24855314Y-16328782D01*
X24923109Y-16328782D01*
X24923109Y-16441951D01*
X24763577Y-16441951D01*
X24748682Y-16619732D01*
X24746682Y-16644037D01*
X24742023Y-16704880D01*
X24738731Y-16754389D01*
X24737092Y-16787992D01*
X24737390Y-16801116D01*
X24741724Y-16797343D01*
X24761496Y-16777676D01*
X24795679Y-16742818D01*
X24842541Y-16694576D01*
X24900354Y-16634757D01*
X24967387Y-16565167D01*
X25041912Y-16487615D01*
X25122197Y-16403907D01*
X25206513Y-16315849D01*
X25293130Y-16225250D01*
X25380319Y-16133915D01*
X25466349Y-16043653D01*
X25549492Y-15956269D01*
X25628016Y-15873572D01*
X25700192Y-15797368D01*
X25764291Y-15729463D01*
X25818583Y-15671666D01*
X25915592Y-15568040D01*
X25916034Y-15656315D01*
X25916475Y-15744589D01*
X25315938Y-16376158D01*
X24715401Y-17007726D01*
X24703396Y-17151674D01*
X24655365Y-17727635D01*
X24646876Y-17829791D01*
X24636343Y-17957612D01*
X24626621Y-18076767D01*
X24617898Y-18184914D01*
X24610358Y-18279713D01*
X24604187Y-18358819D01*
X24599573Y-18419892D01*
X24596700Y-18460590D01*
X24595754Y-18478570D01*
X24598251Y-18486808D01*
X24609471Y-18504599D01*
X24630751Y-18531411D01*
X24641021Y-18543129D01*
X24663225Y-18568466D01*
X24708023Y-18616986D01*
X24766281Y-18678192D01*
X24839129Y-18753307D01*
X24927703Y-18843550D01*
X25033134Y-18950145D01*
X25102492Y-19020093D01*
X25199179Y-19117658D01*
X25295526Y-19214941D01*
X25388638Y-19309014D01*
X25475618Y-19396950D01*
X25553569Y-19475820D01*
X25619596Y-19542699D01*
X25670802Y-19594658D01*
X25871514Y-19798620D01*
X25835058Y-19836671D01*
X25826460Y-19845245D01*
X25801095Y-19866297D01*
X25783695Y-19874723D01*
X25770071Y-19867530D01*
X25744743Y-19845944D01*
X25714379Y-19814995D01*
X25695896Y-19795448D01*
X25661427Y-19759752D01*
X25612712Y-19709684D01*
X25551469Y-19647001D01*
X25479420Y-19573457D01*
X25398285Y-19490810D01*
X25309784Y-19400815D01*
X25215637Y-19305228D01*
X25117565Y-19205805D01*
X24575161Y-18656343D01*
X24553066Y-18941746D01*
X24548250Y-19002662D01*
X24541216Y-19084548D01*
X24534872Y-19146569D01*
X24528748Y-19191987D01*
X24522373Y-19224062D01*
X24515277Y-19246052D01*
X24506991Y-19261219D01*
X24495393Y-19282416D01*
X24485850Y-19321386D01*
X24483010Y-19377531D01*
X24483010Y-19459773D01*
X24256674Y-19459773D01*
X24256674Y-19283733D01*
X23411082Y-19283733D01*
X23362203Y-19339262D01*
X23348836Y-19353722D01*
X23276388Y-19411813D01*
X23194532Y-19447576D01*
X23105900Y-19459773D01*
X23027692Y-19453306D01*
X22939233Y-19426047D01*
X22863507Y-19377328D01*
X22848748Y-19363403D01*
X22811864Y-19318328D01*
X22779503Y-19265819D01*
X22756297Y-19214061D01*
X22746879Y-19171239D01*
X22746697Y-19165023D01*
X22745342Y-19142246D01*
X22741800Y-19126513D01*
X22734390Y-19119068D01*
X22721431Y-19121156D01*
X22701243Y-19134020D01*
X22672145Y-19158905D01*
X22632456Y-19197053D01*
X22580496Y-19249710D01*
X22514584Y-19318119D01*
X22433040Y-19403524D01*
X22389604Y-19449112D01*
X22317000Y-19525441D01*
X22248309Y-19597808D01*
X22186223Y-19663366D01*
X22133434Y-19719274D01*
X22092634Y-19762686D01*
X22066515Y-19790758D01*
X21995119Y-19868436D01*
X21906863Y-19780416D01*
X22452690Y-19208287D01*
X22487105Y-19172188D01*
X22609546Y-19043272D01*
X22714651Y-18931754D01*
X22802736Y-18837288D01*
X22874116Y-18759529D01*
X22924588Y-18703174D01*
X23131247Y-18703174D01*
X23132872Y-18716434D01*
X23133156Y-18717819D01*
X23146698Y-18749228D01*
X23173748Y-18763863D01*
X23257129Y-18795063D01*
X23331418Y-18847038D01*
X23389846Y-18915791D01*
X23429890Y-18998315D01*
X23449026Y-19091606D01*
X23455364Y-19170565D01*
X24404838Y-19170565D01*
X24411458Y-19142273D01*
X24412629Y-19135329D01*
X24416268Y-19104281D01*
X24421234Y-19054081D01*
X24427157Y-18988727D01*
X24433669Y-18912219D01*
X24440401Y-18828555D01*
X24462724Y-18543129D01*
X24161826Y-18237565D01*
X24106636Y-18181704D01*
X24039109Y-18113888D01*
X23978529Y-18053643D01*
X23927021Y-18003052D01*
X23886710Y-17964200D01*
X23859722Y-17939170D01*
X23848182Y-17930046D01*
X23840444Y-17934405D01*
X23817395Y-17954241D01*
X23782709Y-17987375D01*
X23739487Y-18030820D01*
X23690832Y-18081587D01*
X23678140Y-18095051D01*
X23621229Y-18155275D01*
X23553414Y-18226864D01*
X23479800Y-18304437D01*
X23405493Y-18382611D01*
X23335599Y-18456005D01*
X23331401Y-18460409D01*
X23266420Y-18528785D01*
X23216836Y-18581732D01*
X23180688Y-18621767D01*
X23156016Y-18651411D01*
X23140858Y-18673181D01*
X23133256Y-18689595D01*
X23131247Y-18703174D01*
X22924588Y-18703174D01*
X22929105Y-18698131D01*
X22968019Y-18652748D01*
X22991173Y-18623035D01*
X22998882Y-18608644D01*
X22998883Y-18608559D01*
X22997825Y-18590624D01*
X22994737Y-18550421D01*
X22989858Y-18490687D01*
X22983432Y-18414158D01*
X22975700Y-18323569D01*
X22966905Y-18221657D01*
X22957287Y-18111159D01*
X22947091Y-17994811D01*
X22936556Y-17875348D01*
X22925926Y-17755507D01*
X22915442Y-17638025D01*
X22905346Y-17525637D01*
X22895881Y-17421081D01*
X22887288Y-17327091D01*
X22879809Y-17246405D01*
X22873687Y-17181759D01*
X22869162Y-17135888D01*
X22866478Y-17111530D01*
X22861067Y-17070732D01*
X22990253Y-17070732D01*
X22991908Y-17101653D01*
X22995549Y-17153653D01*
X23000995Y-17224487D01*
X23008063Y-17311911D01*
X23016570Y-17413681D01*
X23026335Y-17527552D01*
X23037174Y-17651279D01*
X23048907Y-17782618D01*
X23058079Y-17883908D01*
X23069566Y-18009526D01*
X23080322Y-18125762D01*
X23090131Y-18230380D01*
X23098781Y-18321140D01*
X23106057Y-18395804D01*
X23111746Y-18452134D01*
X23115634Y-18487891D01*
X23117506Y-18500837D01*
X23123188Y-18496826D01*
X23144020Y-18477138D01*
X23177872Y-18443322D01*
X23222412Y-18397837D01*
X23275310Y-18343146D01*
X23334236Y-18281710D01*
X23396858Y-18215990D01*
X23460848Y-18148449D01*
X23523874Y-18081547D01*
X23583606Y-18017746D01*
X23637713Y-17959507D01*
X23683865Y-17909292D01*
X23719733Y-17869563D01*
X23742984Y-17842780D01*
X23749778Y-17833477D01*
X23931601Y-17833477D01*
X24207305Y-18108968D01*
X24274726Y-18176224D01*
X24338267Y-18239162D01*
X24387490Y-18287100D01*
X24424196Y-18321594D01*
X24450190Y-18344199D01*
X24467276Y-18356471D01*
X24477256Y-18359966D01*
X24481935Y-18356238D01*
X24483116Y-18346844D01*
X24483873Y-18331749D01*
X24486601Y-18292883D01*
X24491108Y-18233895D01*
X24497179Y-18157473D01*
X24504596Y-18066305D01*
X24513142Y-17963080D01*
X24522602Y-17850483D01*
X24532758Y-17731205D01*
X24541723Y-17626077D01*
X24551066Y-17515351D01*
X24559443Y-17414814D01*
X24566653Y-17326943D01*
X24572496Y-17254215D01*
X24576769Y-17199110D01*
X24579273Y-17164104D01*
X24579805Y-17151674D01*
X24579384Y-17151908D01*
X24567509Y-17163350D01*
X24541130Y-17190198D01*
X24502570Y-17230018D01*
X24454153Y-17280372D01*
X24398203Y-17338828D01*
X24337042Y-17402948D01*
X24272995Y-17470298D01*
X24208385Y-17538443D01*
X24145535Y-17604948D01*
X24086768Y-17667377D01*
X24034409Y-17723295D01*
X23933533Y-17831406D01*
X23931601Y-17833477D01*
X23749778Y-17833477D01*
X23751290Y-17831406D01*
X23743148Y-17820383D01*
X23719478Y-17793999D01*
X23682478Y-17754527D01*
X23634350Y-17704191D01*
X23577296Y-17645217D01*
X23513520Y-17579830D01*
X23445222Y-17510255D01*
X23374605Y-17438716D01*
X23303871Y-17367438D01*
X23235222Y-17298647D01*
X23170861Y-17234566D01*
X23112989Y-17177422D01*
X23063810Y-17129439D01*
X23025524Y-17092841D01*
X23000334Y-17069854D01*
X22990442Y-17062703D01*
X22990253Y-17070732D01*
X22861067Y-17070732D01*
X22859390Y-17058089D01*
X22584297Y-17058089D01*
X22584140Y-16957495D01*
X22684891Y-16957495D01*
X22766624Y-16957495D01*
X22773895Y-16957489D01*
X22814950Y-16956613D01*
X22837277Y-16952867D01*
X22846529Y-16944270D01*
X22848357Y-16928840D01*
X22840306Y-16906159D01*
X22812730Y-16868428D01*
X22766624Y-16819179D01*
X22684891Y-16738172D01*
X22684891Y-16957495D01*
X22584140Y-16957495D01*
X22583968Y-16847471D01*
X22583639Y-16636852D01*
X22131914Y-16177891D01*
X21680189Y-15718931D01*
X21679570Y-15631848D01*
X21678951Y-15544767D01*
X22220769Y-16093952D01*
X22273137Y-16146998D01*
X22381803Y-16256772D01*
X22474709Y-16350114D01*
X22553055Y-16428173D01*
X22618043Y-16492097D01*
X22670872Y-16543035D01*
X22712743Y-16582135D01*
X22744855Y-16610548D01*
X22768410Y-16629420D01*
X22784608Y-16639901D01*
X22794649Y-16643139D01*
X22811579Y-16642158D01*
X22821084Y-16634996D01*
X22822723Y-16615401D01*
X22818782Y-16577124D01*
X22816065Y-16553025D01*
X22812284Y-16512744D01*
X22810760Y-16485961D01*
X22810015Y-16476728D01*
X22802746Y-16466839D01*
X22782668Y-16463562D01*
X22743689Y-16464992D01*
X22733737Y-16465553D01*
X22693898Y-16464921D01*
X22665560Y-16456167D01*
X22645586Y-16441951D01*
X22928852Y-16441951D01*
X22933013Y-16489104D01*
X22934935Y-16510498D01*
X22940924Y-16568909D01*
X22946826Y-16607381D01*
X22953727Y-16629912D01*
X22962712Y-16640498D01*
X22974870Y-16643139D01*
X22985801Y-16644937D01*
X22993050Y-16653530D01*
X22997100Y-16673505D01*
X22998863Y-16709450D01*
X22999248Y-16765952D01*
X22999248Y-16888766D01*
X23039447Y-16928840D01*
X23137565Y-17026654D01*
X23275881Y-17164542D01*
X23275881Y-17058089D01*
X24030337Y-17058089D01*
X24030337Y-17297000D01*
X23411831Y-17297000D01*
X23621592Y-17513906D01*
X23661770Y-17555334D01*
X23717328Y-17612200D01*
X23765570Y-17661082D01*
X23803971Y-17699441D01*
X23830003Y-17724741D01*
X23841140Y-17734442D01*
X23845373Y-17731767D01*
X23865224Y-17713782D01*
X23899451Y-17680481D01*
X23946227Y-17633712D01*
X24003724Y-17575325D01*
X24070112Y-17507169D01*
X24143564Y-17431094D01*
X24222251Y-17348950D01*
X24301341Y-17265943D01*
X24378871Y-17184136D01*
X24441746Y-17117083D01*
X24491502Y-17063007D01*
X24529678Y-17020129D01*
X24557811Y-16986673D01*
X24577440Y-16960861D01*
X24590101Y-16940914D01*
X24597334Y-16925056D01*
X24600675Y-16911509D01*
X24601561Y-16904910D01*
X24605488Y-16868548D01*
X24610459Y-16815018D01*
X24615927Y-16750421D01*
X24621344Y-16680862D01*
X24623181Y-16656635D01*
X24628488Y-16591178D01*
X24633548Y-16534717D01*
X24637863Y-16492618D01*
X24640934Y-16470243D01*
X24646955Y-16441951D01*
X22928852Y-16441951D01*
X22645586Y-16441951D01*
X22637630Y-16436289D01*
X22632820Y-16432104D01*
X22593482Y-16381427D01*
X22577903Y-16328782D01*
X22918698Y-16328782D01*
X24333221Y-16328782D01*
X24545881Y-16328782D01*
X24602908Y-16328782D01*
X24619993Y-16328662D01*
X24645308Y-16326462D01*
X24652616Y-16319334D01*
X24646943Y-16304508D01*
X24645267Y-16301682D01*
X24626448Y-16279944D01*
X24599183Y-16255820D01*
X24571987Y-16236254D01*
X24553371Y-16228188D01*
X24551697Y-16229463D01*
X24547544Y-16246976D01*
X24545881Y-16278485D01*
X24545881Y-16328782D01*
X24333221Y-16328782D01*
X24329526Y-16238095D01*
X24325832Y-16147407D01*
X24250386Y-16132252D01*
X24212551Y-16125379D01*
X24149368Y-16115756D01*
X24090065Y-16108496D01*
X24005188Y-16099893D01*
X24005188Y-16203040D01*
X23426773Y-16203040D01*
X23426773Y-16112122D01*
X23354471Y-16120753D01*
X23243998Y-16139249D01*
X23132816Y-16172691D01*
X23040850Y-16219324D01*
X22966542Y-16279786D01*
X22918698Y-16328782D01*
X22577903Y-16328782D01*
X22576172Y-16322934D01*
X22581474Y-16261575D01*
X22609975Y-16202297D01*
X22612733Y-16198606D01*
X22650822Y-16166851D01*
X22700476Y-16148067D01*
X22754002Y-16143071D01*
X22803707Y-16152678D01*
X22841900Y-16177704D01*
X22854831Y-16190480D01*
X22867428Y-16193576D01*
X22885467Y-16183998D01*
X22915928Y-16160082D01*
X22925274Y-16152731D01*
X22997430Y-16106339D01*
X23082915Y-16065084D01*
X23152830Y-16039575D01*
X23527367Y-16039575D01*
X23527367Y-16102446D01*
X23904594Y-16102446D01*
X23904594Y-16039575D01*
X23527367Y-16039575D01*
X23152830Y-16039575D01*
X23173767Y-16031936D01*
X23262027Y-16009868D01*
X23339736Y-16001852D01*
X23347991Y-16001788D01*
X23393879Y-15997321D01*
X23419079Y-15984795D01*
X23426773Y-15962784D01*
X23427676Y-15955849D01*
X23432615Y-15949885D01*
X23444611Y-15945519D01*
X23466680Y-15942503D01*
X23501836Y-15940590D01*
X23553094Y-15939530D01*
X23623471Y-15939077D01*
X23715980Y-15938980D01*
X23802660Y-15939150D01*
X23876332Y-15939834D01*
X23930265Y-15941215D01*
X23967288Y-15943470D01*
X23990230Y-15946778D01*
X24001920Y-15951320D01*
X24005188Y-15957272D01*
X24015937Y-15971888D01*
X24046055Y-15981215D01*
X24057582Y-15982847D01*
X24096886Y-15988591D01*
X24149188Y-15996378D01*
X24206376Y-16005003D01*
X24237916Y-16009393D01*
X24284074Y-16014148D01*
X24316641Y-16015295D01*
X24330023Y-16012495D01*
X24332308Y-16010671D01*
X24353405Y-16006165D01*
X24391355Y-16003029D01*
X24440048Y-16001852D01*
X24545881Y-16001852D01*
X24545894Y-16039575D01*
X24545894Y-16042718D01*
X24546388Y-16055668D01*
X24552819Y-16077411D01*
X24571123Y-16095851D01*
X24606830Y-16117801D01*
X24638174Y-16137854D01*
X24685893Y-16176356D01*
X24729138Y-16219579D01*
X24762219Y-16261627D01*
X24779442Y-16296604D01*
X24783662Y-16310081D01*
X24791480Y-16319334D01*
X24794116Y-16322454D01*
X24815662Y-16327696D01*
G36*
X25576971Y-21584822D02*
G01*
X22056178Y-21584822D01*
X22056178Y-20717198D01*
X25576971Y-20717198D01*
X25576971Y-21584822D01*
G37*
X25576971Y-21584822D02*
X22056178Y-21584822D01*
X22056178Y-20717198D01*
X25576971Y-20717198D01*
X25576971Y-21584822D01*
G36*
X7113933Y-15942371D02*
G01*
X7189856Y-15942865D01*
X7244491Y-15944135D01*
X7281500Y-15946547D01*
X7304547Y-15950467D01*
X7317296Y-15956262D01*
X7323411Y-15964299D01*
X7326556Y-15974943D01*
X7326646Y-15975325D01*
X7331814Y-16000347D01*
X7341209Y-16048681D01*
X7353867Y-16115260D01*
X7368825Y-16195014D01*
X7385119Y-16282875D01*
X7386448Y-16290064D01*
X7402691Y-16375340D01*
X7417805Y-16450242D01*
X7430808Y-16510219D01*
X7440715Y-16550717D01*
X7446544Y-16567184D01*
X7446575Y-16567210D01*
X7464943Y-16576320D01*
X7502640Y-16591457D01*
X7551543Y-16609358D01*
X7554297Y-16610330D01*
X7616817Y-16633959D01*
X7689543Y-16663595D01*
X7757294Y-16693062D01*
X7868703Y-16743626D01*
X8115399Y-16575160D01*
X8132775Y-16563311D01*
X8207202Y-16512947D01*
X8273614Y-16468612D01*
X8328039Y-16432916D01*
X8366506Y-16408471D01*
X8385042Y-16397889D01*
X8397743Y-16400315D01*
X8426579Y-16419110D01*
X8471143Y-16456330D01*
X8532670Y-16513020D01*
X8612398Y-16590227D01*
X8619532Y-16597255D01*
X8682796Y-16660222D01*
X8738990Y-16717268D01*
X8784677Y-16764817D01*
X8816414Y-16799297D01*
X8830764Y-16817131D01*
X8830810Y-16817217D01*
X8832633Y-16830795D01*
X8825910Y-16852820D01*
X8808946Y-16886304D01*
X8780044Y-16934261D01*
X8737508Y-16999704D01*
X8679644Y-17085645D01*
X8669783Y-17100151D01*
X8619913Y-17173635D01*
X8575905Y-17238687D01*
X8540380Y-17291417D01*
X8515959Y-17327936D01*
X8505264Y-17344356D01*
X8504458Y-17347834D01*
X8509518Y-17373785D01*
X8524677Y-17416159D01*
X8547463Y-17467728D01*
X8578429Y-17535170D01*
X8613004Y-17615195D01*
X8642366Y-17687629D01*
X8649645Y-17706377D01*
X8668710Y-17754246D01*
X8682715Y-17787596D01*
X8689041Y-17800114D01*
X8696025Y-17801050D01*
X8727413Y-17806461D01*
X8778787Y-17815806D01*
X8844802Y-17828069D01*
X8920113Y-17842232D01*
X8999375Y-17857280D01*
X9077243Y-17872195D01*
X9148370Y-17885961D01*
X9207412Y-17897562D01*
X9249022Y-17905980D01*
X9267857Y-17910199D01*
X9270980Y-17911389D01*
X9278591Y-17917805D01*
X9284254Y-17931465D01*
X9288251Y-17955999D01*
X9290866Y-17995038D01*
X9292384Y-18052213D01*
X9293086Y-18131154D01*
X9293257Y-18235492D01*
X9293257Y-18552799D01*
X9217057Y-18567839D01*
X9207840Y-18569642D01*
X9158891Y-18578980D01*
X9091205Y-18591669D01*
X9012478Y-18606273D01*
X8930400Y-18621355D01*
X8898078Y-18627422D01*
X8825855Y-18642181D01*
X8765666Y-18656137D01*
X8723040Y-18667952D01*
X8703510Y-18676287D01*
X8694660Y-18689905D01*
X8678548Y-18725938D01*
X8662065Y-18772572D01*
X8656263Y-18790034D01*
X8634906Y-18847358D01*
X8607359Y-18915201D01*
X8578107Y-18982355D01*
X8562463Y-19017430D01*
X8540174Y-19069822D01*
X8524857Y-19109058D01*
X8519162Y-19128563D01*
X8519478Y-19130036D01*
X8530281Y-19150729D01*
X8554638Y-19190665D01*
X8590081Y-19245972D01*
X8634136Y-19312781D01*
X8684332Y-19387220D01*
X8849501Y-19629623D01*
X8632503Y-19846983D01*
X8611516Y-19867899D01*
X8547342Y-19930505D01*
X8489990Y-19984495D01*
X8442820Y-20026826D01*
X8409192Y-20054457D01*
X8392467Y-20064343D01*
X8374303Y-20056821D01*
X8336265Y-20035227D01*
X8282726Y-20002151D01*
X8217884Y-19960191D01*
X8145940Y-19911943D01*
X8075275Y-19864291D01*
X8011526Y-19822328D01*
X7959513Y-19789165D01*
X7923279Y-19767378D01*
X7906867Y-19759543D01*
X7905905Y-19759614D01*
X7884103Y-19767338D01*
X7845440Y-19785323D01*
X7797612Y-19810013D01*
X7797110Y-19810284D01*
X7733587Y-19842099D01*
X7690060Y-19857642D01*
X7663052Y-19857685D01*
X7649090Y-19843000D01*
X7643180Y-19828544D01*
X7627229Y-19789831D01*
X7602660Y-19730316D01*
X7570779Y-19653165D01*
X7532893Y-19561541D01*
X7490310Y-19458607D01*
X7444337Y-19347526D01*
X7402667Y-19246472D01*
X7360268Y-19142780D01*
X7322756Y-19050119D01*
X7291388Y-18971642D01*
X7267425Y-18910500D01*
X7252123Y-18869843D01*
X7246743Y-18852825D01*
X7257018Y-18837219D01*
X7285563Y-18811162D01*
X7325971Y-18780887D01*
X7422979Y-18701684D01*
X7509793Y-18600475D01*
X7573322Y-18489116D01*
X7613177Y-18370893D01*
X7628965Y-18249095D01*
X7620296Y-18127010D01*
X7586778Y-18007925D01*
X7528021Y-17895129D01*
X7443632Y-17791911D01*
X7399631Y-17751713D01*
X7294211Y-17680638D01*
X7181410Y-17634301D01*
X7064525Y-17611599D01*
X6946853Y-17611428D01*
X6831690Y-17632687D01*
X6722335Y-17674270D01*
X6622083Y-17735076D01*
X6534233Y-17814001D01*
X6462080Y-17909941D01*
X6408922Y-18021795D01*
X6378057Y-18148457D01*
X6372392Y-18209507D01*
X6380185Y-18341776D01*
X6415284Y-18467266D01*
X6476649Y-18583759D01*
X6563243Y-18689039D01*
X6674029Y-18780887D01*
X6712931Y-18809930D01*
X6742104Y-18836272D01*
X6753257Y-18852800D01*
X6748810Y-18867209D01*
X6734378Y-18905815D01*
X6711173Y-18965201D01*
X6680452Y-19042215D01*
X6643474Y-19133703D01*
X6601496Y-19236516D01*
X6555778Y-19347502D01*
X6514178Y-19448072D01*
X6471222Y-19551947D01*
X6432829Y-19644819D01*
X6400305Y-19723525D01*
X6374958Y-19784899D01*
X6358095Y-19825779D01*
X6351025Y-19843000D01*
X6350943Y-19843204D01*
X6336798Y-19857745D01*
X6309659Y-19857579D01*
X6266023Y-19841927D01*
X6202388Y-19810013D01*
X6197379Y-19807326D01*
X6150125Y-19783150D01*
X6112811Y-19766037D01*
X6093133Y-19759543D01*
X6077005Y-19767218D01*
X6040959Y-19788871D01*
X5989092Y-19821928D01*
X5925445Y-19863810D01*
X5854060Y-19911943D01*
X5783724Y-19959131D01*
X5718670Y-20001267D01*
X5664820Y-20034578D01*
X5626374Y-20056469D01*
X5607534Y-20064343D01*
X5604325Y-20063343D01*
X5581954Y-20047584D01*
X5543733Y-20015033D01*
X5493021Y-19968733D01*
X5433181Y-19911726D01*
X5367571Y-19847058D01*
X5150648Y-19629772D01*
X5319601Y-19381253D01*
X5488553Y-19132733D01*
X5437183Y-19021595D01*
X5437031Y-19021266D01*
X5406183Y-18950418D01*
X5374661Y-18871523D01*
X5349266Y-18801600D01*
X5345423Y-18790322D01*
X5326047Y-18737967D01*
X5308574Y-18697283D01*
X5296388Y-18676287D01*
X5291426Y-18673322D01*
X5261634Y-18663375D01*
X5211047Y-18650505D01*
X5145194Y-18636053D01*
X5069600Y-18621355D01*
X5046957Y-18617210D01*
X4965038Y-18602116D01*
X4888600Y-18587899D01*
X4825337Y-18575995D01*
X4782943Y-18567839D01*
X4706743Y-18552799D01*
X4706743Y-18235492D01*
X4706760Y-18196476D01*
X4707082Y-18101292D01*
X4708033Y-18030255D01*
X4709896Y-17979734D01*
X4712955Y-17946098D01*
X4717494Y-17925718D01*
X4723795Y-17914962D01*
X4732143Y-17910199D01*
X4740224Y-17908270D01*
X4773172Y-17901445D01*
X4825736Y-17891022D01*
X4892569Y-17878018D01*
X4968328Y-17863449D01*
X5047665Y-17848333D01*
X5125237Y-17833685D01*
X5195698Y-17820523D01*
X5253702Y-17809863D01*
X5293904Y-17802721D01*
X5310959Y-17800114D01*
X5312112Y-17798541D01*
X5321385Y-17778119D01*
X5337432Y-17739045D01*
X5357635Y-17687629D01*
X5385672Y-17618353D01*
X5420186Y-17538290D01*
X5452538Y-17467728D01*
X5459952Y-17451889D01*
X5480755Y-17402293D01*
X5493219Y-17364038D01*
X5494863Y-17344356D01*
X5494015Y-17342962D01*
X5480548Y-17322420D01*
X5453850Y-17282516D01*
X5416539Y-17227140D01*
X5371234Y-17160177D01*
X5320552Y-17085517D01*
X5263445Y-17000692D01*
X5220607Y-16934800D01*
X5191460Y-16886478D01*
X5174317Y-16852733D01*
X5167495Y-16830572D01*
X5169306Y-16817002D01*
X5169915Y-16815984D01*
X5186297Y-16796210D01*
X5219695Y-16760175D01*
X5266671Y-16711451D01*
X5323786Y-16653612D01*
X5387603Y-16590227D01*
X5453802Y-16525905D01*
X5518648Y-16465447D01*
X5566299Y-16424655D01*
X5597990Y-16402484D01*
X5614958Y-16397889D01*
X5617175Y-16398921D01*
X5640524Y-16412837D01*
X5682912Y-16440030D01*
X5740369Y-16477889D01*
X5808923Y-16523803D01*
X5884601Y-16575160D01*
X6131298Y-16743626D01*
X6242706Y-16693062D01*
X6245943Y-16691597D01*
X6314343Y-16661965D01*
X6386907Y-16632493D01*
X6448457Y-16609358D01*
X6448729Y-16609262D01*
X6497595Y-16591367D01*
X6535212Y-16576253D01*
X6553457Y-16567184D01*
X6553752Y-16566855D01*
X6559946Y-16548282D01*
X6570139Y-16506045D01*
X6583348Y-16444696D01*
X6598590Y-16368789D01*
X6614881Y-16282875D01*
X6615449Y-16279796D01*
X6631713Y-16192128D01*
X6646608Y-16112741D01*
X6659171Y-16046701D01*
X6668438Y-15999079D01*
X6673444Y-15974943D01*
X6673764Y-15973605D01*
X6677060Y-15963273D01*
X6683738Y-15955506D01*
X6697462Y-15949940D01*
X6721895Y-15946207D01*
X6760702Y-15943942D01*
X6817546Y-15942778D01*
X6896090Y-15942348D01*
X7000000Y-15942286D01*
X7013056Y-15942286D01*
X7113933Y-15942371D01*
G37*
X7113933Y-15942371D02*
X7189856Y-15942865D01*
X7244491Y-15944135D01*
X7281500Y-15946547D01*
X7304547Y-15950467D01*
X7317296Y-15956262D01*
X7323411Y-15964299D01*
X7326556Y-15974943D01*
X7326646Y-15975325D01*
X7331814Y-16000347D01*
X7341209Y-16048681D01*
X7353867Y-16115260D01*
X7368825Y-16195014D01*
X7385119Y-16282875D01*
X7386448Y-16290064D01*
X7402691Y-16375340D01*
X7417805Y-16450242D01*
X7430808Y-16510219D01*
X7440715Y-16550717D01*
X7446544Y-16567184D01*
X7446575Y-16567210D01*
X7464943Y-16576320D01*
X7502640Y-16591457D01*
X7551543Y-16609358D01*
X7554297Y-16610330D01*
X7616817Y-16633959D01*
X7689543Y-16663595D01*
X7757294Y-16693062D01*
X7868703Y-16743626D01*
X8115399Y-16575160D01*
X8132775Y-16563311D01*
X8207202Y-16512947D01*
X8273614Y-16468612D01*
X8328039Y-16432916D01*
X8366506Y-16408471D01*
X8385042Y-16397889D01*
X8397743Y-16400315D01*
X8426579Y-16419110D01*
X8471143Y-16456330D01*
X8532670Y-16513020D01*
X8612398Y-16590227D01*
X8619532Y-16597255D01*
X8682796Y-16660222D01*
X8738990Y-16717268D01*
X8784677Y-16764817D01*
X8816414Y-16799297D01*
X8830764Y-16817131D01*
X8830810Y-16817217D01*
X8832633Y-16830795D01*
X8825910Y-16852820D01*
X8808946Y-16886304D01*
X8780044Y-16934261D01*
X8737508Y-16999704D01*
X8679644Y-17085645D01*
X8669783Y-17100151D01*
X8619913Y-17173635D01*
X8575905Y-17238687D01*
X8540380Y-17291417D01*
X8515959Y-17327936D01*
X8505264Y-17344356D01*
X8504458Y-17347834D01*
X8509518Y-17373785D01*
X8524677Y-17416159D01*
X8547463Y-17467728D01*
X8578429Y-17535170D01*
X8613004Y-17615195D01*
X8642366Y-17687629D01*
X8649645Y-17706377D01*
X8668710Y-17754246D01*
X8682715Y-17787596D01*
X8689041Y-17800114D01*
X8696025Y-17801050D01*
X8727413Y-17806461D01*
X8778787Y-17815806D01*
X8844802Y-17828069D01*
X8920113Y-17842232D01*
X8999375Y-17857280D01*
X9077243Y-17872195D01*
X9148370Y-17885961D01*
X9207412Y-17897562D01*
X9249022Y-17905980D01*
X9267857Y-17910199D01*
X9270980Y-17911389D01*
X9278591Y-17917805D01*
X9284254Y-17931465D01*
X9288251Y-17955999D01*
X9290866Y-17995038D01*
X9292384Y-18052213D01*
X9293086Y-18131154D01*
X9293257Y-18235492D01*
X9293257Y-18552799D01*
X9217057Y-18567839D01*
X9207840Y-18569642D01*
X9158891Y-18578980D01*
X9091205Y-18591669D01*
X9012478Y-18606273D01*
X8930400Y-18621355D01*
X8898078Y-18627422D01*
X8825855Y-18642181D01*
X8765666Y-18656137D01*
X8723040Y-18667952D01*
X8703510Y-18676287D01*
X8694660Y-18689905D01*
X8678548Y-18725938D01*
X8662065Y-18772572D01*
X8656263Y-18790034D01*
X8634906Y-18847358D01*
X8607359Y-18915201D01*
X8578107Y-18982355D01*
X8562463Y-19017430D01*
X8540174Y-19069822D01*
X8524857Y-19109058D01*
X8519162Y-19128563D01*
X8519478Y-19130036D01*
X8530281Y-19150729D01*
X8554638Y-19190665D01*
X8590081Y-19245972D01*
X8634136Y-19312781D01*
X8684332Y-19387220D01*
X8849501Y-19629623D01*
X8632503Y-19846983D01*
X8611516Y-19867899D01*
X8547342Y-19930505D01*
X8489990Y-19984495D01*
X8442820Y-20026826D01*
X8409192Y-20054457D01*
X8392467Y-20064343D01*
X8374303Y-20056821D01*
X8336265Y-20035227D01*
X8282726Y-20002151D01*
X8217884Y-19960191D01*
X8145940Y-19911943D01*
X8075275Y-19864291D01*
X8011526Y-19822328D01*
X7959513Y-19789165D01*
X7923279Y-19767378D01*
X7906867Y-19759543D01*
X7905905Y-19759614D01*
X7884103Y-19767338D01*
X7845440Y-19785323D01*
X7797612Y-19810013D01*
X7797110Y-19810284D01*
X7733587Y-19842099D01*
X7690060Y-19857642D01*
X7663052Y-19857685D01*
X7649090Y-19843000D01*
X7643180Y-19828544D01*
X7627229Y-19789831D01*
X7602660Y-19730316D01*
X7570779Y-19653165D01*
X7532893Y-19561541D01*
X7490310Y-19458607D01*
X7444337Y-19347526D01*
X7402667Y-19246472D01*
X7360268Y-19142780D01*
X7322756Y-19050119D01*
X7291388Y-18971642D01*
X7267425Y-18910500D01*
X7252123Y-18869843D01*
X7246743Y-18852825D01*
X7257018Y-18837219D01*
X7285563Y-18811162D01*
X7325971Y-18780887D01*
X7422979Y-18701684D01*
X7509793Y-18600475D01*
X7573322Y-18489116D01*
X7613177Y-18370893D01*
X7628965Y-18249095D01*
X7620296Y-18127010D01*
X7586778Y-18007925D01*
X7528021Y-17895129D01*
X7443632Y-17791911D01*
X7399631Y-17751713D01*
X7294211Y-17680638D01*
X7181410Y-17634301D01*
X7064525Y-17611599D01*
X6946853Y-17611428D01*
X6831690Y-17632687D01*
X6722335Y-17674270D01*
X6622083Y-17735076D01*
X6534233Y-17814001D01*
X6462080Y-17909941D01*
X6408922Y-18021795D01*
X6378057Y-18148457D01*
X6372392Y-18209507D01*
X6380185Y-18341776D01*
X6415284Y-18467266D01*
X6476649Y-18583759D01*
X6563243Y-18689039D01*
X6674029Y-18780887D01*
X6712931Y-18809930D01*
X6742104Y-18836272D01*
X6753257Y-18852800D01*
X6748810Y-18867209D01*
X6734378Y-18905815D01*
X6711173Y-18965201D01*
X6680452Y-19042215D01*
X6643474Y-19133703D01*
X6601496Y-19236516D01*
X6555778Y-19347502D01*
X6514178Y-19448072D01*
X6471222Y-19551947D01*
X6432829Y-19644819D01*
X6400305Y-19723525D01*
X6374958Y-19784899D01*
X6358095Y-19825779D01*
X6351025Y-19843000D01*
X6350943Y-19843204D01*
X6336798Y-19857745D01*
X6309659Y-19857579D01*
X6266023Y-19841927D01*
X6202388Y-19810013D01*
X6197379Y-19807326D01*
X6150125Y-19783150D01*
X6112811Y-19766037D01*
X6093133Y-19759543D01*
X6077005Y-19767218D01*
X6040959Y-19788871D01*
X5989092Y-19821928D01*
X5925445Y-19863810D01*
X5854060Y-19911943D01*
X5783724Y-19959131D01*
X5718670Y-20001267D01*
X5664820Y-20034578D01*
X5626374Y-20056469D01*
X5607534Y-20064343D01*
X5604325Y-20063343D01*
X5581954Y-20047584D01*
X5543733Y-20015033D01*
X5493021Y-19968733D01*
X5433181Y-19911726D01*
X5367571Y-19847058D01*
X5150648Y-19629772D01*
X5319601Y-19381253D01*
X5488553Y-19132733D01*
X5437183Y-19021595D01*
X5437031Y-19021266D01*
X5406183Y-18950418D01*
X5374661Y-18871523D01*
X5349266Y-18801600D01*
X5345423Y-18790322D01*
X5326047Y-18737967D01*
X5308574Y-18697283D01*
X5296388Y-18676287D01*
X5291426Y-18673322D01*
X5261634Y-18663375D01*
X5211047Y-18650505D01*
X5145194Y-18636053D01*
X5069600Y-18621355D01*
X5046957Y-18617210D01*
X4965038Y-18602116D01*
X4888600Y-18587899D01*
X4825337Y-18575995D01*
X4782943Y-18567839D01*
X4706743Y-18552799D01*
X4706743Y-18235492D01*
X4706760Y-18196476D01*
X4707082Y-18101292D01*
X4708033Y-18030255D01*
X4709896Y-17979734D01*
X4712955Y-17946098D01*
X4717494Y-17925718D01*
X4723795Y-17914962D01*
X4732143Y-17910199D01*
X4740224Y-17908270D01*
X4773172Y-17901445D01*
X4825736Y-17891022D01*
X4892569Y-17878018D01*
X4968328Y-17863449D01*
X5047665Y-17848333D01*
X5125237Y-17833685D01*
X5195698Y-17820523D01*
X5253702Y-17809863D01*
X5293904Y-17802721D01*
X5310959Y-17800114D01*
X5312112Y-17798541D01*
X5321385Y-17778119D01*
X5337432Y-17739045D01*
X5357635Y-17687629D01*
X5385672Y-17618353D01*
X5420186Y-17538290D01*
X5452538Y-17467728D01*
X5459952Y-17451889D01*
X5480755Y-17402293D01*
X5493219Y-17364038D01*
X5494863Y-17344356D01*
X5494015Y-17342962D01*
X5480548Y-17322420D01*
X5453850Y-17282516D01*
X5416539Y-17227140D01*
X5371234Y-17160177D01*
X5320552Y-17085517D01*
X5263445Y-17000692D01*
X5220607Y-16934800D01*
X5191460Y-16886478D01*
X5174317Y-16852733D01*
X5167495Y-16830572D01*
X5169306Y-16817002D01*
X5169915Y-16815984D01*
X5186297Y-16796210D01*
X5219695Y-16760175D01*
X5266671Y-16711451D01*
X5323786Y-16653612D01*
X5387603Y-16590227D01*
X5453802Y-16525905D01*
X5518648Y-16465447D01*
X5566299Y-16424655D01*
X5597990Y-16402484D01*
X5614958Y-16397889D01*
X5617175Y-16398921D01*
X5640524Y-16412837D01*
X5682912Y-16440030D01*
X5740369Y-16477889D01*
X5808923Y-16523803D01*
X5884601Y-16575160D01*
X6131298Y-16743626D01*
X6242706Y-16693062D01*
X6245943Y-16691597D01*
X6314343Y-16661965D01*
X6386907Y-16632493D01*
X6448457Y-16609358D01*
X6448729Y-16609262D01*
X6497595Y-16591367D01*
X6535212Y-16576253D01*
X6553457Y-16567184D01*
X6553752Y-16566855D01*
X6559946Y-16548282D01*
X6570139Y-16506045D01*
X6583348Y-16444696D01*
X6598590Y-16368789D01*
X6614881Y-16282875D01*
X6615449Y-16279796D01*
X6631713Y-16192128D01*
X6646608Y-16112741D01*
X6659171Y-16046701D01*
X6668438Y-15999079D01*
X6673444Y-15974943D01*
X6673764Y-15973605D01*
X6677060Y-15963273D01*
X6683738Y-15955506D01*
X6697462Y-15949940D01*
X6721895Y-15946207D01*
X6760702Y-15943942D01*
X6817546Y-15942778D01*
X6896090Y-15942348D01*
X7000000Y-15942286D01*
X7013056Y-15942286D01*
X7113933Y-15942371D01*
G36*
X6229537Y-21006313D02*
G01*
X6221345Y-21083462D01*
X6203519Y-21141276D01*
X6173975Y-21185422D01*
X6130625Y-21221568D01*
X6089332Y-21242463D01*
X6019987Y-21254090D01*
X5950736Y-21241377D01*
X5888145Y-21205945D01*
X5838779Y-21149418D01*
X5832818Y-21138995D01*
X5824945Y-21120733D01*
X5819106Y-21097429D01*
X5814999Y-21065085D01*
X5812325Y-21019704D01*
X5810781Y-20957287D01*
X5810734Y-20951748D01*
X5911429Y-20951748D01*
X5911772Y-21004577D01*
X5913942Y-21052362D01*
X5919307Y-21083209D01*
X5929217Y-21103935D01*
X5945021Y-21121356D01*
X5948724Y-21124705D01*
X5996299Y-21149419D01*
X6046635Y-21146890D01*
X6093517Y-21117288D01*
X6107477Y-21101953D01*
X6119160Y-21081622D01*
X6125686Y-21053514D01*
X6128524Y-21010550D01*
X6129143Y-20945647D01*
X6128837Y-20896122D01*
X6126722Y-20847782D01*
X6121390Y-20816587D01*
X6111460Y-20795647D01*
X6095550Y-20778073D01*
X6086204Y-20770159D01*
X6037776Y-20748843D01*
X5987040Y-20752198D01*
X5942987Y-20780107D01*
X5933504Y-20791173D01*
X5921939Y-20812009D01*
X5915252Y-20841106D01*
X5912173Y-20885381D01*
X5911429Y-20951748D01*
X5810734Y-20951748D01*
X5810067Y-20873837D01*
X5809883Y-20765358D01*
X5809829Y-20428601D01*
X5857000Y-20448362D01*
X5869472Y-20453770D01*
X5889324Y-20465985D01*
X5900687Y-20484482D01*
X5906933Y-20516829D01*
X5911429Y-20570593D01*
X5915535Y-20618866D01*
X5920963Y-20650557D01*
X5928739Y-20662383D01*
X5940457Y-20659212D01*
X5970318Y-20648067D01*
X6023684Y-20645304D01*
X6081093Y-20655625D01*
X6130625Y-20677861D01*
X6157876Y-20698443D01*
X6192865Y-20738600D01*
X6215274Y-20790086D01*
X6227190Y-20858568D01*
X6230542Y-20945647D01*
X6230698Y-20949714D01*
X6229537Y-21006313D01*
G37*
X6229537Y-21006313D02*
X6221345Y-21083462D01*
X6203519Y-21141276D01*
X6173975Y-21185422D01*
X6130625Y-21221568D01*
X6089332Y-21242463D01*
X6019987Y-21254090D01*
X5950736Y-21241377D01*
X5888145Y-21205945D01*
X5838779Y-21149418D01*
X5832818Y-21138995D01*
X5824945Y-21120733D01*
X5819106Y-21097429D01*
X5814999Y-21065085D01*
X5812325Y-21019704D01*
X5810781Y-20957287D01*
X5810734Y-20951748D01*
X5911429Y-20951748D01*
X5911772Y-21004577D01*
X5913942Y-21052362D01*
X5919307Y-21083209D01*
X5929217Y-21103935D01*
X5945021Y-21121356D01*
X5948724Y-21124705D01*
X5996299Y-21149419D01*
X6046635Y-21146890D01*
X6093517Y-21117288D01*
X6107477Y-21101953D01*
X6119160Y-21081622D01*
X6125686Y-21053514D01*
X6128524Y-21010550D01*
X6129143Y-20945647D01*
X6128837Y-20896122D01*
X6126722Y-20847782D01*
X6121390Y-20816587D01*
X6111460Y-20795647D01*
X6095550Y-20778073D01*
X6086204Y-20770159D01*
X6037776Y-20748843D01*
X5987040Y-20752198D01*
X5942987Y-20780107D01*
X5933504Y-20791173D01*
X5921939Y-20812009D01*
X5915252Y-20841106D01*
X5912173Y-20885381D01*
X5911429Y-20951748D01*
X5810734Y-20951748D01*
X5810067Y-20873837D01*
X5809883Y-20765358D01*
X5809829Y-20428601D01*
X5857000Y-20448362D01*
X5869472Y-20453770D01*
X5889324Y-20465985D01*
X5900687Y-20484482D01*
X5906933Y-20516829D01*
X5911429Y-20570593D01*
X5915535Y-20618866D01*
X5920963Y-20650557D01*
X5928739Y-20662383D01*
X5940457Y-20659212D01*
X5970318Y-20648067D01*
X6023684Y-20645304D01*
X6081093Y-20655625D01*
X6130625Y-20677861D01*
X6157876Y-20698443D01*
X6192865Y-20738600D01*
X6215274Y-20790086D01*
X6227190Y-20858568D01*
X6230542Y-20945647D01*
X6230698Y-20949714D01*
X6229537Y-21006313D01*
G36*
X10265701Y-20950935D02*
G01*
X10264914Y-21021119D01*
X10262210Y-21070022D01*
X10256606Y-21104178D01*
X10247119Y-21130124D01*
X10232768Y-21154397D01*
X10229237Y-21159433D01*
X10191878Y-21199143D01*
X10149311Y-21229092D01*
X10127452Y-21238810D01*
X10048908Y-21255020D01*
X9971231Y-21244535D01*
X9899645Y-21208707D01*
X9839374Y-21148887D01*
X9834286Y-21140873D01*
X9817730Y-21094342D01*
X9806573Y-21029552D01*
X9801160Y-20954727D01*
X9801768Y-20885513D01*
X9948248Y-20885513D01*
X9949402Y-20981399D01*
X9949866Y-20987569D01*
X9956629Y-21040478D01*
X9968671Y-21074029D01*
X9989005Y-21097016D01*
X10023097Y-21118548D01*
X10056814Y-21119680D01*
X10091543Y-21094857D01*
X10097584Y-21088325D01*
X10109417Y-21068779D01*
X10116404Y-21040386D01*
X10119727Y-20996430D01*
X10120571Y-20930192D01*
X10119125Y-20868150D01*
X10111907Y-20809042D01*
X10097006Y-20771686D01*
X10072636Y-20752152D01*
X10037008Y-20746514D01*
X10023440Y-20747635D01*
X9985430Y-20768194D01*
X9960312Y-20814299D01*
X9948248Y-20885513D01*
X9801768Y-20885513D01*
X9801833Y-20878096D01*
X9808937Y-20807882D01*
X9822815Y-20752312D01*
X9840649Y-20715301D01*
X9890855Y-20657733D01*
X9958885Y-20621962D01*
X10042158Y-20609665D01*
X10064398Y-20610331D01*
X10129891Y-20623947D01*
X10183687Y-20658249D01*
X10233057Y-20717338D01*
X10235995Y-20721722D01*
X10249287Y-20745299D01*
X10257932Y-20771949D01*
X10262904Y-20808159D01*
X10265174Y-20860413D01*
X10265678Y-20930192D01*
X10265714Y-20935200D01*
X10265701Y-20950935D01*
G37*
X10265701Y-20950935D02*
X10264914Y-21021119D01*
X10262210Y-21070022D01*
X10256606Y-21104178D01*
X10247119Y-21130124D01*
X10232768Y-21154397D01*
X10229237Y-21159433D01*
X10191878Y-21199143D01*
X10149311Y-21229092D01*
X10127452Y-21238810D01*
X10048908Y-21255020D01*
X9971231Y-21244535D01*
X9899645Y-21208707D01*
X9839374Y-21148887D01*
X9834286Y-21140873D01*
X9817730Y-21094342D01*
X9806573Y-21029552D01*
X9801160Y-20954727D01*
X9801768Y-20885513D01*
X9948248Y-20885513D01*
X9949402Y-20981399D01*
X9949866Y-20987569D01*
X9956629Y-21040478D01*
X9968671Y-21074029D01*
X9989005Y-21097016D01*
X10023097Y-21118548D01*
X10056814Y-21119680D01*
X10091543Y-21094857D01*
X10097584Y-21088325D01*
X10109417Y-21068779D01*
X10116404Y-21040386D01*
X10119727Y-20996430D01*
X10120571Y-20930192D01*
X10119125Y-20868150D01*
X10111907Y-20809042D01*
X10097006Y-20771686D01*
X10072636Y-20752152D01*
X10037008Y-20746514D01*
X10023440Y-20747635D01*
X9985430Y-20768194D01*
X9960312Y-20814299D01*
X9948248Y-20885513D01*
X9801768Y-20885513D01*
X9801833Y-20878096D01*
X9808937Y-20807882D01*
X9822815Y-20752312D01*
X9840649Y-20715301D01*
X9890855Y-20657733D01*
X9958885Y-20621962D01*
X10042158Y-20609665D01*
X10064398Y-20610331D01*
X10129891Y-20623947D01*
X10183687Y-20658249D01*
X10233057Y-20717338D01*
X10235995Y-20721722D01*
X10249287Y-20745299D01*
X10257932Y-20771949D01*
X10262904Y-20808159D01*
X10265174Y-20860413D01*
X10265678Y-20930192D01*
X10265714Y-20935200D01*
X10265701Y-20950935D01*
G36*
X7678543Y-20449444D02*
G01*
X7725714Y-20469342D01*
X7725714Y-20866509D01*
X7725519Y-20969498D01*
X7724998Y-21062141D01*
X7724199Y-21140700D01*
X7723172Y-21201439D01*
X7721963Y-21240623D01*
X7720623Y-21254514D01*
X7720099Y-21254468D01*
X7702287Y-21249420D01*
X7669823Y-21238580D01*
X7624114Y-21222646D01*
X7624114Y-21018173D01*
X7623824Y-20937832D01*
X7622474Y-20879562D01*
X7619369Y-20839909D01*
X7613812Y-20813618D01*
X7605107Y-20795436D01*
X7592556Y-20780107D01*
X7583999Y-20771955D01*
X7537728Y-20749375D01*
X7486728Y-20751375D01*
X7439993Y-20778073D01*
X7433189Y-20784698D01*
X7422293Y-20798456D01*
X7414836Y-20816642D01*
X7410169Y-20844177D01*
X7407642Y-20885981D01*
X7406602Y-20946973D01*
X7406400Y-21032073D01*
X7406303Y-21075234D01*
X7405674Y-21146224D01*
X7404556Y-21203076D01*
X7403063Y-21240828D01*
X7401309Y-21254514D01*
X7400785Y-21254468D01*
X7382973Y-21249420D01*
X7350509Y-21238580D01*
X7304800Y-21222646D01*
X7304823Y-21017237D01*
X7304857Y-20998951D01*
X7306778Y-20903626D01*
X7312678Y-20831543D01*
X7324001Y-20777813D01*
X7342187Y-20737549D01*
X7368679Y-20705861D01*
X7404918Y-20677861D01*
X7440263Y-20660333D01*
X7496773Y-20646785D01*
X7552356Y-20646015D01*
X7595086Y-20659195D01*
X7598298Y-20661015D01*
X7608205Y-20660820D01*
X7614975Y-20645572D01*
X7619861Y-20610613D01*
X7624114Y-20551289D01*
X7631371Y-20429547D01*
X7678543Y-20449444D01*
G37*
X7678543Y-20449444D02*
X7725714Y-20469342D01*
X7725714Y-20866509D01*
X7725519Y-20969498D01*
X7724998Y-21062141D01*
X7724199Y-21140700D01*
X7723172Y-21201439D01*
X7721963Y-21240623D01*
X7720623Y-21254514D01*
X7720099Y-21254468D01*
X7702287Y-21249420D01*
X7669823Y-21238580D01*
X7624114Y-21222646D01*
X7624114Y-21018173D01*
X7623824Y-20937832D01*
X7622474Y-20879562D01*
X7619369Y-20839909D01*
X7613812Y-20813618D01*
X7605107Y-20795436D01*
X7592556Y-20780107D01*
X7583999Y-20771955D01*
X7537728Y-20749375D01*
X7486728Y-20751375D01*
X7439993Y-20778073D01*
X7433189Y-20784698D01*
X7422293Y-20798456D01*
X7414836Y-20816642D01*
X7410169Y-20844177D01*
X7407642Y-20885981D01*
X7406602Y-20946973D01*
X7406400Y-21032073D01*
X7406303Y-21075234D01*
X7405674Y-21146224D01*
X7404556Y-21203076D01*
X7403063Y-21240828D01*
X7401309Y-21254514D01*
X7400785Y-21254468D01*
X7382973Y-21249420D01*
X7350509Y-21238580D01*
X7304800Y-21222646D01*
X7304823Y-21017237D01*
X7304857Y-20998951D01*
X7306778Y-20903626D01*
X7312678Y-20831543D01*
X7324001Y-20777813D01*
X7342187Y-20737549D01*
X7368679Y-20705861D01*
X7404918Y-20677861D01*
X7440263Y-20660333D01*
X7496773Y-20646785D01*
X7552356Y-20646015D01*
X7595086Y-20659195D01*
X7598298Y-20661015D01*
X7608205Y-20660820D01*
X7614975Y-20645572D01*
X7619861Y-20610613D01*
X7624114Y-20551289D01*
X7631371Y-20429547D01*
X7678543Y-20449444D01*
G36*
X9711252Y-21113000D02*
G01*
X9711651Y-21145339D01*
X9712929Y-21253455D01*
X9713185Y-21336186D01*
X9711634Y-21396426D01*
X9707490Y-21437073D01*
X9699964Y-21461023D01*
X9688271Y-21471171D01*
X9671624Y-21470414D01*
X9649236Y-21461648D01*
X9620321Y-21447769D01*
X9614142Y-21444808D01*
X9588413Y-21430311D01*
X9574976Y-21413065D01*
X9569834Y-21384308D01*
X9568990Y-21335283D01*
X9568952Y-21247257D01*
X9478276Y-21247257D01*
X9422498Y-21244815D01*
X9378640Y-21234908D01*
X9342218Y-21214886D01*
X9339503Y-21212929D01*
X9302546Y-21179869D01*
X9276826Y-21139931D01*
X9260606Y-21087657D01*
X9252148Y-21017588D01*
X9250083Y-20938430D01*
X9394857Y-20938430D01*
X9394882Y-20951697D01*
X9396261Y-21011584D01*
X9400687Y-21050732D01*
X9409461Y-21076153D01*
X9423886Y-21094857D01*
X9424784Y-21095750D01*
X9460237Y-21119952D01*
X9494596Y-21117567D01*
X9533403Y-21088260D01*
X9542895Y-21078244D01*
X9556876Y-21057708D01*
X9564760Y-21030997D01*
X9568245Y-20990499D01*
X9569029Y-20928603D01*
X9568350Y-20891130D01*
X9560983Y-20822980D01*
X9544168Y-20778330D01*
X9516234Y-20753926D01*
X9475509Y-20746514D01*
X9458350Y-20748094D01*
X9428660Y-20763766D01*
X9409031Y-20798691D01*
X9398188Y-20855901D01*
X9394857Y-20938430D01*
X9250083Y-20938430D01*
X9249714Y-20924267D01*
X9250253Y-20856169D01*
X9252707Y-20804587D01*
X9258158Y-20768816D01*
X9267686Y-20742015D01*
X9282371Y-20717338D01*
X9295852Y-20698480D01*
X9344799Y-20647568D01*
X9400256Y-20619918D01*
X9469928Y-20611165D01*
X9549664Y-20619890D01*
X9618595Y-20651185D01*
X9673113Y-20706381D01*
X9677223Y-20712224D01*
X9686808Y-20727753D01*
X9694151Y-20745498D01*
X9699612Y-20769290D01*
X9703550Y-20802958D01*
X9706323Y-20850333D01*
X9708292Y-20915245D01*
X9708528Y-20928603D01*
X9709815Y-21001524D01*
X9711252Y-21113000D01*
G37*
X9711252Y-21113000D02*
X9711651Y-21145339D01*
X9712929Y-21253455D01*
X9713185Y-21336186D01*
X9711634Y-21396426D01*
X9707490Y-21437073D01*
X9699964Y-21461023D01*
X9688271Y-21471171D01*
X9671624Y-21470414D01*
X9649236Y-21461648D01*
X9620321Y-21447769D01*
X9614142Y-21444808D01*
X9588413Y-21430311D01*
X9574976Y-21413065D01*
X9569834Y-21384308D01*
X9568990Y-21335283D01*
X9568952Y-21247257D01*
X9478276Y-21247257D01*
X9422498Y-21244815D01*
X9378640Y-21234908D01*
X9342218Y-21214886D01*
X9339503Y-21212929D01*
X9302546Y-21179869D01*
X9276826Y-21139931D01*
X9260606Y-21087657D01*
X9252148Y-21017588D01*
X9250083Y-20938430D01*
X9394857Y-20938430D01*
X9394882Y-20951697D01*
X9396261Y-21011584D01*
X9400687Y-21050732D01*
X9409461Y-21076153D01*
X9423886Y-21094857D01*
X9424784Y-21095750D01*
X9460237Y-21119952D01*
X9494596Y-21117567D01*
X9533403Y-21088260D01*
X9542895Y-21078244D01*
X9556876Y-21057708D01*
X9564760Y-21030997D01*
X9568245Y-20990499D01*
X9569029Y-20928603D01*
X9568350Y-20891130D01*
X9560983Y-20822980D01*
X9544168Y-20778330D01*
X9516234Y-20753926D01*
X9475509Y-20746514D01*
X9458350Y-20748094D01*
X9428660Y-20763766D01*
X9409031Y-20798691D01*
X9398188Y-20855901D01*
X9394857Y-20938430D01*
X9250083Y-20938430D01*
X9249714Y-20924267D01*
X9250253Y-20856169D01*
X9252707Y-20804587D01*
X9258158Y-20768816D01*
X9267686Y-20742015D01*
X9282371Y-20717338D01*
X9295852Y-20698480D01*
X9344799Y-20647568D01*
X9400256Y-20619918D01*
X9469928Y-20611165D01*
X9549664Y-20619890D01*
X9618595Y-20651185D01*
X9673113Y-20706381D01*
X9677223Y-20712224D01*
X9686808Y-20727753D01*
X9694151Y-20745498D01*
X9699612Y-20769290D01*
X9703550Y-20802958D01*
X9706323Y-20850333D01*
X9708292Y-20915245D01*
X9708528Y-20928603D01*
X9709815Y-21001524D01*
X9711252Y-21113000D01*
G36*
X6607691Y-20666467D02*
G01*
X6612273Y-20669003D01*
X6649704Y-20698057D01*
X6683170Y-20735410D01*
X6689007Y-20743852D01*
X6700165Y-20763553D01*
X6708136Y-20786935D01*
X6713618Y-20819067D01*
X6717307Y-20865019D01*
X6719899Y-20929859D01*
X6722092Y-21018657D01*
X6722402Y-21033669D01*
X6723400Y-21130999D01*
X6721994Y-21199934D01*
X6718164Y-21240948D01*
X6711889Y-21254514D01*
X6692898Y-21250452D01*
X6660638Y-21238144D01*
X6653041Y-21234545D01*
X6641176Y-21226398D01*
X6632994Y-21213004D01*
X6627643Y-21189608D01*
X6624269Y-21151455D01*
X6622019Y-21093790D01*
X6620040Y-21011857D01*
X6619498Y-20987907D01*
X6617403Y-20912266D01*
X6614683Y-20859328D01*
X6610515Y-20824075D01*
X6604079Y-20801487D01*
X6594550Y-20786544D01*
X6581106Y-20774227D01*
X6541305Y-20752634D01*
X6492341Y-20748476D01*
X6448529Y-20764999D01*
X6417008Y-20799210D01*
X6404914Y-20848114D01*
X6404578Y-20861407D01*
X6397972Y-20885472D01*
X6378470Y-20889144D01*
X6340283Y-20874813D01*
X6331438Y-20870217D01*
X6307534Y-20843186D01*
X6307061Y-20802994D01*
X6329836Y-20747409D01*
X6350727Y-20717117D01*
X6404142Y-20674084D01*
X6470074Y-20649755D01*
X6540574Y-20646443D01*
X6607691Y-20666467D01*
G37*
X6607691Y-20666467D02*
X6612273Y-20669003D01*
X6649704Y-20698057D01*
X6683170Y-20735410D01*
X6689007Y-20743852D01*
X6700165Y-20763553D01*
X6708136Y-20786935D01*
X6713618Y-20819067D01*
X6717307Y-20865019D01*
X6719899Y-20929859D01*
X6722092Y-21018657D01*
X6722402Y-21033669D01*
X6723400Y-21130999D01*
X6721994Y-21199934D01*
X6718164Y-21240948D01*
X6711889Y-21254514D01*
X6692898Y-21250452D01*
X6660638Y-21238144D01*
X6653041Y-21234545D01*
X6641176Y-21226398D01*
X6632994Y-21213004D01*
X6627643Y-21189608D01*
X6624269Y-21151455D01*
X6622019Y-21093790D01*
X6620040Y-21011857D01*
X6619498Y-20987907D01*
X6617403Y-20912266D01*
X6614683Y-20859328D01*
X6610515Y-20824075D01*
X6604079Y-20801487D01*
X6594550Y-20786544D01*
X6581106Y-20774227D01*
X6541305Y-20752634D01*
X6492341Y-20748476D01*
X6448529Y-20764999D01*
X6417008Y-20799210D01*
X6404914Y-20848114D01*
X6404578Y-20861407D01*
X6397972Y-20885472D01*
X6378470Y-20889144D01*
X6340283Y-20874813D01*
X6331438Y-20870217D01*
X6307534Y-20843186D01*
X6307061Y-20802994D01*
X6329836Y-20747409D01*
X6350727Y-20717117D01*
X6404142Y-20674084D01*
X6470074Y-20649755D01*
X6540574Y-20646443D01*
X6607691Y-20666467D01*
G36*
X5653941Y-20649282D02*
G01*
X5685774Y-20661758D01*
X5722743Y-20678602D01*
X5722743Y-21165196D01*
X5676812Y-21211127D01*
X5666320Y-21221427D01*
X5637255Y-21244320D01*
X5607943Y-21251735D01*
X5564326Y-21248321D01*
X5546568Y-21246114D01*
X5500767Y-21241445D01*
X5468743Y-21239585D01*
X5459244Y-21239869D01*
X5420274Y-21242948D01*
X5373160Y-21248321D01*
X5358085Y-21250168D01*
X5320110Y-21250893D01*
X5292325Y-21239429D01*
X5260674Y-21211127D01*
X5214743Y-21165196D01*
X5214743Y-20905055D01*
X5215101Y-20828180D01*
X5216216Y-20754886D01*
X5217952Y-20696850D01*
X5220167Y-20658663D01*
X5222721Y-20644914D01*
X5223256Y-20644951D01*
X5241808Y-20651793D01*
X5273153Y-20666868D01*
X5315608Y-20688822D01*
X5319604Y-20917240D01*
X5323600Y-21145657D01*
X5410686Y-21145657D01*
X5414657Y-20895286D01*
X5415916Y-20827227D01*
X5417718Y-20754482D01*
X5419671Y-20696730D01*
X5421612Y-20658648D01*
X5423377Y-20644914D01*
X5423885Y-20644962D01*
X5441482Y-20650015D01*
X5473834Y-20660849D01*
X5519543Y-20676783D01*
X5519765Y-20896706D01*
X5519988Y-20934909D01*
X5521531Y-21009146D01*
X5524292Y-21071145D01*
X5527977Y-21115308D01*
X5532292Y-21136041D01*
X5547732Y-21147131D01*
X5579241Y-21150556D01*
X5613886Y-21145657D01*
X5617857Y-20895286D01*
X5619278Y-20831663D01*
X5622225Y-20756356D01*
X5626079Y-20697286D01*
X5630542Y-20658718D01*
X5635317Y-20644914D01*
X5653941Y-20649282D01*
G37*
X5653941Y-20649282D02*
X5685774Y-20661758D01*
X5722743Y-20678602D01*
X5722743Y-21165196D01*
X5676812Y-21211127D01*
X5666320Y-21221427D01*
X5637255Y-21244320D01*
X5607943Y-21251735D01*
X5564326Y-21248321D01*
X5546568Y-21246114D01*
X5500767Y-21241445D01*
X5468743Y-21239585D01*
X5459244Y-21239869D01*
X5420274Y-21242948D01*
X5373160Y-21248321D01*
X5358085Y-21250168D01*
X5320110Y-21250893D01*
X5292325Y-21239429D01*
X5260674Y-21211127D01*
X5214743Y-21165196D01*
X5214743Y-20905055D01*
X5215101Y-20828180D01*
X5216216Y-20754886D01*
X5217952Y-20696850D01*
X5220167Y-20658663D01*
X5222721Y-20644914D01*
X5223256Y-20644951D01*
X5241808Y-20651793D01*
X5273153Y-20666868D01*
X5315608Y-20688822D01*
X5319604Y-20917240D01*
X5323600Y-21145657D01*
X5410686Y-21145657D01*
X5414657Y-20895286D01*
X5415916Y-20827227D01*
X5417718Y-20754482D01*
X5419671Y-20696730D01*
X5421612Y-20658648D01*
X5423377Y-20644914D01*
X5423885Y-20644962D01*
X5441482Y-20650015D01*
X5473834Y-20660849D01*
X5519543Y-20676783D01*
X5519765Y-20896706D01*
X5519988Y-20934909D01*
X5521531Y-21009146D01*
X5524292Y-21071145D01*
X5527977Y-21115308D01*
X5532292Y-21136041D01*
X5547732Y-21147131D01*
X5579241Y-21150556D01*
X5613886Y-21145657D01*
X5617857Y-20895286D01*
X5619278Y-20831663D01*
X5622225Y-20756356D01*
X5626079Y-20697286D01*
X5630542Y-20658718D01*
X5635317Y-20644914D01*
X5653941Y-20649282D01*
G36*
X4482829Y-20651097D02*
G01*
X4542753Y-20673355D01*
X4567673Y-20690080D01*
X4592910Y-20714043D01*
X4610912Y-20744526D01*
X4622858Y-20786023D01*
X4629930Y-20843032D01*
X4633308Y-20920047D01*
X4634171Y-21021565D01*
X4634002Y-21074027D01*
X4633153Y-21145715D01*
X4631711Y-21202925D01*
X4629814Y-21240809D01*
X4627597Y-21254514D01*
X4613172Y-21249981D01*
X4584054Y-21237670D01*
X4583181Y-21237272D01*
X4568060Y-21229356D01*
X4557891Y-21218495D01*
X4551691Y-21199471D01*
X4548478Y-21167069D01*
X4547270Y-21116071D01*
X4547086Y-21041261D01*
X4546714Y-20993804D01*
X4542750Y-20904615D01*
X4533673Y-20839287D01*
X4518524Y-20794393D01*
X4496345Y-20766507D01*
X4466175Y-20752203D01*
X4461990Y-20751206D01*
X4405480Y-20750427D01*
X4361410Y-20775744D01*
X4330972Y-20826502D01*
X4325544Y-20841175D01*
X4313171Y-20873649D01*
X4306905Y-20888572D01*
X4294036Y-20886516D01*
X4265933Y-20875357D01*
X4239721Y-20856927D01*
X4227771Y-20822098D01*
X4231336Y-20797151D01*
X4253235Y-20746547D01*
X4288644Y-20699128D01*
X4330052Y-20666334D01*
X4347400Y-20658752D01*
X4413089Y-20646076D01*
X4482829Y-20651097D01*
G37*
X4482829Y-20651097D02*
X4542753Y-20673355D01*
X4567673Y-20690080D01*
X4592910Y-20714043D01*
X4610912Y-20744526D01*
X4622858Y-20786023D01*
X4629930Y-20843032D01*
X4633308Y-20920047D01*
X4634171Y-21021565D01*
X4634002Y-21074027D01*
X4633153Y-21145715D01*
X4631711Y-21202925D01*
X4629814Y-21240809D01*
X4627597Y-21254514D01*
X4613172Y-21249981D01*
X4584054Y-21237670D01*
X4583181Y-21237272D01*
X4568060Y-21229356D01*
X4557891Y-21218495D01*
X4551691Y-21199471D01*
X4548478Y-21167069D01*
X4547270Y-21116071D01*
X4547086Y-21041261D01*
X4546714Y-20993804D01*
X4542750Y-20904615D01*
X4533673Y-20839287D01*
X4518524Y-20794393D01*
X4496345Y-20766507D01*
X4466175Y-20752203D01*
X4461990Y-20751206D01*
X4405480Y-20750427D01*
X4361410Y-20775744D01*
X4330972Y-20826502D01*
X4325544Y-20841175D01*
X4313171Y-20873649D01*
X4306905Y-20888572D01*
X4294036Y-20886516D01*
X4265933Y-20875357D01*
X4239721Y-20856927D01*
X4227771Y-20822098D01*
X4231336Y-20797151D01*
X4253235Y-20746547D01*
X4288644Y-20699128D01*
X4330052Y-20666334D01*
X4347400Y-20658752D01*
X4413089Y-20646076D01*
X4482829Y-20651097D01*
G36*
X9157684Y-21004078D02*
G01*
X9155078Y-21027387D01*
X9135660Y-21110352D01*
X9100573Y-21173448D01*
X9047212Y-21221808D01*
X9044196Y-21223804D01*
X8976362Y-21252185D01*
X8905535Y-21254711D01*
X8837289Y-21233097D01*
X8777196Y-21189062D01*
X8730829Y-21124322D01*
X8730050Y-21122761D01*
X8714643Y-21082558D01*
X8703357Y-21036866D01*
X8697370Y-20993972D01*
X8697861Y-20962160D01*
X8706007Y-20949714D01*
X8713244Y-20950471D01*
X8747851Y-20964235D01*
X8787078Y-20989546D01*
X8820448Y-21018845D01*
X8837483Y-21044572D01*
X8855192Y-21079471D01*
X8891485Y-21111212D01*
X8933630Y-21123886D01*
X8949077Y-21120221D01*
X8979569Y-21101774D01*
X9006128Y-21076166D01*
X9017486Y-21052934D01*
X9017482Y-21052848D01*
X9004596Y-21042179D01*
X8970241Y-21022933D01*
X8919593Y-20997813D01*
X8857829Y-20969524D01*
X8857489Y-20969374D01*
X8790388Y-20939498D01*
X8745411Y-20917973D01*
X8718145Y-20901437D01*
X8704178Y-20886531D01*
X8699097Y-20869893D01*
X8698490Y-20848162D01*
X8702712Y-20807013D01*
X8846000Y-20807013D01*
X8860791Y-20819949D01*
X8897644Y-20839333D01*
X8898725Y-20839881D01*
X8942205Y-20860587D01*
X8981102Y-20877105D01*
X9005778Y-20884093D01*
X9015676Y-20874753D01*
X9017486Y-20842748D01*
X9009966Y-20802915D01*
X8983897Y-20766717D01*
X8946154Y-20747950D01*
X8904077Y-20749845D01*
X8865005Y-20775632D01*
X8849647Y-20793451D01*
X8846000Y-20807013D01*
X8702712Y-20807013D01*
X8703833Y-20796086D01*
X8730251Y-20725335D01*
X8774473Y-20669735D01*
X8831697Y-20631239D01*
X8897120Y-20611797D01*
X8965937Y-20613359D01*
X9033347Y-20637878D01*
X9094544Y-20687302D01*
X9128450Y-20736212D01*
X9152806Y-20806027D01*
X9156767Y-20842748D01*
X9162299Y-20894055D01*
X9157684Y-21004078D01*
G37*
X9157684Y-21004078D02*
X9155078Y-21027387D01*
X9135660Y-21110352D01*
X9100573Y-21173448D01*
X9047212Y-21221808D01*
X9044196Y-21223804D01*
X8976362Y-21252185D01*
X8905535Y-21254711D01*
X8837289Y-21233097D01*
X8777196Y-21189062D01*
X8730829Y-21124322D01*
X8730050Y-21122761D01*
X8714643Y-21082558D01*
X8703357Y-21036866D01*
X8697370Y-20993972D01*
X8697861Y-20962160D01*
X8706007Y-20949714D01*
X8713244Y-20950471D01*
X8747851Y-20964235D01*
X8787078Y-20989546D01*
X8820448Y-21018845D01*
X8837483Y-21044572D01*
X8855192Y-21079471D01*
X8891485Y-21111212D01*
X8933630Y-21123886D01*
X8949077Y-21120221D01*
X8979569Y-21101774D01*
X9006128Y-21076166D01*
X9017486Y-21052934D01*
X9017482Y-21052848D01*
X9004596Y-21042179D01*
X8970241Y-21022933D01*
X8919593Y-20997813D01*
X8857829Y-20969524D01*
X8857489Y-20969374D01*
X8790388Y-20939498D01*
X8745411Y-20917973D01*
X8718145Y-20901437D01*
X8704178Y-20886531D01*
X8699097Y-20869893D01*
X8698490Y-20848162D01*
X8702712Y-20807013D01*
X8846000Y-20807013D01*
X8860791Y-20819949D01*
X8897644Y-20839333D01*
X8898725Y-20839881D01*
X8942205Y-20860587D01*
X8981102Y-20877105D01*
X9005778Y-20884093D01*
X9015676Y-20874753D01*
X9017486Y-20842748D01*
X9009966Y-20802915D01*
X8983897Y-20766717D01*
X8946154Y-20747950D01*
X8904077Y-20749845D01*
X8865005Y-20775632D01*
X8849647Y-20793451D01*
X8846000Y-20807013D01*
X8702712Y-20807013D01*
X8703833Y-20796086D01*
X8730251Y-20725335D01*
X8774473Y-20669735D01*
X8831697Y-20631239D01*
X8897120Y-20611797D01*
X8965937Y-20613359D01*
X9033347Y-20637878D01*
X9094544Y-20687302D01*
X9128450Y-20736212D01*
X9152806Y-20806027D01*
X9156767Y-20842748D01*
X9162299Y-20894055D01*
X9157684Y-21004078D01*
G36*
X7089483Y-20660569D02*
G01*
X7139376Y-20689661D01*
X7161325Y-20712327D01*
X7203504Y-20780082D01*
X7217714Y-20853950D01*
X7217714Y-20904770D01*
X7170999Y-20885128D01*
X7138692Y-20865308D01*
X7113231Y-20824160D01*
X7110616Y-20815675D01*
X7082478Y-20772451D01*
X7040067Y-20749103D01*
X6991370Y-20748100D01*
X6944373Y-20771914D01*
X6937357Y-20778056D01*
X6913893Y-20804745D01*
X6910019Y-20828014D01*
X6927768Y-20850862D01*
X6969179Y-20876287D01*
X7036286Y-20907288D01*
X7040824Y-20909252D01*
X7115322Y-20943990D01*
X7166203Y-20974763D01*
X7197525Y-21005488D01*
X7213343Y-21040082D01*
X7217714Y-21082462D01*
X7211986Y-21129446D01*
X7183062Y-21189585D01*
X7132178Y-21232788D01*
X7095374Y-21245759D01*
X7043434Y-21252856D01*
X6992999Y-21251340D01*
X6956983Y-21240632D01*
X6953158Y-21237966D01*
X6942998Y-21219337D01*
X6950048Y-21186505D01*
X6962297Y-21160735D01*
X6981939Y-21150006D01*
X7019191Y-21150539D01*
X7070908Y-21147462D01*
X7104701Y-21126212D01*
X7116114Y-21086877D01*
X7116104Y-21085747D01*
X7109187Y-21062913D01*
X7085659Y-21041963D01*
X7039914Y-21017815D01*
X6977704Y-20988741D01*
X6936499Y-20972925D01*
X6912712Y-20973944D01*
X6901597Y-20994837D01*
X6898408Y-21038641D01*
X6898400Y-21108393D01*
X6898044Y-21151452D01*
X6896413Y-21204626D01*
X6893761Y-21241022D01*
X6890422Y-21254514D01*
X6889530Y-21254423D01*
X6870237Y-21247110D01*
X6838284Y-21231678D01*
X6794124Y-21208842D01*
X6799371Y-21003078D01*
X6799736Y-20989432D01*
X6803904Y-20893651D01*
X6811268Y-20821462D01*
X6823330Y-20768058D01*
X6841593Y-20728633D01*
X6867560Y-20698380D01*
X6902733Y-20672493D01*
X6903384Y-20672087D01*
X6960256Y-20650968D01*
X7026033Y-20647400D01*
X7089483Y-20660569D01*
G37*
X7089483Y-20660569D02*
X7139376Y-20689661D01*
X7161325Y-20712327D01*
X7203504Y-20780082D01*
X7217714Y-20853950D01*
X7217714Y-20904770D01*
X7170999Y-20885128D01*
X7138692Y-20865308D01*
X7113231Y-20824160D01*
X7110616Y-20815675D01*
X7082478Y-20772451D01*
X7040067Y-20749103D01*
X6991370Y-20748100D01*
X6944373Y-20771914D01*
X6937357Y-20778056D01*
X6913893Y-20804745D01*
X6910019Y-20828014D01*
X6927768Y-20850862D01*
X6969179Y-20876287D01*
X7036286Y-20907288D01*
X7040824Y-20909252D01*
X7115322Y-20943990D01*
X7166203Y-20974763D01*
X7197525Y-21005488D01*
X7213343Y-21040082D01*
X7217714Y-21082462D01*
X7211986Y-21129446D01*
X7183062Y-21189585D01*
X7132178Y-21232788D01*
X7095374Y-21245759D01*
X7043434Y-21252856D01*
X6992999Y-21251340D01*
X6956983Y-21240632D01*
X6953158Y-21237966D01*
X6942998Y-21219337D01*
X6950048Y-21186505D01*
X6962297Y-21160735D01*
X6981939Y-21150006D01*
X7019191Y-21150539D01*
X7070908Y-21147462D01*
X7104701Y-21126212D01*
X7116114Y-21086877D01*
X7116104Y-21085747D01*
X7109187Y-21062913D01*
X7085659Y-21041963D01*
X7039914Y-21017815D01*
X6977704Y-20988741D01*
X6936499Y-20972925D01*
X6912712Y-20973944D01*
X6901597Y-20994837D01*
X6898408Y-21038641D01*
X6898400Y-21108393D01*
X6898044Y-21151452D01*
X6896413Y-21204626D01*
X6893761Y-21241022D01*
X6890422Y-21254514D01*
X6889530Y-21254423D01*
X6870237Y-21247110D01*
X6838284Y-21231678D01*
X6794124Y-21208842D01*
X6799371Y-21003078D01*
X6799736Y-20989432D01*
X6803904Y-20893651D01*
X6811268Y-20821462D01*
X6823330Y-20768058D01*
X6841593Y-20728633D01*
X6867560Y-20698380D01*
X6902733Y-20672493D01*
X6903384Y-20672087D01*
X6960256Y-20650968D01*
X7026033Y-20647400D01*
X7089483Y-20660569D01*
G36*
X4967495Y-20646220D02*
G01*
X4998599Y-20654121D01*
X5027559Y-20673817D01*
X5064831Y-20710484D01*
X5088801Y-20736378D01*
X5113770Y-20769997D01*
X5125031Y-20801506D01*
X5127657Y-20841485D01*
X5127657Y-20906917D01*
X5083035Y-20883842D01*
X5047673Y-20855724D01*
X5023451Y-20817848D01*
X5019291Y-20807551D01*
X4987594Y-20767637D01*
X4943554Y-20747624D01*
X4895531Y-20749572D01*
X4851886Y-20775543D01*
X4833420Y-20796635D01*
X4822663Y-20823619D01*
X4834178Y-20847634D01*
X4869981Y-20871791D01*
X4932090Y-20899199D01*
X4941515Y-20902985D01*
X4998058Y-20927759D01*
X5046580Y-20952189D01*
X5077451Y-20971486D01*
X5108371Y-21005953D01*
X5128927Y-21060957D01*
X5126744Y-21119983D01*
X5102424Y-21175845D01*
X5056568Y-21221355D01*
X5019438Y-21240727D01*
X4947711Y-21254292D01*
X4907852Y-21252462D01*
X4870953Y-21242568D01*
X4856797Y-21221806D01*
X4862091Y-21187613D01*
X4863631Y-21183092D01*
X4875842Y-21159116D01*
X4896174Y-21150042D01*
X4934908Y-21150649D01*
X4962257Y-21151474D01*
X4994257Y-21144392D01*
X5016182Y-21123219D01*
X5028670Y-21097152D01*
X5030062Y-21069845D01*
X5029998Y-21069685D01*
X5013807Y-21054930D01*
X4979155Y-21033457D01*
X4934321Y-21009458D01*
X4887582Y-20987125D01*
X4847217Y-20970652D01*
X4821504Y-20964229D01*
X4817679Y-20970518D01*
X4812864Y-21000115D01*
X4809566Y-21048447D01*
X4808343Y-21109372D01*
X4808058Y-21151542D01*
X4806718Y-21204653D01*
X4804528Y-21241025D01*
X4801769Y-21254514D01*
X4787344Y-21249981D01*
X4758226Y-21237670D01*
X4721257Y-21220826D01*
X4721257Y-21004721D01*
X4721493Y-20949327D01*
X4723729Y-20865207D01*
X4729423Y-20802800D01*
X4739903Y-20757358D01*
X4756497Y-20724133D01*
X4780531Y-20698378D01*
X4813333Y-20675344D01*
X4855124Y-20656335D01*
X4932287Y-20644914D01*
X4967495Y-20646220D01*
G37*
X4967495Y-20646220D02*
X4998599Y-20654121D01*
X5027559Y-20673817D01*
X5064831Y-20710484D01*
X5088801Y-20736378D01*
X5113770Y-20769997D01*
X5125031Y-20801506D01*
X5127657Y-20841485D01*
X5127657Y-20906917D01*
X5083035Y-20883842D01*
X5047673Y-20855724D01*
X5023451Y-20817848D01*
X5019291Y-20807551D01*
X4987594Y-20767637D01*
X4943554Y-20747624D01*
X4895531Y-20749572D01*
X4851886Y-20775543D01*
X4833420Y-20796635D01*
X4822663Y-20823619D01*
X4834178Y-20847634D01*
X4869981Y-20871791D01*
X4932090Y-20899199D01*
X4941515Y-20902985D01*
X4998058Y-20927759D01*
X5046580Y-20952189D01*
X5077451Y-20971486D01*
X5108371Y-21005953D01*
X5128927Y-21060957D01*
X5126744Y-21119983D01*
X5102424Y-21175845D01*
X5056568Y-21221355D01*
X5019438Y-21240727D01*
X4947711Y-21254292D01*
X4907852Y-21252462D01*
X4870953Y-21242568D01*
X4856797Y-21221806D01*
X4862091Y-21187613D01*
X4863631Y-21183092D01*
X4875842Y-21159116D01*
X4896174Y-21150042D01*
X4934908Y-21150649D01*
X4962257Y-21151474D01*
X4994257Y-21144392D01*
X5016182Y-21123219D01*
X5028670Y-21097152D01*
X5030062Y-21069845D01*
X5029998Y-21069685D01*
X5013807Y-21054930D01*
X4979155Y-21033457D01*
X4934321Y-21009458D01*
X4887582Y-20987125D01*
X4847217Y-20970652D01*
X4821504Y-20964229D01*
X4817679Y-20970518D01*
X4812864Y-21000115D01*
X4809566Y-21048447D01*
X4808343Y-21109372D01*
X4808058Y-21151542D01*
X4806718Y-21204653D01*
X4804528Y-21241025D01*
X4801769Y-21254514D01*
X4787344Y-21249981D01*
X4758226Y-21237670D01*
X4721257Y-21220826D01*
X4721257Y-21004721D01*
X4721493Y-20949327D01*
X4723729Y-20865207D01*
X4729423Y-20802800D01*
X4739903Y-20757358D01*
X4756497Y-20724133D01*
X4780531Y-20698378D01*
X4813333Y-20675344D01*
X4855124Y-20656335D01*
X4932287Y-20644914D01*
X4967495Y-20646220D01*
G36*
X8431020Y-20617822D02*
G01*
X8498810Y-20649680D01*
X8554366Y-20704770D01*
X8565881Y-20722016D01*
X8575432Y-20741562D01*
X8582206Y-20766198D01*
X8586819Y-20800711D01*
X8589888Y-20849889D01*
X8592029Y-20918519D01*
X8593859Y-21011389D01*
X8598404Y-21269007D01*
X8560225Y-21254491D01*
X8525268Y-21241156D01*
X8499097Y-21228323D01*
X8482013Y-21211780D01*
X8472086Y-21186465D01*
X8467386Y-21147316D01*
X8465982Y-21089268D01*
X8465943Y-21007261D01*
X8465744Y-20941895D01*
X8464559Y-20879173D01*
X8461729Y-20836334D01*
X8456609Y-20808220D01*
X8448553Y-20789675D01*
X8436914Y-20775543D01*
X8408303Y-20755600D01*
X8360239Y-20748083D01*
X8312688Y-20767079D01*
X8309550Y-20769511D01*
X8299769Y-20780748D01*
X8292553Y-20798770D01*
X8287299Y-20828026D01*
X8283402Y-20872962D01*
X8280256Y-20938028D01*
X8277257Y-21027670D01*
X8270000Y-21267697D01*
X8208314Y-21240044D01*
X8146629Y-21212391D01*
X8146629Y-20993246D01*
X8146884Y-20933711D01*
X8149086Y-20850892D01*
X8154661Y-20789227D01*
X8164941Y-20743748D01*
X8181258Y-20709484D01*
X8204943Y-20681466D01*
X8237328Y-20654723D01*
X8283907Y-20627780D01*
X8357287Y-20610191D01*
X8431020Y-20617822D01*
G37*
X8431020Y-20617822D02*
X8498810Y-20649680D01*
X8554366Y-20704770D01*
X8565881Y-20722016D01*
X8575432Y-20741562D01*
X8582206Y-20766198D01*
X8586819Y-20800711D01*
X8589888Y-20849889D01*
X8592029Y-20918519D01*
X8593859Y-21011389D01*
X8598404Y-21269007D01*
X8560225Y-21254491D01*
X8525268Y-21241156D01*
X8499097Y-21228323D01*
X8482013Y-21211780D01*
X8472086Y-21186465D01*
X8467386Y-21147316D01*
X8465982Y-21089268D01*
X8465943Y-21007261D01*
X8465744Y-20941895D01*
X8464559Y-20879173D01*
X8461729Y-20836334D01*
X8456609Y-20808220D01*
X8448553Y-20789675D01*
X8436914Y-20775543D01*
X8408303Y-20755600D01*
X8360239Y-20748083D01*
X8312688Y-20767079D01*
X8309550Y-20769511D01*
X8299769Y-20780748D01*
X8292553Y-20798770D01*
X8287299Y-20828026D01*
X8283402Y-20872962D01*
X8280256Y-20938028D01*
X8277257Y-21027670D01*
X8270000Y-21267697D01*
X8208314Y-21240044D01*
X8146629Y-21212391D01*
X8146629Y-20993246D01*
X8146884Y-20933711D01*
X8149086Y-20850892D01*
X8154661Y-20789227D01*
X8164941Y-20743748D01*
X8181258Y-20709484D01*
X8204943Y-20681466D01*
X8237328Y-20654723D01*
X8283907Y-20627780D01*
X8357287Y-20610191D01*
X8431020Y-20617822D01*
G36*
X4140307Y-20991305D02*
G01*
X4136762Y-21067521D01*
X4127483Y-21123294D01*
X4110375Y-21164613D01*
X4083344Y-21197467D01*
X4044292Y-21227846D01*
X4019445Y-21241660D01*
X3979615Y-21250965D01*
X3923665Y-21250230D01*
X3892385Y-21247283D01*
X3854653Y-21238283D01*
X3824494Y-21218720D01*
X3789408Y-21182267D01*
X3784720Y-21176943D01*
X3753177Y-21135969D01*
X3738128Y-21100283D01*
X3734286Y-21057966D01*
X3734286Y-20995779D01*
X3777742Y-21012182D01*
X3809424Y-21031356D01*
X3836962Y-21076347D01*
X3842711Y-21090752D01*
X3874855Y-21131546D01*
X3918611Y-21152081D01*
X3966254Y-21150235D01*
X4010057Y-21123886D01*
X4025111Y-21107455D01*
X4038763Y-21082667D01*
X4034493Y-21060144D01*
X4009916Y-21036964D01*
X3962651Y-21010202D01*
X3890314Y-20976934D01*
X3741543Y-20911816D01*
X3737595Y-20847308D01*
X3739079Y-20806220D01*
X3836010Y-20806220D01*
X3843368Y-20831657D01*
X3876848Y-20858814D01*
X3937614Y-20889714D01*
X3947669Y-20894190D01*
X3995751Y-20915017D01*
X4031726Y-20929665D01*
X4048444Y-20935200D01*
X4050977Y-20931126D01*
X4051993Y-20906247D01*
X4048369Y-20866257D01*
X4039242Y-20827152D01*
X4010773Y-20777884D01*
X3969678Y-20750122D01*
X3920590Y-20746364D01*
X3868144Y-20769109D01*
X3853609Y-20780481D01*
X3836010Y-20806220D01*
X3739079Y-20806220D01*
X3739338Y-20799064D01*
X3761281Y-20738096D01*
X3788979Y-20704497D01*
X3846405Y-20666966D01*
X3914527Y-20648006D01*
X3984947Y-20649507D01*
X4049267Y-20673355D01*
X4063426Y-20682513D01*
X4095904Y-20710849D01*
X4118116Y-20746695D01*
X4131804Y-20795384D01*
X4138715Y-20862249D01*
X4139628Y-20906247D01*
X4140590Y-20952622D01*
X4140307Y-20991305D01*
G37*
X4140307Y-20991305D02*
X4136762Y-21067521D01*
X4127483Y-21123294D01*
X4110375Y-21164613D01*
X4083344Y-21197467D01*
X4044292Y-21227846D01*
X4019445Y-21241660D01*
X3979615Y-21250965D01*
X3923665Y-21250230D01*
X3892385Y-21247283D01*
X3854653Y-21238283D01*
X3824494Y-21218720D01*
X3789408Y-21182267D01*
X3784720Y-21176943D01*
X3753177Y-21135969D01*
X3738128Y-21100283D01*
X3734286Y-21057966D01*
X3734286Y-20995779D01*
X3777742Y-21012182D01*
X3809424Y-21031356D01*
X3836962Y-21076347D01*
X3842711Y-21090752D01*
X3874855Y-21131546D01*
X3918611Y-21152081D01*
X3966254Y-21150235D01*
X4010057Y-21123886D01*
X4025111Y-21107455D01*
X4038763Y-21082667D01*
X4034493Y-21060144D01*
X4009916Y-21036964D01*
X3962651Y-21010202D01*
X3890314Y-20976934D01*
X3741543Y-20911816D01*
X3737595Y-20847308D01*
X3739079Y-20806220D01*
X3836010Y-20806220D01*
X3843368Y-20831657D01*
X3876848Y-20858814D01*
X3937614Y-20889714D01*
X3947669Y-20894190D01*
X3995751Y-20915017D01*
X4031726Y-20929665D01*
X4048444Y-20935200D01*
X4050977Y-20931126D01*
X4051993Y-20906247D01*
X4048369Y-20866257D01*
X4039242Y-20827152D01*
X4010773Y-20777884D01*
X3969678Y-20750122D01*
X3920590Y-20746364D01*
X3868144Y-20769109D01*
X3853609Y-20780481D01*
X3836010Y-20806220D01*
X3739079Y-20806220D01*
X3739338Y-20799064D01*
X3761281Y-20738096D01*
X3788979Y-20704497D01*
X3846405Y-20666966D01*
X3914527Y-20648006D01*
X3984947Y-20649507D01*
X4049267Y-20673355D01*
X4063426Y-20682513D01*
X4095904Y-20710849D01*
X4118116Y-20746695D01*
X4131804Y-20795384D01*
X4138715Y-20862249D01*
X4139628Y-20906247D01*
X4140590Y-20952622D01*
X4140307Y-20991305D01*
G04 #@! TD*
M02*
