G04 #@! TF.GenerationSoftware,KiCad,Pcbnew,6.0.9-8da3e8f707~116~ubuntu20.04.1*
G04 #@! TF.CreationDate,2023-03-26T13:58:36+00:00*
G04 #@! TF.ProjectId,LEC001021,4c454330-3031-4303-9231-2e6b69636164,rev?*
G04 #@! TF.SameCoordinates,Original*
G04 #@! TF.FileFunction,Copper,L1,Top*
G04 #@! TF.FilePolarity,Positive*
%FSLAX46Y46*%
G04 Gerber Fmt 4.6, Leading zero omitted, Abs format (unit mm)*
G04 Created by KiCad (PCBNEW 6.0.9-8da3e8f707~116~ubuntu20.04.1) date 2023-03-26 13:58:36*
%MOMM*%
%LPD*%
G01*
G04 APERTURE LIST*
G04 #@! TA.AperFunction,ComponentPad*
%ADD10R,3.000000X3.000000*%
G04 #@! TD*
G04 #@! TA.AperFunction,ComponentPad*
%ADD11C,3.000000*%
G04 #@! TD*
G04 #@! TA.AperFunction,SMDPad,CuDef*
%ADD12R,3.300000X2.500000*%
G04 #@! TD*
G04 #@! TA.AperFunction,SMDPad,CuDef*
%ADD13R,2.500000X3.300000*%
G04 #@! TD*
G04 #@! TA.AperFunction,Conductor*
%ADD14C,1.500000*%
G04 #@! TD*
G04 APERTURE END LIST*
D10*
G04 #@! TO.P,J1,1,Pin_1*
G04 #@! TO.N,Net-(D1-Pad1)*
X12500000Y-26000000D03*
D11*
G04 #@! TO.P,J1,2,Pin_2*
G04 #@! TO.N,Net-(D3-Pad1)*
X17580000Y-26000000D03*
G04 #@! TD*
D12*
G04 #@! TO.P,D1,1,K*
G04 #@! TO.N,Net-(D1-Pad1)*
X4000000Y-26800000D03*
G04 #@! TO.P,D1,2,A*
G04 #@! TO.N,Net-(D1-Pad2)*
X4000000Y-20000000D03*
G04 #@! TD*
G04 #@! TO.P,D2,1,K*
G04 #@! TO.N,Net-(D1-Pad2)*
X4000000Y-16800000D03*
G04 #@! TO.P,D2,2,A*
G04 #@! TO.N,Net-(D2-Pad2)*
X4000000Y-10000000D03*
G04 #@! TD*
D13*
G04 #@! TO.P,D4,1,K*
G04 #@! TO.N,Net-(D2-Pad2)*
X11500000Y-4500000D03*
G04 #@! TO.P,D4,2,A*
G04 #@! TO.N,Net-(D4-Pad2)*
X18300000Y-4500000D03*
G04 #@! TD*
D12*
G04 #@! TO.P,D5,1,K*
G04 #@! TO.N,Net-(D4-Pad2)*
X26000000Y-10000000D03*
G04 #@! TO.P,D5,2,A*
G04 #@! TO.N,Net-(D3-Pad1)*
X26000000Y-16800000D03*
G04 #@! TD*
G04 #@! TO.P,D3,1,K*
G04 #@! TO.N,Net-(D3-Pad1)*
X26000000Y-20000000D03*
G04 #@! TO.P,D3,2,A*
G04 #@! TO.N,Net-(D1-Pad1)*
X26000000Y-26800000D03*
G04 #@! TD*
D14*
G04 #@! TO.N,Net-(D1-Pad2)*
X4000000Y-16800000D02*
X4000000Y-20000000D01*
G04 #@! TO.N,Net-(D1-Pad1)*
X7200000Y-26800000D02*
X4000000Y-26800000D01*
X12500000Y-26000000D02*
X8000000Y-26000000D01*
X8000000Y-26000000D02*
X7200000Y-26800000D01*
X14950001Y-28450001D02*
X24349999Y-28450001D01*
X24349999Y-28450001D02*
X26000000Y-26800000D01*
X12500000Y-26000000D02*
X14950001Y-28450001D01*
G04 #@! TO.N,Net-(D2-Pad2)*
X9500000Y-10000000D02*
X11500000Y-8000000D01*
X4000000Y-10000000D02*
X9500000Y-10000000D01*
X11500000Y-8000000D02*
X11500000Y-4500000D01*
G04 #@! TO.N,Net-(D4-Pad2)*
X18300000Y-8300000D02*
X18300000Y-4500000D01*
X26000000Y-10000000D02*
X20000000Y-10000000D01*
X20000000Y-10000000D02*
X18300000Y-8300000D01*
G04 #@! TO.N,Net-(D3-Pad1)*
X17580000Y-26000000D02*
X23080000Y-20500000D01*
X26000000Y-20000000D02*
X23580000Y-20000000D01*
X23580000Y-20000000D02*
X23080000Y-20500000D01*
X26000000Y-16800000D02*
X26000000Y-20000000D01*
G04 #@! TD*
G04 #@! TA.AperFunction,NonConductor*
G36*
X29434121Y-528002D02*
G01*
X29480614Y-581658D01*
X29492000Y-634000D01*
X29492000Y-29366000D01*
X29471998Y-29434121D01*
X29418342Y-29480614D01*
X29366000Y-29492000D01*
X25391977Y-29492000D01*
X25323856Y-29471998D01*
X25277363Y-29418342D01*
X25267259Y-29348068D01*
X25296753Y-29283488D01*
X25302882Y-29276905D01*
X25984382Y-28595405D01*
X26046694Y-28561379D01*
X26073477Y-28558500D01*
X27698134Y-28558500D01*
X27760316Y-28551745D01*
X27896705Y-28500615D01*
X28013261Y-28413261D01*
X28100615Y-28296705D01*
X28151745Y-28160316D01*
X28158500Y-28098134D01*
X28158500Y-25501866D01*
X28151745Y-25439684D01*
X28100615Y-25303295D01*
X28013261Y-25186739D01*
X27896705Y-25099385D01*
X27760316Y-25048255D01*
X27698134Y-25041500D01*
X24301866Y-25041500D01*
X24239684Y-25048255D01*
X24103295Y-25099385D01*
X23986739Y-25186739D01*
X23899385Y-25303295D01*
X23848255Y-25439684D01*
X23841500Y-25501866D01*
X23841500Y-27065501D01*
X23821498Y-27133622D01*
X23767842Y-27180115D01*
X23715500Y-27191501D01*
X19430349Y-27191501D01*
X19362228Y-27171499D01*
X19315735Y-27117843D01*
X19305631Y-27047569D01*
X19319618Y-27005379D01*
X19408418Y-26841830D01*
X19408419Y-26841828D01*
X19410468Y-26838054D01*
X19507269Y-26581877D01*
X19568407Y-26314933D01*
X19572809Y-26265617D01*
X19592531Y-26044627D01*
X19592531Y-26044625D01*
X19592751Y-26042161D01*
X19593193Y-26000000D01*
X19582193Y-25838645D01*
X19597515Y-25769322D01*
X19618806Y-25740981D01*
X23781070Y-21578718D01*
X23843382Y-21544692D01*
X23914198Y-21549757D01*
X23970991Y-21592248D01*
X23986739Y-21613261D01*
X24103295Y-21700615D01*
X24239684Y-21751745D01*
X24301866Y-21758500D01*
X27698134Y-21758500D01*
X27760316Y-21751745D01*
X27896705Y-21700615D01*
X28013261Y-21613261D01*
X28100615Y-21496705D01*
X28151745Y-21360316D01*
X28158500Y-21298134D01*
X28158500Y-18701866D01*
X28151745Y-18639684D01*
X28100615Y-18503295D01*
X28079832Y-18475564D01*
X28054985Y-18409057D01*
X28070039Y-18339675D01*
X28079832Y-18324436D01*
X28095229Y-18303891D01*
X28100615Y-18296705D01*
X28151745Y-18160316D01*
X28158500Y-18098134D01*
X28158500Y-15501866D01*
X28151745Y-15439684D01*
X28100615Y-15303295D01*
X28013261Y-15186739D01*
X27896705Y-15099385D01*
X27760316Y-15048255D01*
X27698134Y-15041500D01*
X24301866Y-15041500D01*
X24239684Y-15048255D01*
X24103295Y-15099385D01*
X23986739Y-15186739D01*
X23899385Y-15303295D01*
X23848255Y-15439684D01*
X23841500Y-15501866D01*
X23841500Y-18098134D01*
X23848255Y-18160316D01*
X23899385Y-18296705D01*
X23904771Y-18303891D01*
X23920168Y-18324436D01*
X23945015Y-18390943D01*
X23929961Y-18460325D01*
X23920168Y-18475564D01*
X23899385Y-18503295D01*
X23896233Y-18511703D01*
X23851029Y-18632285D01*
X23848255Y-18639684D01*
X23847628Y-18645453D01*
X23812874Y-18706291D01*
X23749919Y-18739113D01*
X23725507Y-18741500D01*
X23671396Y-18741500D01*
X23654949Y-18740422D01*
X23654270Y-18740333D01*
X23632914Y-18737521D01*
X23627314Y-18737785D01*
X23627313Y-18737785D01*
X23551504Y-18741360D01*
X23545569Y-18741500D01*
X23523001Y-18741500D01*
X23520218Y-18741748D01*
X23520204Y-18741749D01*
X23497023Y-18743818D01*
X23491760Y-18744177D01*
X23462342Y-18745564D01*
X23408512Y-18748103D01*
X23391023Y-18752108D01*
X23374104Y-18754788D01*
X23369618Y-18755189D01*
X23356238Y-18756383D01*
X23350830Y-18757862D01*
X23350827Y-18757863D01*
X23275870Y-18778369D01*
X23270752Y-18779655D01*
X23213946Y-18792666D01*
X23189530Y-18798258D01*
X23173037Y-18805293D01*
X23156855Y-18810928D01*
X23144967Y-18814180D01*
X23144958Y-18814183D01*
X23139549Y-18815663D01*
X23134486Y-18818078D01*
X23134475Y-18818082D01*
X23064343Y-18851534D01*
X23059542Y-18853702D01*
X22982892Y-18886396D01*
X22978204Y-18889475D01*
X22978203Y-18889476D01*
X22967900Y-18896244D01*
X22952971Y-18904656D01*
X22936782Y-18912378D01*
X22932226Y-18915652D01*
X22932224Y-18915653D01*
X22869122Y-18960997D01*
X22864771Y-18963987D01*
X22798992Y-19007195D01*
X22798987Y-19007199D01*
X22795126Y-19009735D01*
X22791675Y-19012810D01*
X22774346Y-19028249D01*
X22764055Y-19036494D01*
X22758907Y-19040193D01*
X22758903Y-19040197D01*
X22754346Y-19043471D01*
X22750439Y-19047503D01*
X22679968Y-19120223D01*
X22678579Y-19121633D01*
X17842482Y-23957730D01*
X17780170Y-23991756D01*
X17735640Y-23993379D01*
X17731698Y-23992818D01*
X17731689Y-23992817D01*
X17727443Y-23992213D01*
X17583589Y-23991460D01*
X17457877Y-23990802D01*
X17457871Y-23990802D01*
X17453591Y-23990780D01*
X17449347Y-23991339D01*
X17449343Y-23991339D01*
X17330302Y-24007011D01*
X17182078Y-24026525D01*
X16917928Y-24098788D01*
X16913980Y-24100472D01*
X16669982Y-24204546D01*
X16669978Y-24204548D01*
X16666030Y-24206232D01*
X16599400Y-24246109D01*
X16434725Y-24344664D01*
X16434721Y-24344667D01*
X16431043Y-24346868D01*
X16217318Y-24518094D01*
X16214371Y-24521200D01*
X16060239Y-24683621D01*
X16028808Y-24716742D01*
X15869002Y-24939136D01*
X15740857Y-25181161D01*
X15739385Y-25185184D01*
X15739383Y-25185188D01*
X15696162Y-25303295D01*
X15646743Y-25438337D01*
X15588404Y-25705907D01*
X15566917Y-25978918D01*
X15582682Y-26252320D01*
X15583507Y-26256525D01*
X15583508Y-26256533D01*
X15594127Y-26310657D01*
X15635405Y-26521053D01*
X15636792Y-26525103D01*
X15636793Y-26525108D01*
X15657605Y-26585895D01*
X15724112Y-26780144D01*
X15726039Y-26783975D01*
X15839157Y-27008887D01*
X15851895Y-27078732D01*
X15824851Y-27144375D01*
X15766610Y-27184977D01*
X15726592Y-27191501D01*
X15523479Y-27191501D01*
X15455358Y-27171499D01*
X15434384Y-27154596D01*
X14545405Y-26265617D01*
X14511379Y-26203305D01*
X14508500Y-26176522D01*
X14508500Y-24451866D01*
X14501745Y-24389684D01*
X14450615Y-24253295D01*
X14363261Y-24136739D01*
X14246705Y-24049385D01*
X14110316Y-23998255D01*
X14048134Y-23991500D01*
X10951866Y-23991500D01*
X10889684Y-23998255D01*
X10753295Y-24049385D01*
X10636739Y-24136739D01*
X10549385Y-24253295D01*
X10498255Y-24389684D01*
X10491500Y-24451866D01*
X10491500Y-24615500D01*
X10471498Y-24683621D01*
X10417842Y-24730114D01*
X10365500Y-24741500D01*
X8091396Y-24741500D01*
X8074949Y-24740422D01*
X8074270Y-24740333D01*
X8052914Y-24737521D01*
X8047314Y-24737785D01*
X8047313Y-24737785D01*
X7971504Y-24741360D01*
X7965569Y-24741500D01*
X7943001Y-24741500D01*
X7940218Y-24741748D01*
X7940204Y-24741749D01*
X7917023Y-24743818D01*
X7911760Y-24744177D01*
X7882342Y-24745564D01*
X7828512Y-24748103D01*
X7811023Y-24752108D01*
X7794104Y-24754788D01*
X7789618Y-24755189D01*
X7776238Y-24756383D01*
X7770830Y-24757862D01*
X7770827Y-24757863D01*
X7695870Y-24778369D01*
X7690752Y-24779655D01*
X7615000Y-24797005D01*
X7614998Y-24797006D01*
X7609530Y-24798258D01*
X7599030Y-24802737D01*
X7593033Y-24805294D01*
X7576858Y-24810927D01*
X7570806Y-24812583D01*
X7559549Y-24815663D01*
X7554494Y-24818074D01*
X7554489Y-24818076D01*
X7484317Y-24851546D01*
X7479508Y-24853717D01*
X7408053Y-24884195D01*
X7408047Y-24884198D01*
X7402892Y-24886397D01*
X7387902Y-24896244D01*
X7372974Y-24904655D01*
X7356782Y-24912378D01*
X7352229Y-24915650D01*
X7352225Y-24915652D01*
X7289103Y-24961010D01*
X7284753Y-24963999D01*
X7215126Y-25009735D01*
X7194338Y-25028257D01*
X7184061Y-25036490D01*
X7174346Y-25043471D01*
X7170444Y-25047498D01*
X7099970Y-25120221D01*
X7098581Y-25121632D01*
X6715616Y-25504596D01*
X6653304Y-25538621D01*
X6626521Y-25541500D01*
X6274493Y-25541500D01*
X6206372Y-25521498D01*
X6159879Y-25467842D01*
X6152457Y-25446237D01*
X6151745Y-25439684D01*
X6148972Y-25432285D01*
X6103767Y-25311703D01*
X6100615Y-25303295D01*
X6013261Y-25186739D01*
X5896705Y-25099385D01*
X5760316Y-25048255D01*
X5698134Y-25041500D01*
X2301866Y-25041500D01*
X2239684Y-25048255D01*
X2103295Y-25099385D01*
X1986739Y-25186739D01*
X1899385Y-25303295D01*
X1848255Y-25439684D01*
X1841500Y-25501866D01*
X1841500Y-28098134D01*
X1848255Y-28160316D01*
X1899385Y-28296705D01*
X1986739Y-28413261D01*
X2103295Y-28500615D01*
X2239684Y-28551745D01*
X2301866Y-28558500D01*
X5698134Y-28558500D01*
X5760316Y-28551745D01*
X5896705Y-28500615D01*
X6013261Y-28413261D01*
X6100615Y-28296705D01*
X6106120Y-28282022D01*
X6148972Y-28167714D01*
X6148973Y-28167711D01*
X6151745Y-28160316D01*
X6152372Y-28154547D01*
X6187126Y-28093709D01*
X6250081Y-28060887D01*
X6274493Y-28058500D01*
X7108604Y-28058500D01*
X7125051Y-28059578D01*
X7141516Y-28061746D01*
X7141520Y-28061746D01*
X7147086Y-28062479D01*
X7228489Y-28058640D01*
X7234424Y-28058500D01*
X7256999Y-28058500D01*
X7282989Y-28056181D01*
X7288248Y-28055822D01*
X7371488Y-28051896D01*
X7376947Y-28050646D01*
X7376952Y-28050645D01*
X7388970Y-28047892D01*
X7405899Y-28045211D01*
X7423762Y-28043617D01*
X7429178Y-28042135D01*
X7429180Y-28042135D01*
X7504133Y-28021630D01*
X7509251Y-28020344D01*
X7585000Y-28002995D01*
X7585002Y-28002994D01*
X7590470Y-28001742D01*
X7600970Y-27997263D01*
X7606967Y-27994706D01*
X7623142Y-27989073D01*
X7635039Y-27985818D01*
X7635043Y-27985817D01*
X7640451Y-27984337D01*
X7673192Y-27968720D01*
X7715667Y-27948461D01*
X7720476Y-27946290D01*
X7791949Y-27915804D01*
X7791950Y-27915804D01*
X7797109Y-27913603D01*
X7812110Y-27903749D01*
X7827025Y-27895346D01*
X7843218Y-27887622D01*
X7847769Y-27884352D01*
X7847772Y-27884350D01*
X7910881Y-27839001D01*
X7915232Y-27836011D01*
X7981010Y-27792804D01*
X7981018Y-27792798D01*
X7984874Y-27790265D01*
X8005662Y-27771743D01*
X8015939Y-27763510D01*
X8025654Y-27756529D01*
X8100063Y-27679745D01*
X8101452Y-27678335D01*
X8484382Y-27295405D01*
X8546694Y-27261379D01*
X8573477Y-27258500D01*
X10365500Y-27258500D01*
X10433621Y-27278502D01*
X10480114Y-27332158D01*
X10491500Y-27384500D01*
X10491500Y-27548134D01*
X10498255Y-27610316D01*
X10549385Y-27746705D01*
X10636739Y-27863261D01*
X10753295Y-27950615D01*
X10889684Y-28001745D01*
X10951866Y-28008500D01*
X12676523Y-28008500D01*
X12744644Y-28028502D01*
X12765618Y-28045405D01*
X13995476Y-29275264D01*
X14006349Y-29287662D01*
X14007608Y-29289303D01*
X14033204Y-29355525D01*
X14018934Y-29425073D01*
X13969329Y-29475865D01*
X13907640Y-29492000D01*
X634000Y-29492000D01*
X565879Y-29471998D01*
X519386Y-29418342D01*
X508000Y-29366000D01*
X508000Y-21298134D01*
X1841500Y-21298134D01*
X1848255Y-21360316D01*
X1899385Y-21496705D01*
X1986739Y-21613261D01*
X2103295Y-21700615D01*
X2239684Y-21751745D01*
X2301866Y-21758500D01*
X5698134Y-21758500D01*
X5760316Y-21751745D01*
X5896705Y-21700615D01*
X6013261Y-21613261D01*
X6100615Y-21496705D01*
X6151745Y-21360316D01*
X6158500Y-21298134D01*
X6158500Y-18701866D01*
X6151745Y-18639684D01*
X6100615Y-18503295D01*
X6079832Y-18475564D01*
X6054985Y-18409057D01*
X6070039Y-18339675D01*
X6079832Y-18324436D01*
X6095229Y-18303891D01*
X6100615Y-18296705D01*
X6151745Y-18160316D01*
X6158500Y-18098134D01*
X6158500Y-15501866D01*
X6151745Y-15439684D01*
X6100615Y-15303295D01*
X6013261Y-15186739D01*
X5941161Y-15132703D01*
X12890743Y-15132703D01*
X12891302Y-15136947D01*
X12891302Y-15136951D01*
X12897857Y-15186739D01*
X12928268Y-15417734D01*
X13004129Y-15695036D01*
X13116923Y-15959476D01*
X13264561Y-16206161D01*
X13444313Y-16430528D01*
X13652851Y-16628423D01*
X13886317Y-16796186D01*
X13890112Y-16798195D01*
X13890113Y-16798196D01*
X13911869Y-16809715D01*
X14140392Y-16930712D01*
X14410373Y-17029511D01*
X14691264Y-17090755D01*
X14719841Y-17093004D01*
X14914282Y-17108307D01*
X14914291Y-17108307D01*
X14916739Y-17108500D01*
X15072271Y-17108500D01*
X15074407Y-17108354D01*
X15074418Y-17108354D01*
X15282548Y-17094165D01*
X15282554Y-17094164D01*
X15286825Y-17093873D01*
X15291020Y-17093004D01*
X15291022Y-17093004D01*
X15427584Y-17064723D01*
X15568342Y-17035574D01*
X15839343Y-16939607D01*
X16094812Y-16807750D01*
X16098313Y-16805289D01*
X16098317Y-16805287D01*
X16212418Y-16725095D01*
X16330023Y-16642441D01*
X16540622Y-16446740D01*
X16722713Y-16224268D01*
X16872927Y-15979142D01*
X16988483Y-15715898D01*
X17067244Y-15439406D01*
X17107751Y-15154784D01*
X17107845Y-15136951D01*
X17109235Y-14871583D01*
X17109235Y-14871576D01*
X17109257Y-14867297D01*
X17071732Y-14582266D01*
X16995871Y-14304964D01*
X16883077Y-14040524D01*
X16735439Y-13793839D01*
X16555687Y-13569472D01*
X16347149Y-13371577D01*
X16113683Y-13203814D01*
X16091843Y-13192250D01*
X16068654Y-13179972D01*
X15859608Y-13069288D01*
X15589627Y-12970489D01*
X15308736Y-12909245D01*
X15277685Y-12906801D01*
X15085718Y-12891693D01*
X15085709Y-12891693D01*
X15083261Y-12891500D01*
X14927729Y-12891500D01*
X14925593Y-12891646D01*
X14925582Y-12891646D01*
X14717452Y-12905835D01*
X14717446Y-12905836D01*
X14713175Y-12906127D01*
X14708980Y-12906996D01*
X14708978Y-12906996D01*
X14572417Y-12935276D01*
X14431658Y-12964426D01*
X14160657Y-13060393D01*
X13905188Y-13192250D01*
X13901687Y-13194711D01*
X13901683Y-13194713D01*
X13891594Y-13201804D01*
X13669977Y-13357559D01*
X13459378Y-13553260D01*
X13277287Y-13775732D01*
X13127073Y-14020858D01*
X13011517Y-14284102D01*
X12932756Y-14560594D01*
X12892249Y-14845216D01*
X12892227Y-14849505D01*
X12892226Y-14849512D01*
X12890889Y-15104771D01*
X12890743Y-15132703D01*
X5941161Y-15132703D01*
X5896705Y-15099385D01*
X5760316Y-15048255D01*
X5698134Y-15041500D01*
X2301866Y-15041500D01*
X2239684Y-15048255D01*
X2103295Y-15099385D01*
X1986739Y-15186739D01*
X1899385Y-15303295D01*
X1848255Y-15439684D01*
X1841500Y-15501866D01*
X1841500Y-18098134D01*
X1848255Y-18160316D01*
X1899385Y-18296705D01*
X1904771Y-18303891D01*
X1920168Y-18324436D01*
X1945015Y-18390943D01*
X1929961Y-18460325D01*
X1920168Y-18475564D01*
X1899385Y-18503295D01*
X1848255Y-18639684D01*
X1841500Y-18701866D01*
X1841500Y-21298134D01*
X508000Y-21298134D01*
X508000Y-11298134D01*
X1841500Y-11298134D01*
X1848255Y-11360316D01*
X1899385Y-11496705D01*
X1986739Y-11613261D01*
X2103295Y-11700615D01*
X2239684Y-11751745D01*
X2301866Y-11758500D01*
X5698134Y-11758500D01*
X5760316Y-11751745D01*
X5896705Y-11700615D01*
X6013261Y-11613261D01*
X6100615Y-11496705D01*
X6106120Y-11482022D01*
X6148972Y-11367714D01*
X6148973Y-11367711D01*
X6151745Y-11360316D01*
X6152372Y-11354547D01*
X6187126Y-11293709D01*
X6250081Y-11260887D01*
X6274493Y-11258500D01*
X9408604Y-11258500D01*
X9425051Y-11259578D01*
X9441516Y-11261746D01*
X9441520Y-11261746D01*
X9447086Y-11262479D01*
X9528489Y-11258640D01*
X9534424Y-11258500D01*
X9556999Y-11258500D01*
X9582989Y-11256181D01*
X9588248Y-11255822D01*
X9671488Y-11251896D01*
X9676947Y-11250646D01*
X9676952Y-11250645D01*
X9688970Y-11247892D01*
X9705899Y-11245211D01*
X9723762Y-11243617D01*
X9729178Y-11242135D01*
X9729180Y-11242135D01*
X9804133Y-11221630D01*
X9809251Y-11220344D01*
X9885000Y-11202995D01*
X9885002Y-11202994D01*
X9890470Y-11201742D01*
X9900970Y-11197263D01*
X9906967Y-11194706D01*
X9923142Y-11189073D01*
X9935039Y-11185818D01*
X9935043Y-11185817D01*
X9940451Y-11184337D01*
X10010826Y-11150770D01*
X10015667Y-11148461D01*
X10020476Y-11146290D01*
X10091949Y-11115804D01*
X10091950Y-11115804D01*
X10097109Y-11113603D01*
X10112110Y-11103749D01*
X10127025Y-11095346D01*
X10143218Y-11087622D01*
X10147769Y-11084352D01*
X10147772Y-11084350D01*
X10180996Y-11060476D01*
X10210892Y-11038994D01*
X10215232Y-11036011D01*
X10281010Y-10992804D01*
X10281018Y-10992798D01*
X10284874Y-10990265D01*
X10305662Y-10971743D01*
X10315939Y-10963510D01*
X10325654Y-10956529D01*
X10400062Y-10879746D01*
X10401451Y-10878336D01*
X12325263Y-8954525D01*
X12337654Y-8943657D01*
X12350848Y-8933533D01*
X12355292Y-8930123D01*
X12410158Y-8869826D01*
X12414257Y-8865531D01*
X12430198Y-8849590D01*
X12431995Y-8847441D01*
X12446932Y-8829577D01*
X12450400Y-8825602D01*
X12502712Y-8768112D01*
X12502719Y-8768103D01*
X12506485Y-8763964D01*
X12516014Y-8748773D01*
X12526089Y-8734907D01*
X12533996Y-8725451D01*
X12534003Y-8725441D01*
X12537594Y-8721146D01*
X12578887Y-8648752D01*
X12581592Y-8644232D01*
X12589087Y-8632285D01*
X12625864Y-8573656D01*
X12632552Y-8557021D01*
X12640012Y-8541589D01*
X12646120Y-8530881D01*
X12646124Y-8530872D01*
X12648899Y-8526007D01*
X12650768Y-8520730D01*
X12650770Y-8520725D01*
X12676715Y-8447458D01*
X12678580Y-8442522D01*
X12707566Y-8370416D01*
X12709656Y-8365217D01*
X12713294Y-8347650D01*
X12717899Y-8331156D01*
X12723889Y-8314241D01*
X12737359Y-8231990D01*
X12738319Y-8226811D01*
X12738684Y-8225051D01*
X12755213Y-8145233D01*
X12756815Y-8117452D01*
X12758262Y-8104347D01*
X12759286Y-8098090D01*
X12759286Y-8098086D01*
X12760194Y-8092543D01*
X12758516Y-7985736D01*
X12758500Y-7983757D01*
X12758500Y-6774493D01*
X12778502Y-6706372D01*
X12832158Y-6659879D01*
X12853763Y-6652457D01*
X12860316Y-6651745D01*
X12867711Y-6648973D01*
X12867714Y-6648972D01*
X12988297Y-6603767D01*
X12996705Y-6600615D01*
X13113261Y-6513261D01*
X13200615Y-6396705D01*
X13251745Y-6260316D01*
X13258500Y-6198134D01*
X16541500Y-6198134D01*
X16548255Y-6260316D01*
X16599385Y-6396705D01*
X16686739Y-6513261D01*
X16803295Y-6600615D01*
X16811703Y-6603767D01*
X16932286Y-6648972D01*
X16932289Y-6648973D01*
X16939684Y-6651745D01*
X16945453Y-6652372D01*
X17006291Y-6687126D01*
X17039113Y-6750081D01*
X17041500Y-6774493D01*
X17041500Y-8208604D01*
X17040422Y-8225051D01*
X17037521Y-8247086D01*
X17040427Y-8308702D01*
X17041360Y-8328488D01*
X17041500Y-8334424D01*
X17041500Y-8356999D01*
X17042697Y-8370416D01*
X17043819Y-8382988D01*
X17044178Y-8388248D01*
X17048104Y-8471488D01*
X17049354Y-8476947D01*
X17049355Y-8476952D01*
X17052108Y-8488970D01*
X17054789Y-8505899D01*
X17056383Y-8523762D01*
X17057865Y-8529178D01*
X17057865Y-8529180D01*
X17078370Y-8604133D01*
X17079656Y-8609251D01*
X17088426Y-8647540D01*
X17098258Y-8690470D01*
X17100460Y-8695632D01*
X17105294Y-8706967D01*
X17110927Y-8723142D01*
X17115663Y-8740451D01*
X17118079Y-8745516D01*
X17151539Y-8815667D01*
X17153710Y-8820476D01*
X17157592Y-8829577D01*
X17186397Y-8897109D01*
X17196251Y-8912110D01*
X17204654Y-8927025D01*
X17212378Y-8943218D01*
X17215648Y-8947769D01*
X17215650Y-8947772D01*
X17260999Y-9010881D01*
X17263989Y-9015232D01*
X17307196Y-9081010D01*
X17307202Y-9081018D01*
X17309735Y-9084874D01*
X17328257Y-9105662D01*
X17336490Y-9115939D01*
X17343471Y-9125654D01*
X17347498Y-9129556D01*
X17420254Y-9200062D01*
X17421664Y-9201451D01*
X19045475Y-10825263D01*
X19056342Y-10837653D01*
X19069877Y-10855292D01*
X19096752Y-10879746D01*
X19130174Y-10910158D01*
X19134469Y-10914257D01*
X19150410Y-10930198D01*
X19152557Y-10931993D01*
X19152559Y-10931995D01*
X19170423Y-10946932D01*
X19174398Y-10950400D01*
X19231888Y-11002712D01*
X19231897Y-11002719D01*
X19236036Y-11006485D01*
X19240782Y-11009462D01*
X19240783Y-11009463D01*
X19251225Y-11016013D01*
X19265093Y-11026089D01*
X19274549Y-11033996D01*
X19274559Y-11034003D01*
X19278854Y-11037594D01*
X19351240Y-11078882D01*
X19355759Y-11081587D01*
X19369227Y-11090035D01*
X19421596Y-11122886D01*
X19421599Y-11122888D01*
X19426344Y-11125864D01*
X19431549Y-11127957D01*
X19431552Y-11127958D01*
X19442979Y-11132552D01*
X19458411Y-11140012D01*
X19469119Y-11146120D01*
X19469128Y-11146124D01*
X19473993Y-11148899D01*
X19479270Y-11150768D01*
X19479275Y-11150770D01*
X19552542Y-11176715D01*
X19557478Y-11178580D01*
X19583581Y-11189073D01*
X19634783Y-11209656D01*
X19640270Y-11210792D01*
X19640272Y-11210793D01*
X19652349Y-11213294D01*
X19668844Y-11217899D01*
X19685759Y-11223889D01*
X19768010Y-11237359D01*
X19773180Y-11238317D01*
X19801181Y-11244116D01*
X19838750Y-11251896D01*
X19854767Y-11255213D01*
X19859379Y-11255479D01*
X19859380Y-11255479D01*
X19882548Y-11256815D01*
X19895653Y-11258262D01*
X19901910Y-11259286D01*
X19901914Y-11259286D01*
X19907457Y-11260194D01*
X19913070Y-11260106D01*
X19913072Y-11260106D01*
X20014264Y-11258516D01*
X20016243Y-11258500D01*
X23725507Y-11258500D01*
X23793628Y-11278502D01*
X23840121Y-11332158D01*
X23847543Y-11353763D01*
X23848255Y-11360316D01*
X23851027Y-11367711D01*
X23851028Y-11367714D01*
X23893880Y-11482022D01*
X23899385Y-11496705D01*
X23986739Y-11613261D01*
X24103295Y-11700615D01*
X24239684Y-11751745D01*
X24301866Y-11758500D01*
X27698134Y-11758500D01*
X27760316Y-11751745D01*
X27896705Y-11700615D01*
X28013261Y-11613261D01*
X28100615Y-11496705D01*
X28151745Y-11360316D01*
X28158500Y-11298134D01*
X28158500Y-8701866D01*
X28151745Y-8639684D01*
X28100615Y-8503295D01*
X28013261Y-8386739D01*
X27896705Y-8299385D01*
X27760316Y-8248255D01*
X27698134Y-8241500D01*
X24301866Y-8241500D01*
X24239684Y-8248255D01*
X24103295Y-8299385D01*
X23986739Y-8386739D01*
X23899385Y-8503295D01*
X23896233Y-8511703D01*
X23851029Y-8632285D01*
X23848255Y-8639684D01*
X23847628Y-8645453D01*
X23812874Y-8706291D01*
X23749919Y-8739113D01*
X23725507Y-8741500D01*
X20573478Y-8741500D01*
X20505357Y-8721498D01*
X20484382Y-8704595D01*
X19595404Y-7815616D01*
X19561379Y-7753304D01*
X19558500Y-7726521D01*
X19558500Y-6774493D01*
X19578502Y-6706372D01*
X19632158Y-6659879D01*
X19653763Y-6652457D01*
X19660316Y-6651745D01*
X19667711Y-6648973D01*
X19667714Y-6648972D01*
X19788297Y-6603767D01*
X19796705Y-6600615D01*
X19913261Y-6513261D01*
X20000615Y-6396705D01*
X20051745Y-6260316D01*
X20058500Y-6198134D01*
X20058500Y-4132703D01*
X23890743Y-4132703D01*
X23928268Y-4417734D01*
X24004129Y-4695036D01*
X24116923Y-4959476D01*
X24264561Y-5206161D01*
X24444313Y-5430528D01*
X24652851Y-5628423D01*
X24886317Y-5796186D01*
X24890112Y-5798195D01*
X24890113Y-5798196D01*
X24911869Y-5809715D01*
X25140392Y-5930712D01*
X25410373Y-6029511D01*
X25691264Y-6090755D01*
X25719841Y-6093004D01*
X25914282Y-6108307D01*
X25914291Y-6108307D01*
X25916739Y-6108500D01*
X26072271Y-6108500D01*
X26074407Y-6108354D01*
X26074418Y-6108354D01*
X26282548Y-6094165D01*
X26282554Y-6094164D01*
X26286825Y-6093873D01*
X26291020Y-6093004D01*
X26291022Y-6093004D01*
X26427584Y-6064723D01*
X26568342Y-6035574D01*
X26839343Y-5939607D01*
X27094812Y-5807750D01*
X27098313Y-5805289D01*
X27098317Y-5805287D01*
X27212417Y-5725096D01*
X27330023Y-5642441D01*
X27540622Y-5446740D01*
X27722713Y-5224268D01*
X27872927Y-4979142D01*
X27988483Y-4715898D01*
X28067244Y-4439406D01*
X28107751Y-4154784D01*
X28107845Y-4136951D01*
X28109235Y-3871583D01*
X28109235Y-3871576D01*
X28109257Y-3867297D01*
X28071732Y-3582266D01*
X27995871Y-3304964D01*
X27883077Y-3040524D01*
X27735439Y-2793839D01*
X27555687Y-2569472D01*
X27347149Y-2371577D01*
X27113683Y-2203814D01*
X27091843Y-2192250D01*
X27068654Y-2179972D01*
X26859608Y-2069288D01*
X26589627Y-1970489D01*
X26308736Y-1909245D01*
X26277685Y-1906801D01*
X26085718Y-1891693D01*
X26085709Y-1891693D01*
X26083261Y-1891500D01*
X25927729Y-1891500D01*
X25925593Y-1891646D01*
X25925582Y-1891646D01*
X25717452Y-1905835D01*
X25717446Y-1905836D01*
X25713175Y-1906127D01*
X25708980Y-1906996D01*
X25708978Y-1906996D01*
X25572416Y-1935277D01*
X25431658Y-1964426D01*
X25160657Y-2060393D01*
X24905188Y-2192250D01*
X24901687Y-2194711D01*
X24901683Y-2194713D01*
X24891594Y-2201804D01*
X24669977Y-2357559D01*
X24654892Y-2371577D01*
X24536754Y-2481358D01*
X24459378Y-2553260D01*
X24277287Y-2775732D01*
X24127073Y-3020858D01*
X24011517Y-3284102D01*
X23932756Y-3560594D01*
X23892249Y-3845216D01*
X23892227Y-3849505D01*
X23892226Y-3849512D01*
X23890765Y-4128417D01*
X23890743Y-4132703D01*
X20058500Y-4132703D01*
X20058500Y-2801866D01*
X20051745Y-2739684D01*
X20000615Y-2603295D01*
X19913261Y-2486739D01*
X19796705Y-2399385D01*
X19660316Y-2348255D01*
X19598134Y-2341500D01*
X17001866Y-2341500D01*
X16939684Y-2348255D01*
X16803295Y-2399385D01*
X16686739Y-2486739D01*
X16599385Y-2603295D01*
X16548255Y-2739684D01*
X16541500Y-2801866D01*
X16541500Y-6198134D01*
X13258500Y-6198134D01*
X13258500Y-2801866D01*
X13251745Y-2739684D01*
X13200615Y-2603295D01*
X13113261Y-2486739D01*
X12996705Y-2399385D01*
X12860316Y-2348255D01*
X12798134Y-2341500D01*
X10201866Y-2341500D01*
X10139684Y-2348255D01*
X10003295Y-2399385D01*
X9886739Y-2486739D01*
X9799385Y-2603295D01*
X9748255Y-2739684D01*
X9741500Y-2801866D01*
X9741500Y-6198134D01*
X9748255Y-6260316D01*
X9799385Y-6396705D01*
X9886739Y-6513261D01*
X10003295Y-6600615D01*
X10011703Y-6603767D01*
X10132286Y-6648972D01*
X10132289Y-6648973D01*
X10139684Y-6651745D01*
X10145453Y-6652372D01*
X10206291Y-6687126D01*
X10239113Y-6750081D01*
X10241500Y-6774493D01*
X10241500Y-7426523D01*
X10221498Y-7494644D01*
X10204595Y-7515618D01*
X9015617Y-8704595D01*
X8953305Y-8738621D01*
X8926522Y-8741500D01*
X6274493Y-8741500D01*
X6206372Y-8721498D01*
X6159879Y-8667842D01*
X6152457Y-8646237D01*
X6151745Y-8639684D01*
X6148972Y-8632285D01*
X6103767Y-8511703D01*
X6100615Y-8503295D01*
X6013261Y-8386739D01*
X5896705Y-8299385D01*
X5760316Y-8248255D01*
X5698134Y-8241500D01*
X2301866Y-8241500D01*
X2239684Y-8248255D01*
X2103295Y-8299385D01*
X1986739Y-8386739D01*
X1899385Y-8503295D01*
X1848255Y-8639684D01*
X1841500Y-8701866D01*
X1841500Y-11298134D01*
X508000Y-11298134D01*
X508000Y-4132703D01*
X1890743Y-4132703D01*
X1928268Y-4417734D01*
X2004129Y-4695036D01*
X2116923Y-4959476D01*
X2264561Y-5206161D01*
X2444313Y-5430528D01*
X2652851Y-5628423D01*
X2886317Y-5796186D01*
X2890112Y-5798195D01*
X2890113Y-5798196D01*
X2911869Y-5809715D01*
X3140392Y-5930712D01*
X3410373Y-6029511D01*
X3691264Y-6090755D01*
X3719841Y-6093004D01*
X3914282Y-6108307D01*
X3914291Y-6108307D01*
X3916739Y-6108500D01*
X4072271Y-6108500D01*
X4074407Y-6108354D01*
X4074418Y-6108354D01*
X4282548Y-6094165D01*
X4282554Y-6094164D01*
X4286825Y-6093873D01*
X4291020Y-6093004D01*
X4291022Y-6093004D01*
X4427584Y-6064723D01*
X4568342Y-6035574D01*
X4839343Y-5939607D01*
X5094812Y-5807750D01*
X5098313Y-5805289D01*
X5098317Y-5805287D01*
X5212417Y-5725096D01*
X5330023Y-5642441D01*
X5540622Y-5446740D01*
X5722713Y-5224268D01*
X5872927Y-4979142D01*
X5988483Y-4715898D01*
X6067244Y-4439406D01*
X6107751Y-4154784D01*
X6107845Y-4136951D01*
X6109235Y-3871583D01*
X6109235Y-3871576D01*
X6109257Y-3867297D01*
X6071732Y-3582266D01*
X5995871Y-3304964D01*
X5883077Y-3040524D01*
X5735439Y-2793839D01*
X5555687Y-2569472D01*
X5347149Y-2371577D01*
X5113683Y-2203814D01*
X5091843Y-2192250D01*
X5068654Y-2179972D01*
X4859608Y-2069288D01*
X4589627Y-1970489D01*
X4308736Y-1909245D01*
X4277685Y-1906801D01*
X4085718Y-1891693D01*
X4085709Y-1891693D01*
X4083261Y-1891500D01*
X3927729Y-1891500D01*
X3925593Y-1891646D01*
X3925582Y-1891646D01*
X3717452Y-1905835D01*
X3717446Y-1905836D01*
X3713175Y-1906127D01*
X3708980Y-1906996D01*
X3708978Y-1906996D01*
X3572416Y-1935277D01*
X3431658Y-1964426D01*
X3160657Y-2060393D01*
X2905188Y-2192250D01*
X2901687Y-2194711D01*
X2901683Y-2194713D01*
X2891594Y-2201804D01*
X2669977Y-2357559D01*
X2654892Y-2371577D01*
X2536754Y-2481358D01*
X2459378Y-2553260D01*
X2277287Y-2775732D01*
X2127073Y-3020858D01*
X2011517Y-3284102D01*
X1932756Y-3560594D01*
X1892249Y-3845216D01*
X1892227Y-3849505D01*
X1892226Y-3849512D01*
X1890765Y-4128417D01*
X1890743Y-4132703D01*
X508000Y-4132703D01*
X508000Y-634000D01*
X528002Y-565879D01*
X581658Y-519386D01*
X634000Y-508000D01*
X29366000Y-508000D01*
X29434121Y-528002D01*
G37*
G04 #@! TD.AperFunction*
M02*
